<svg width="70" height="15" viewBox="0 0 70 15" fill="none" xmlns="http://www.w3.org/2000/svg">
<path d="M8.30512 11.2675H10.5619L6.49966 0.407494H4.09238L0 11.2675H2.19664L3.08433 8.78605H7.41743L8.30512 11.2675ZM5.25088 2.75104L6.72534 6.85607H3.77642L5.25088 2.75104Z" fill="#222222"/>
<path d="M13.7475 14.1777V10.5322C14.1086 11.0377 14.8608 11.4513 15.8839 11.4513C17.9753 11.4513 19.3745 9.76636 19.3745 7.48408C19.3745 5.24776 18.1257 3.56286 15.9592 3.56286C14.8458 3.56286 14.0183 4.06833 13.6873 4.65038V3.73135H11.7464V14.1777H13.7475ZM17.4035 7.4994C17.4035 8.84732 16.5911 9.6285 15.568 9.6285C14.5449 9.6285 13.7174 8.832 13.7174 7.4994C13.7174 6.16679 14.5449 5.38561 15.568 5.38561C16.5911 5.38561 17.4035 6.16679 17.4035 7.4994Z" fill="#222222"/>
<path d="M22.9599 14.1777V10.5322C23.321 11.0377 24.0733 11.4513 25.0964 11.4513C27.1877 11.4513 28.5869 9.76636 28.5869 7.48408C28.5869 5.24776 27.3381 3.56286 25.1716 3.56286C24.0582 3.56286 23.2307 4.06833 22.8997 4.65038V3.73135H20.9588V14.1777H22.9599ZM26.616 7.4994C26.616 8.84732 25.8035 9.6285 24.7804 9.6285C23.7573 9.6285 22.9298 8.832 22.9298 7.4994C22.9298 6.16679 23.7573 5.38561 24.7804 5.38561C25.8035 5.38561 26.616 6.16679 26.616 7.4994Z" fill="#222222"/>
<path d="M41.2157 2.99612C40.975 1.77073 39.982 0.177734 37.3942 0.177734C35.3781 0.177734 33.6779 1.64819 33.6779 3.57817C33.6779 5.21712 34.7763 6.33528 36.4764 6.68758L37.9659 6.99393C38.7934 7.16242 39.2598 7.65257 39.2598 8.28058C39.2598 9.04644 38.6429 9.61318 37.5296 9.61318C36.025 9.61318 35.2878 8.64819 35.1975 7.57598L33.2717 8.09677C33.4372 9.64382 34.686 11.4972 37.5145 11.4972C39.997 11.4972 41.3662 9.81231 41.3662 8.14272C41.3662 6.611 40.328 5.32434 38.3872 4.94141L36.8977 4.65038C36.1153 4.49721 35.7392 4.02237 35.7392 3.425C35.7392 2.70509 36.4012 2.04644 37.4092 2.04644C38.7633 2.04644 39.2448 2.9808 39.3501 3.57817L41.2157 2.99612Z" fill="#222222"/>
<path d="M45.5097 1.4797H43.7042V2.5366C43.7042 3.21056 43.3431 3.73135 42.5608 3.73135H42.1846V5.53879H43.5237V9.04644C43.5237 10.5016 44.4264 11.3747 45.8708 11.3747C46.4576 11.3747 46.8186 11.2674 46.9992 11.1909V9.50596C46.8939 9.5366 46.6231 9.56723 46.3823 9.56723C45.8106 9.56723 45.5097 9.35279 45.5097 8.69415V5.53879H46.9992V3.73135H45.5097V1.4797Z" fill="#222222"/>
<path d="M51.9506 9.64382C50.9726 9.64382 50.0699 8.90859 50.0699 7.4994C50.0699 6.07489 50.9726 5.35498 51.9506 5.35498C52.9285 5.35498 53.8313 6.07489 53.8313 7.4994C53.8313 8.92391 52.9285 9.64382 51.9506 9.64382ZM51.9506 3.50159C49.7389 3.50159 48.0688 5.17117 48.0688 7.4994C48.0688 9.81231 49.7389 11.4972 51.9506 11.4972C54.1623 11.4972 55.8323 9.81231 55.8323 7.4994C55.8323 5.17117 54.1623 3.50159 51.9506 3.50159Z" fill="#222222"/>
<path d="M61.9255 3.70071C61.7751 3.68539 61.6246 3.67008 61.4591 3.67008C60.8272 3.67008 59.8041 3.85388 59.3527 4.84951V3.73135H57.4119V11.2675H59.4129V7.82106C59.4129 6.19743 60.3006 5.69196 61.3237 5.69196C61.5042 5.69196 61.6998 5.70728 61.9255 5.75323V3.70071Z" fill="#222222"/>
<path d="M64.719 6.64163C64.7642 5.95235 65.3359 5.15585 66.374 5.15585C67.5175 5.15585 67.9989 5.89108 68.029 6.64163H64.719ZM68.2246 8.60224C67.9839 9.2762 67.4724 9.75104 66.5395 9.75104C65.5465 9.75104 64.719 9.03113 64.6739 8.0355H69.9699C69.9699 8.00487 70 7.69852 70 7.40749C70 4.98736 68.6309 3.50159 66.3439 3.50159C64.4482 3.50159 62.7029 5.06395 62.7029 7.46876C62.7029 10.0114 64.4933 11.4972 66.5245 11.4972C68.345 11.4972 69.5185 10.4097 69.8947 9.10771L68.2246 8.60224Z" fill="#222222"/>
</svg>
