<svg width="18" height="22" viewBox="0 0 18 22" fill="none" xmlns="http://www.w3.org/2000/svg">
<path fill-rule="evenodd" clip-rule="evenodd" d="M18 16.4616C17.5078 17.481 17.2728 17.9361 16.6389 18.8368C15.7559 20.0946 14.5099 21.6612 12.966 21.6745C11.5945 21.6865 11.242 20.8398 9.38022 20.85C7.5184 20.8602 7.13041 21.6896 5.75891 21.6776C4.21498 21.6648 3.03536 20.2501 2.15135 18.9914C-0.319701 15.4736 -0.577892 11.3457 0.946144 9.15128C2.02912 7.59086 3.73839 6.67906 5.34486 6.67906C6.9807 6.67906 8.0092 7.51776 9.36222 7.51776C10.6745 7.51776 11.4737 6.67773 13.3654 6.67773C14.7951 6.67773 16.3102 7.40566 17.3898 8.66348C13.8524 10.476 14.4275 15.1985 18 16.4616Z" fill="#222222"/>
<path fill-rule="evenodd" clip-rule="evenodd" d="M12.7799 4.05085C13.5724 3.17561 14.1732 1.94077 13.9547 0.677734C12.6602 0.753883 11.1473 1.46273 10.2636 2.38639C9.46124 3.22449 8.79872 4.46779 9.05652 5.6763C10.4684 5.71438 11.9305 4.98814 12.7799 4.05085Z" fill="#222222"/>
</svg>
