<svg width="16" height="17" viewBox="0 0 16 17" fill="none" xmlns="http://www.w3.org/2000/svg">
<path d="M5.6085 6.22773C5.76132 5.79332 6.06295 5.427 6.45997 5.19367C6.85699 4.96034 7.32378 4.87504 7.77766 4.9529C8.23155 5.03075 8.64323 5.26673 8.9398 5.61903C9.23637 5.97133 9.39869 6.41722 9.398 6.87773C9.398 8.17773 7.448 8.82773 7.448 8.82773M7.5 11.4277H7.5065M14 8.17773C14 11.7676 11.0899 14.6777 7.5 14.6777C3.91015 14.6777 1 11.7676 1 8.17773C1 4.58788 3.91015 1.67773 7.5 1.67773C11.0899 1.67773 14 4.58788 14 8.17773Z" stroke="#98A2B3" stroke-width="1.33333" stroke-linecap="round" stroke-linejoin="round"/>
</svg>
