<svg width="25" height="17" viewBox="0 0 25 17" fill="none" xmlns="http://www.w3.org/2000/svg">
<g clip-path="url(#clip0_1568_12959)">
<path d="M24.1413 0.837891H13.3026L1.3374 9.39492V16.5072H24.1413L24.9155 16.0379V14.5522L24.4116 14.057V12.6523L24.9155 12.2664V9.98073L24.4624 9.53215V8.09515L24.9155 7.69496V5.40928L24.4624 4.99519V3.73581L24.9155 3.12361V1.63789C24.9155 1.19604 24.5689 0.837891 24.1413 0.837891Z" fill="#E5646E"/>
<path d="M12.9312 3.12305H24.9155V5.40877H12.9312V3.12305Z" fill="#F2F2F6"/>
<path d="M12.9155 7.69531L13.3026 9.98103H24.9155V7.69531H12.9155Z" fill="#F2F2F6"/>
<path d="M1.68971 13.6379V9.56445L0.915527 9.98073V12.2664L1.24365 12.5555V14.057L0.915527 14.5522V16.0379C0.915527 16.4797 1.26217 16.8379 1.68971 16.8379H24.1413C24.5689 16.8379 24.9155 16.4797 24.9155 16.0379H4.01232C2.72959 16.0379 1.68971 14.9634 1.68971 13.6379Z" fill="#DB4655"/>
<path d="M13.3026 0.837891H1.68971L1.19678 1.63789L1.68971 9.98073H13.3026V0.837891Z" fill="#5055A0"/>
<path d="M1.68971 0.837891C1.26217 0.837891 0.915527 1.19604 0.915527 1.63789V9.98073H1.68971V0.837891Z" fill="#3F3F8F"/>
<path d="M2.46758 2.62031C2.2536 2.62031 2.07861 2.44119 2.07861 2.22031C2.07861 1.99943 2.24985 1.82031 2.46383 1.82031H2.46763C2.68161 1.82031 2.85472 1.99943 2.85472 2.22031C2.85472 2.44119 2.68152 2.62031 2.46758 2.62031Z" fill="white"/>
<path d="M2.46758 5.82148C2.2536 5.82148 2.07861 5.64236 2.07861 5.42148C2.07861 5.20061 2.24985 5.02148 2.46383 5.02148H2.46763C2.68161 5.02148 2.85472 5.20061 2.85472 5.42148C2.85472 5.64236 2.68152 5.82148 2.46758 5.82148Z" fill="white"/>
<path d="M2.46758 9.02071C2.2536 9.02071 2.07861 8.84159 2.07861 8.62071C2.07861 8.39983 2.24985 8.2207 2.46383 8.2207H2.46763C2.68161 8.2207 2.85472 8.39983 2.85472 8.62071C2.85472 8.84159 2.68152 9.02071 2.46758 9.02071Z" fill="white"/>
<path d="M2.46758 4.22187C2.2536 4.22187 2.07861 4.04275 2.07861 3.82187C2.07861 3.601 2.24985 3.42188 2.46383 3.42188H2.46763C2.68161 3.42188 2.85472 3.601 2.85472 3.82187C2.85468 4.04275 2.68152 4.22187 2.46758 4.22187Z" fill="#F2F2F6"/>
<path d="M2.46758 7.42109C2.2536 7.42109 2.07861 7.24197 2.07861 7.02109C2.07861 6.80022 2.24985 6.62109 2.46383 6.62109H2.46763C2.68161 6.62109 2.85472 6.80022 2.85472 7.02109C2.85472 7.24197 2.68152 7.42109 2.46758 7.42109Z" fill="#F2F2F6"/>
<path d="M11.7581 2.62031C11.5441 2.62031 11.3691 2.44119 11.3691 2.22031C11.3691 1.99943 11.5404 1.82031 11.7544 1.82031H11.7582C11.9721 1.82031 12.1453 1.99943 12.1453 2.22031C12.1453 2.44119 11.9721 2.62031 11.7581 2.62031Z" fill="white"/>
<path d="M11.7581 5.82148C11.5441 5.82148 11.3691 5.64236 11.3691 5.42148C11.3691 5.20061 11.5404 5.02148 11.7544 5.02148H11.7582C11.9721 5.02148 12.1453 5.20061 12.1453 5.42148C12.1453 5.64236 11.9721 5.82148 11.7581 5.82148Z" fill="white"/>
<path d="M11.7581 9.02071C11.5441 9.02071 11.3691 8.84159 11.3691 8.62071C11.3691 8.39983 11.5404 8.2207 11.7544 8.2207H11.7582C11.9721 8.2207 12.1453 8.39983 12.1453 8.62071C12.1453 8.84159 11.9721 9.02071 11.7581 9.02071Z" fill="white"/>
<path d="M11.7581 4.21992C11.5441 4.21992 11.3691 4.0408 11.3691 3.81992C11.3691 3.59904 11.5404 3.41992 11.7544 3.41992H11.7582C11.9721 3.41992 12.1453 3.59904 12.1453 3.81992C12.1453 4.0408 11.9721 4.21992 11.7581 4.21992Z" fill="#F2F2F6"/>
<path d="M11.7581 7.42109C11.5441 7.42109 11.3691 7.24197 11.3691 7.02109C11.3691 6.80022 11.5404 6.62109 11.7544 6.62109H11.7582C11.9721 6.62109 12.1453 6.80022 12.1453 7.02109C12.1453 7.24197 11.9721 7.42109 11.7581 7.42109Z" fill="#F2F2F6"/>
<path d="M4.79034 2.62031C4.57635 2.62031 4.40137 2.44119 4.40137 2.22031C4.40137 1.99943 4.5726 1.82031 4.78659 1.82031H4.79038C5.00437 1.82031 5.17748 1.99943 5.17748 2.22031C5.17748 2.44119 5.00432 2.62031 4.79034 2.62031Z" fill="#F2F2F6"/>
<path d="M4.79034 5.81953C4.57635 5.81953 4.40137 5.6404 4.40137 5.41953C4.40137 5.19865 4.5726 5.01953 4.78659 5.01953H4.79038C5.00437 5.01953 5.17748 5.19865 5.17748 5.41953C5.17748 5.6404 5.00432 5.81953 4.79034 5.81953Z" fill="#F2F2F6"/>
<path d="M4.79034 9.02071C4.57635 9.02071 4.40137 8.84159 4.40137 8.62071C4.40137 8.39983 4.5726 8.2207 4.78659 8.2207H4.79038C5.00437 8.2207 5.17748 8.39983 5.17748 8.62071C5.17748 8.84159 5.00432 9.02071 4.79034 9.02071Z" fill="#F2F2F6"/>
<path d="M4.79034 4.22187C4.57635 4.22187 4.40137 4.04275 4.40137 3.82187C4.40137 3.601 4.5726 3.42188 4.78659 3.42188H4.79038C5.00437 3.42188 5.17748 3.601 5.17748 3.82187C5.17743 4.04275 5.00432 4.22187 4.79034 4.22187Z" fill="white"/>
<path d="M4.79034 7.42109C4.57635 7.42109 4.40137 7.24197 4.40137 7.02109C4.40137 6.80022 4.5726 6.62109 4.78659 6.62109H4.79038C5.00437 6.62109 5.17748 6.80022 5.17748 7.02109C5.17748 7.24197 5.00432 7.42109 4.79034 7.42109Z" fill="white"/>
<path d="M3.6292 3.42109C3.41522 3.42109 3.24023 3.24197 3.24023 3.02109C3.24023 2.80022 3.41147 2.62109 3.62545 2.62109H3.62925C3.84323 2.62109 4.01634 2.80022 4.01634 3.02109C4.01629 3.24202 3.84318 3.42109 3.6292 3.42109Z" fill="white"/>
<path d="M3.6292 6.62031C3.41522 6.62031 3.24023 6.44119 3.24023 6.22031C3.24023 5.99943 3.41147 5.82031 3.62545 5.82031H3.62925C3.84323 5.82031 4.01634 5.99943 4.01634 6.22031C4.01634 6.44119 3.84318 6.62031 3.6292 6.62031Z" fill="white"/>
<path d="M3.6292 5.0207C3.41522 5.0207 3.24023 4.84158 3.24023 4.6207C3.24023 4.39983 3.41147 4.2207 3.62545 4.2207H3.62925C3.84323 4.2207 4.01634 4.39983 4.01634 4.6207C4.01634 4.84158 3.84318 5.0207 3.6292 5.0207Z" fill="#F2F2F6"/>
<path d="M3.6292 8.22187C3.41522 8.22187 3.24023 8.04275 3.24023 7.82187C3.24023 7.601 3.41147 7.42188 3.62545 7.42188H3.62925C3.84323 7.42188 4.01634 7.601 4.01634 7.82187C4.01634 8.04275 3.84318 8.22187 3.6292 8.22187Z" fill="#F2F2F6"/>
<path d="M7.11309 2.62031C6.89911 2.62031 6.72412 2.44119 6.72412 2.22031C6.72412 1.99943 6.89536 1.82031 7.10934 1.82031H7.11314C7.32712 1.82031 7.50023 1.99943 7.50023 2.22031C7.50023 2.44119 7.32703 2.62031 7.11309 2.62031Z" fill="white"/>
<path d="M7.11309 5.82148C6.89911 5.82148 6.72412 5.64236 6.72412 5.42148C6.72412 5.20061 6.89536 5.02148 7.10934 5.02148H7.11314C7.32712 5.02148 7.50023 5.20061 7.50023 5.42148C7.50023 5.64236 7.32703 5.82148 7.11309 5.82148Z" fill="white"/>
<path d="M7.11309 9.02071C6.89911 9.02071 6.72412 8.84159 6.72412 8.62071C6.72412 8.39983 6.89536 8.2207 7.10934 8.2207H7.11314C7.32712 8.2207 7.50023 8.39983 7.50023 8.62071C7.50023 8.84159 7.32703 9.02071 7.11309 9.02071Z" fill="white"/>
<path d="M7.11309 4.22187C6.89911 4.22187 6.72412 4.04275 6.72412 3.82187C6.72412 3.601 6.89536 3.42188 7.10934 3.42188H7.11314C7.32712 3.42188 7.50023 3.601 7.50023 3.82187C7.50018 4.04275 7.32703 4.22187 7.11309 4.22187Z" fill="#F2F2F6"/>
<path d="M7.11309 7.42109C6.89911 7.42109 6.72412 7.24197 6.72412 7.02109C6.72412 6.80022 6.89536 6.62109 7.10934 6.62109H7.11314C7.32712 6.62109 7.50023 6.80022 7.50023 7.02109C7.50023 7.24197 7.32703 7.42109 7.11309 7.42109Z" fill="#F2F2F6"/>
<path d="M5.95147 3.42109C5.73748 3.42109 5.5625 3.24197 5.5625 3.02109C5.5625 2.80022 5.73373 2.62109 5.94772 2.62109H5.95152C6.1655 2.62109 6.33861 2.80022 6.33861 3.02109C6.33861 3.24202 6.16545 3.42109 5.95147 3.42109Z" fill="#F2F2F6"/>
<path d="M5.95147 6.62031C5.73748 6.62031 5.5625 6.44119 5.5625 6.22031C5.5625 5.99943 5.73373 5.82031 5.94772 5.82031H5.95152C6.1655 5.82031 6.33861 5.99943 6.33861 6.22031C6.33861 6.44119 6.16545 6.62031 5.95147 6.62031Z" fill="#F2F2F6"/>
<path d="M5.95147 5.0207C5.73748 5.0207 5.5625 4.84158 5.5625 4.6207C5.5625 4.39983 5.73373 4.2207 5.94772 4.2207H5.95152C6.1655 4.2207 6.33861 4.39983 6.33861 4.6207C6.33861 4.84158 6.16545 5.0207 5.95147 5.0207Z" fill="white"/>
<path d="M5.95147 8.22187C5.73748 8.22187 5.5625 8.04275 5.5625 7.82187C5.5625 7.601 5.73373 7.42188 5.94772 7.42188H5.95152C6.1655 7.42188 6.33861 7.601 6.33861 7.82187C6.33861 8.04275 6.16545 8.22187 5.95147 8.22187Z" fill="white"/>
<path d="M9.43145 2.62031C9.21747 2.62031 9.04248 2.44119 9.04248 2.22031C9.04248 1.99943 9.21371 1.82031 9.4277 1.82031H9.4315C9.64548 1.82031 9.81859 1.99943 9.81859 2.22031C9.81859 2.44119 9.64543 2.62031 9.43145 2.62031Z" fill="#F2F2F6"/>
<path d="M9.43145 5.82148C9.21747 5.82148 9.04248 5.64236 9.04248 5.42148C9.04248 5.20061 9.21371 5.02148 9.4277 5.02148H9.4315C9.64548 5.02148 9.81859 5.20061 9.81859 5.42148C9.81859 5.64236 9.64543 5.82148 9.43145 5.82148Z" fill="#F2F2F6"/>
<path d="M9.43145 9.02071C9.21747 9.02071 9.04248 8.84159 9.04248 8.62071C9.04248 8.39983 9.21371 8.2207 9.4277 8.2207H9.4315C9.64548 8.2207 9.81859 8.39983 9.81859 8.62071C9.81859 8.84159 9.64543 9.02071 9.43145 9.02071Z" fill="#F2F2F6"/>
<path d="M9.43145 4.22187C9.21747 4.22187 9.04248 4.04275 9.04248 3.82187C9.04248 3.601 9.21371 3.42188 9.4277 3.42188H9.4315C9.64548 3.42188 9.81859 3.601 9.81859 3.82187C9.81854 4.04275 9.64543 4.22187 9.43145 4.22187Z" fill="white"/>
<path d="M9.43145 7.42109C9.21747 7.42109 9.04248 7.24197 9.04248 7.02109C9.04248 6.80022 9.21371 6.62109 9.4277 6.62109H9.4315C9.64548 6.62109 9.81859 6.80022 9.81859 7.02109C9.81859 7.24197 9.64543 7.42109 9.43145 7.42109Z" fill="white"/>
<path d="M8.27032 3.42109C8.05633 3.42109 7.88135 3.24197 7.88135 3.02109C7.88135 2.80022 8.05258 2.62109 8.26657 2.62109H8.27036C8.48435 2.62109 8.65746 2.80022 8.65746 3.02109C8.65741 3.24202 8.4843 3.42109 8.27032 3.42109Z" fill="white"/>
<path d="M8.27032 6.62031C8.05633 6.62031 7.88135 6.44119 7.88135 6.22031C7.88135 5.99943 8.05258 5.82031 8.26657 5.82031H8.27036C8.48435 5.82031 8.65746 5.99943 8.65746 6.22031C8.65746 6.44119 8.4843 6.62031 8.27032 6.62031Z" fill="white"/>
<path d="M8.27032 5.0207C8.05633 5.0207 7.88135 4.84158 7.88135 4.6207C7.88135 4.39983 8.05258 4.2207 8.26657 4.2207H8.27036C8.48435 4.2207 8.65746 4.39983 8.65746 4.6207C8.65746 4.84158 8.4843 5.0207 8.27032 5.0207Z" fill="#F2F2F6"/>
<path d="M8.27032 8.22187C8.05633 8.22187 7.88135 8.04275 7.88135 7.82187C7.88135 7.601 8.05258 7.42188 8.26657 7.42188H8.27036C8.48435 7.42188 8.65746 7.601 8.65746 7.82187C8.65746 8.04275 8.4843 8.22187 8.27032 8.22187Z" fill="#F2F2F6"/>
<path d="M10.5965 3.42109C10.3825 3.42109 10.2075 3.24197 10.2075 3.02109C10.2075 2.80022 10.3788 2.62109 10.5927 2.62109H10.5965C10.8105 2.62109 10.9836 2.80022 10.9836 3.02109C10.9836 3.24202 10.8105 3.42109 10.5965 3.42109Z" fill="#F2F2F6"/>
<path d="M10.5965 6.62031C10.3825 6.62031 10.2075 6.44119 10.2075 6.22031C10.2075 5.99943 10.3788 5.82031 10.5927 5.82031H10.5965C10.8105 5.82031 10.9836 5.99943 10.9836 6.22031C10.9836 6.44119 10.8105 6.62031 10.5965 6.62031Z" fill="#F2F2F6"/>
<path d="M10.5965 5.0207C10.3825 5.0207 10.2075 4.84158 10.2075 4.6207C10.2075 4.39983 10.3788 4.2207 10.5927 4.2207H10.5965C10.8105 4.2207 10.9836 4.39983 10.9836 4.6207C10.9836 4.84158 10.8105 5.0207 10.5965 5.0207Z" fill="white"/>
<path d="M10.5965 8.22187C10.3825 8.22187 10.2075 8.04275 10.2075 7.82187C10.2075 7.601 10.3788 7.42188 10.5927 7.42188H10.5965C10.8105 7.42188 10.9836 7.601 10.9836 7.82187C10.9836 8.04275 10.8105 8.22187 10.5965 8.22187Z" fill="white"/>
<path d="M1.05615 13.8907L1.86521 14.5513H24.9155V12.2656H1.68971L1.05615 13.8907Z" fill="#F2F2F6"/>
<path d="M0.915527 12.2657V14.5514H1.86521C1.75267 14.2695 1.68976 13.961 1.68976 13.6371V12.2656H0.915527L0.915527 12.2657Z" fill="#E1E1E6"/>
</g>
<defs>
<clipPath id="clip0_1568_12959">
<rect x="0.915527" y="0.837891" width="24" height="16" rx="1" fill="white"/>
</clipPath>
</defs>
</svg>
