<svg width="83" height="16" viewBox="0 0 83 16" fill="none" xmlns="http://www.w3.org/2000/svg">
<path d="M10.2652 12.3677V6.4097H4.95251V8.34727H8.31421C8.19415 9.15459 7.42876 10.5755 5.46277 10.5755C3.67686 10.5755 2.10106 9.23532 2.10106 6.6519C2.10106 3.93931 3.84195 2.76062 5.44776 2.76062C7.17363 2.76062 8.05908 3.93931 8.32922 4.95653L10.3102 4.19765C9.78496 2.43769 8.23917 0.677734 5.44776 0.677734C2.5663 0.677734 0 2.95438 0 6.6519C0 10.3494 2.44624 12.6099 5.31269 12.6099C6.9185 12.6099 7.96904 11.8349 8.44928 11.0599L8.58435 12.3677H10.2652Z" fill="#222222"/>
<path d="M15.5216 10.6562C14.5461 10.6562 13.6457 9.88118 13.6457 8.39571C13.6457 6.8941 14.5461 6.13522 15.5216 6.13522C16.4971 6.13522 17.3976 6.8941 17.3976 8.39571C17.3976 9.89733 16.4971 10.6562 15.5216 10.6562ZM15.5216 4.1815C13.3155 4.1815 11.6496 5.94146 11.6496 8.39571C11.6496 10.8338 13.3155 12.6099 15.5216 12.6099C17.7277 12.6099 19.3936 10.8338 19.3936 8.39571C19.3936 5.94146 17.7277 4.1815 15.5216 4.1815Z" fill="#222222"/>
<path d="M24.2858 10.6562C23.3103 10.6562 22.4099 9.88118 22.4099 8.39571C22.4099 6.8941 23.3103 6.13522 24.2858 6.13522C25.2613 6.13522 26.1618 6.8941 26.1618 8.39571C26.1618 9.89733 25.2613 10.6562 24.2858 10.6562ZM24.2858 4.1815C22.0797 4.1815 20.4139 5.94146 20.4139 8.39571C20.4139 10.8338 22.0797 12.6099 24.2858 12.6099C26.4919 12.6099 28.1578 10.8338 28.1578 8.39571C28.1578 5.94146 26.4919 4.1815 24.2858 4.1815Z" fill="#222222"/>
<path d="M29.2081 12.8037C29.4182 14.3214 30.7689 15.6777 32.7949 15.6777C35.5713 15.6777 36.6669 13.6917 36.6669 11.512V4.4237H34.7459V5.36019C34.4907 4.82736 33.8154 4.27838 32.6448 4.27838C30.6188 4.27838 29.2081 6.05448 29.2081 8.15352C29.2081 10.3817 30.6788 12.0125 32.6448 12.0125C33.7104 12.0125 34.4007 11.512 34.7009 10.9953V11.5766C34.7009 13.1105 33.9955 13.7886 32.7349 13.7886C31.7894 13.7886 31.1441 13.1589 31.009 12.287L29.2081 12.8037ZM32.99 10.1718C31.9545 10.1718 31.2191 9.39679 31.2191 8.15352C31.2191 6.92639 31.9995 6.15136 32.99 6.15136C33.9505 6.15136 34.7309 6.92639 34.7309 8.15352C34.7309 9.38064 34.0105 10.1718 32.99 10.1718Z" fill="#222222"/>
<path d="M40.6841 12.3677V0.677734H38.6881V12.3677H40.6841Z" fill="#222222"/>
<path d="M44.2768 7.49151C44.3218 6.76493 44.8921 5.92531 45.9276 5.92531C47.0682 5.92531 47.5484 6.70034 47.5784 7.49151H44.2768ZM47.7735 9.55825C47.5334 10.2687 47.0232 10.7692 46.0927 10.7692C45.1022 10.7692 44.2768 10.0104 44.2317 8.96083H49.5144C49.5144 8.92854 49.5444 8.60561 49.5444 8.29883C49.5444 5.7477 48.1787 4.1815 45.8976 4.1815C44.0066 4.1815 42.2657 5.82843 42.2657 8.36342C42.2657 11.0437 44.0516 12.6099 46.0777 12.6099C47.8936 12.6099 49.0642 11.4635 49.4394 10.0911L47.7735 9.55825Z" fill="#222222"/>
<path d="M57.0603 6.13522V2.8575H58.6961C59.7317 2.8575 60.362 3.48721 60.362 4.50443C60.362 5.48936 59.7317 6.13522 58.6961 6.13522H57.0603ZM58.9513 8.05664C61.0523 8.05664 62.448 6.57117 62.448 4.48828C62.448 2.42154 61.0523 0.919931 58.9513 0.919931H54.9743V12.3677H57.0453V8.05664H58.9513Z" fill="#222222"/>
<path d="M65.8189 12.3677V0.677734H63.8229V12.3677H65.8189Z" fill="#222222"/>
<path d="M67.4616 10.2041C67.4616 11.4474 68.4221 12.5938 69.9979 12.5938C71.0935 12.5938 71.7988 12.0448 72.174 11.4151C72.174 11.7219 72.204 12.1578 72.2491 12.3677H74.08C74.035 12.0932 73.9899 11.5281 73.9899 11.1083V7.20088C73.9899 5.60239 73.1195 4.1815 70.7783 4.1815C68.7973 4.1815 67.7318 5.55395 67.6117 6.79722L69.3826 7.20088C69.4426 6.50658 69.9229 5.90917 70.7933 5.90917C71.6337 5.90917 72.0389 6.37741 72.0389 6.94253C72.0389 7.21702 71.9039 7.44307 71.4837 7.50766L69.6677 7.7983C68.4371 7.99205 67.4616 8.78323 67.4616 10.2041ZM70.4181 10.9953C69.7728 10.9953 69.4576 10.5432 69.4576 10.0749C69.4576 9.46137 69.8628 9.15459 70.3731 9.07386L72.0389 8.79937V9.15459C72.0389 10.5593 71.2586 10.9953 70.4181 10.9953Z" fill="#222222"/>
<path d="M78.3627 15.5001L83 4.4237H80.8689L79.053 9.07386L77.087 4.4237H74.8509L77.9875 11.3666L76.2466 15.5001H78.3627Z" fill="#222222"/>
</svg>
