<svg width="4" height="11" viewBox="0 0 4 11" fill="none" xmlns="http://www.w3.org/2000/svg">
<path d="M2.47307 0.267578V1.68681H1.06062V0.267578H2.47307ZM0.283128 9.78261C0.48074 9.72707 0.620041 9.67771 0.697791 9.63451C0.782019 9.58515 0.856529 9.52344 0.91808 9.4494C0.976393 9.36918 1.02499 9.24885 1.06062 9.0915C1.09302 8.92798 1.11245 8.6719 1.11245 8.32635V5.12999C1.11245 4.81838 1.10273 4.56847 1.08654 4.37718C1.07682 4.18898 1.04118 4.0378 0.982871 3.92056C0.92132 3.8064 0.827373 3.7231 0.697791 3.67374C0.574687 3.6182 0.399752 3.56884 0.166504 3.52564V3.13073L1.9677 3.06902H2.43419V8.31401C2.43419 8.73361 2.45039 9.02671 2.48602 9.19023C2.52814 9.34758 2.60589 9.47099 2.71927 9.56047C2.83914 9.64377 3.03027 9.71782 3.28943 9.78261V10.1405H0.283128V9.78261Z" fill="white"/>
</svg>
