<svg width="8" height="8" viewBox="0 0 8 8" fill="none" xmlns="http://www.w3.org/2000/svg">
<path d="M3.64246 7.26246C2.57017 7.26246 1.7538 6.96319 1.19336 6.36155C0.629676 5.76301 0.351074 4.87753 0.351074 3.70821C0.351074 2.90295 0.496854 2.2211 0.791653 1.65957C1.09293 1.10114 1.49788 0.684623 2.00973 0.413117C2.51833 0.141612 3.10145 0.00585938 3.75908 0.00585938C4.85405 0.00585938 5.68338 0.311303 6.24706 0.919105C6.81722 1.52999 7.1023 2.40004 7.1023 3.53543C7.1023 4.34995 6.95976 5.03797 6.67468 5.5964C6.39608 6.14867 6.00085 6.56518 5.48253 6.84286C4.9642 7.12362 4.34868 7.26246 3.64246 7.26246ZM1.81535 3.54777C1.81535 4.55357 1.97733 5.3249 2.30776 5.86791C2.64468 6.41092 3.12737 6.68242 3.75908 6.68242C4.10248 6.68242 4.39404 6.60529 4.62728 6.44794C4.86701 6.28442 5.06138 6.07154 5.2104 5.8062C5.3659 5.5347 5.47605 5.22308 5.54732 4.86827C5.61535 4.51655 5.65098 4.14632 5.65098 3.75757C5.65098 3.03561 5.56351 2.43707 5.39182 1.9681C5.2266 1.49297 5.00307 1.14125 4.71799 0.919105C4.43291 0.696964 4.10248 0.585894 3.73317 0.585894C3.11117 0.585894 2.63496 0.845058 2.30776 1.36339C1.97733 1.87554 1.81535 2.60367 1.81535 3.54777Z" fill="white"/>
</svg>
