<svg width="4" height="11" viewBox="0 0 4 11" fill="none" xmlns="http://www.w3.org/2000/svg">
<path d="M2.70305 0.267578V1.68681H1.2906V0.267578H2.70305ZM0.513108 9.78261C0.710721 9.72707 0.850022 9.67771 0.927771 9.63451C1.012 9.58515 1.08651 9.52344 1.14806 9.4494C1.20637 9.36918 1.25497 9.24885 1.2906 9.0915C1.323 8.92798 1.34243 8.6719 1.34243 8.32635V5.12999C1.34243 4.81838 1.33272 4.56847 1.31652 4.37718C1.3068 4.18898 1.27116 4.0378 1.21285 3.92056C1.1513 3.8064 1.05735 3.7231 0.927771 3.67374C0.804668 3.6182 0.629732 3.56884 0.396484 3.52564V3.13073L2.19768 3.06902H2.66417V8.31401C2.66417 8.73361 2.68037 9.02671 2.716 9.19023C2.75812 9.34758 2.83587 9.47099 2.94925 9.56047C3.06912 9.64377 3.26025 9.71782 3.51941 9.78261V10.1405H0.513108V9.78261Z" fill="white"/>
</svg>
