<svg width="8" height="11" viewBox="0 0 8 11" fill="none" xmlns="http://www.w3.org/2000/svg">
<path d="M2.79732 8.28774C2.79732 8.57776 2.81352 8.80607 2.84915 8.97884C2.88155 9.14545 2.93338 9.2812 3.00465 9.3861C3.07268 9.48483 3.16339 9.56505 3.27678 9.62058C3.39664 9.66995 3.58777 9.72548 3.84694 9.78102V10.1389H0.464844V9.78102C0.78232 9.7008 0.99613 9.61441 1.0998 9.52185C1.20994 9.42313 1.28121 9.28737 1.30713 9.1146C1.33952 8.93565 1.35896 8.66723 1.35896 8.31242V1.96907C1.35896 1.63277 1.346 1.38903 1.32009 1.24094C1.29417 1.08668 1.24882 0.96635 1.1905 0.883047C1.13867 0.793574 1.06092 0.722612 0.957256 0.673248C0.860069 0.617712 0.698092 0.559092 0.464844 0.500472V0.142578H4.27456C5.47319 0.142578 6.36731 0.361634 6.95691 0.796659C7.54327 1.23477 7.83807 1.89502 7.83807 2.78358C7.83807 3.29574 7.74736 3.75545 7.56594 4.16579C7.38453 4.56997 7.11889 4.90318 6.77549 5.16543C6.43858 5.42151 6.03687 5.60662 5.57038 5.72078C5.11036 5.82876 4.62767 5.88121 4.11906 5.88121C3.55538 5.88121 3.1148 5.87504 2.79732 5.85653V8.28774ZM2.79732 5.23947H3.69144C4.26808 5.23947 4.74753 5.1716 5.1298 5.02967C5.50883 4.88158 5.79715 4.64401 5.998 4.31389C6.19561 3.97759 6.29604 3.53331 6.29604 2.98104C6.29604 2.56144 6.23449 2.21281 6.11462 1.93205C6.00124 1.65437 5.8425 1.42606 5.63517 1.25328C5.42784 1.08051 5.17515 0.963264 4.88359 0.895388C4.59851 0.821342 4.28752 0.784318 3.9506 0.784318C3.43875 0.784318 3.05649 0.793574 2.79732 0.809V5.23947Z" fill="white"/>
</svg>
