<svg width="12" height="8" viewBox="0 0 12 8" fill="none" xmlns="http://www.w3.org/2000/svg">
<path d="M2.24902 1.26403L2.35269 1.28872C2.66368 1.00179 2.91637 0.78273 3.11722 0.634636C3.31483 0.480371 3.50597 0.356959 3.68738 0.264401C3.8688 0.174928 4.04049 0.113222 4.20571 0.0792839C4.36769 0.0391753 4.5329 0.0175781 4.69812 0.0175781C5.21645 0.0175781 5.63435 0.128649 5.95507 0.350789C6.28226 0.57293 6.50579 0.918482 6.6289 1.38745C7.00792 1.01721 7.31892 0.745706 7.56189 0.57293C7.80161 0.393984 8.04458 0.25823 8.28755 0.165672C8.53699 0.0669427 8.80588 0.0175781 9.09096 0.0175781C9.43435 0.0175781 9.73239 0.0669427 9.98507 0.165672C10.2345 0.25823 10.4451 0.400154 10.62 0.597612C10.7917 0.795071 10.9181 1.04806 10.9958 1.35042C11.0736 1.64661 11.1124 2.0477 11.1124 2.54751V5.31193C11.1124 5.68217 11.1254 5.93825 11.1513 6.07709C11.1772 6.21901 11.2096 6.33008 11.255 6.4103C11.3068 6.48434 11.3781 6.55222 11.4753 6.60775C11.5789 6.66638 11.7409 6.725 11.9677 6.78053V7.13842H8.94842V6.78053C9.14603 6.725 9.28857 6.67563 9.37604 6.63244C9.46027 6.58307 9.53477 6.52137 9.59633 6.44732C9.65464 6.3671 9.70323 6.24369 9.73887 6.07709C9.77126 5.91357 9.7907 5.66674 9.7907 5.33662V3.4114C9.7907 3.00105 9.77774 2.65859 9.75183 2.38708C9.72591 2.11557 9.68703 1.90269 9.6352 1.74534C9.58985 1.58182 9.53477 1.45532 9.46674 1.36276C9.39547 1.26403 9.31773 1.18382 9.2335 1.11594C9.14603 1.05115 9.04236 0.9987 8.9225 0.955506C8.80912 0.915397 8.65362 0.8938 8.456 0.8938C8.24867 0.8938 8.0543 0.936995 7.87288 1.01721C7.69795 1.09126 7.51005 1.22393 7.30272 1.41213C7.09539 1.59416 6.94313 1.77928 6.84919 1.96748C6.76172 2.15877 6.7196 2.38091 6.7196 2.6339V5.31193C6.7196 5.68217 6.73256 5.93825 6.75848 6.07709C6.78439 6.21901 6.81679 6.33008 6.86214 6.4103C6.91398 6.48434 6.98525 6.55222 7.08243 6.60775C7.1861 6.66638 7.34808 6.725 7.57485 6.78053V7.13842H4.55558V6.78053C4.75319 6.725 4.89573 6.67563 4.9832 6.63244C5.06743 6.58307 5.14194 6.52137 5.20349 6.44732C5.2618 6.3671 5.3104 6.24369 5.34603 6.07709C5.37843 5.91357 5.39787 5.66674 5.39787 5.33662V3.4114C5.39787 2.98563 5.38491 2.6339 5.35899 2.3624C5.33307 2.08472 5.28772 1.86258 5.22941 1.69598C5.17758 1.53246 5.10631 1.39979 5.02208 1.30106C4.94433 1.19616 4.8601 1.11594 4.77587 1.06658C4.6884 1.01104 4.58474 0.967847 4.46487 0.943165C4.34177 0.912312 4.20895 0.8938 4.06317 0.8938C3.85584 0.8938 3.65499 0.94008 3.46709 1.02955C3.28568 1.12211 3.09454 1.25169 2.89693 1.42447C2.7058 1.59725 2.56326 1.77928 2.46931 1.96748C2.37212 2.14951 2.32677 2.34697 2.32677 2.55986V5.31193C2.32677 5.58344 2.33001 5.79324 2.33973 5.94133C2.35593 6.08943 2.38184 6.20667 2.41748 6.28688C2.44987 6.37019 2.49523 6.44115 2.54706 6.49668C2.59889 6.54605 2.67016 6.59541 2.76735 6.64478C2.8613 6.68797 3.00384 6.73117 3.19497 6.78053V7.13842H0.175706V6.78053C0.373318 6.725 0.512619 6.67563 0.590369 6.63244C0.674597 6.58307 0.749107 6.52137 0.810658 6.44732C0.878689 6.3671 0.927282 6.24678 0.953199 6.08943C0.985594 5.92591 1.00503 5.66983 1.00503 5.32427V2.12792C1.00503 1.8163 0.995313 1.56639 0.979115 1.37511C0.969396 1.1869 0.933761 1.03572 0.875449 0.918482C0.813898 0.804327 0.719951 0.721024 0.590369 0.671659C0.467265 0.616125 0.29233 0.56676 0.059082 0.523565V0.128649L1.86027 0.0669427H2.32677L2.24902 1.26403Z" fill="white"/>
</svg>
