<svg width="6" height="10" viewBox="0 0 6 10" fill="none" xmlns="http://www.w3.org/2000/svg">
<path d="M0.732422 2.49821C0.991586 2.45811 1.19892 2.39332 1.35442 2.30076C1.50991 2.20203 1.62978 2.07553 1.71725 1.91818C1.81119 1.76392 1.8857 1.56954 1.93754 1.33815C1.98937 1.10984 2.04444 0.770453 2.10599 0.326172H3.19448V2.12798H5.68246V2.86845H3.19448V6.13886C3.19448 6.60782 3.21068 6.98422 3.24632 7.2619C3.28843 7.54266 3.36618 7.7648 3.47956 7.92832C3.59943 8.08567 3.72901 8.19983 3.86831 8.27387C4.01409 8.34175 4.19874 8.3726 4.42551 8.3726C4.63284 8.3726 4.82074 8.3325 4.99567 8.24919C5.17709 8.16898 5.35202 8.05173 5.52696 7.90364L5.87683 8.29856C5.514 8.63794 5.16737 8.88476 4.84018 9.03903C4.51946 9.18712 4.18255 9.26117 3.82943 9.26117C3.17181 9.26117 2.67939 9.07605 2.3522 8.70582C2.03148 8.32941 1.87274 7.74012 1.87274 6.94103V2.86845H0.732422V2.49821Z" fill="white"/>
</svg>
