<svg width="13" height="15" viewBox="0 0 13 15" fill="none" xmlns="http://www.w3.org/2000/svg">
<path d="M0.702637 0.261719H3.57936V7.61705C3.57936 8.78637 3.61823 9.54227 3.69598 9.88782C3.81585 10.4308 4.10417 10.8751 4.56418 11.2207C5.03068 11.5662 5.65915 11.739 6.45608 11.739C7.28541 11.739 7.90092 11.5786 8.30911 11.2577C8.72377 10.9306 8.97322 10.5357 9.06068 10.0729C9.14491 9.61323 9.19027 8.84808 9.19027 7.77748V0.261719H12.0799V7.39491C12.0799 9.02394 11.9957 10.1778 11.8337 10.8504C11.6782 11.5261 11.3867 12.0969 10.9655 12.5658C10.5509 13.0286 9.99368 13.3927 9.29393 13.6642C8.60067 13.9357 7.69359 14.0715 6.57271 14.0715C5.19914 14.0715 4.16248 13.9234 3.46274 13.6272C2.76299 13.3248 2.20903 12.933 1.80408 12.4548C1.3959 11.9796 1.12378 11.4798 0.987717 10.9615C0.796584 10.1717 0.702637 9.02085 0.702637 7.50598V0.261719Z" fill="white"/>
</svg>
