<svg width="8" height="8" viewBox="0 0 8 8" fill="none" xmlns="http://www.w3.org/2000/svg">
<path d="M4.9512 6.09005L4.83458 6.06537C4.38428 6.50348 3.9599 6.81201 3.56467 6.99095C3.17593 7.1699 2.76126 7.26246 2.32068 7.26246C1.93194 7.26246 1.58531 7.18841 1.28403 7.04032C0.989228 6.89222 0.765699 6.69168 0.610201 6.4356C0.454702 6.17335 0.376953 5.86791 0.376953 5.52236C0.376953 4.81582 0.743022 4.26973 1.4784 3.88098C2.22026 3.48606 3.33466 3.26084 4.82162 3.20222V2.72091C4.82162 2.21184 4.76979 1.81384 4.66612 1.52382C4.56246 1.22763 4.39724 1.01475 4.17371 0.882081C3.95666 0.743244 3.66186 0.672282 3.29255 0.672282C2.89409 0.672282 2.57013 0.771011 2.32068 0.968469C2.07772 1.16593 1.8963 1.46829 1.77644 1.86937H0.765699V0.919105C1.25811 0.672282 1.6663 0.493335 1.99673 0.376094C2.32392 0.261939 2.65112 0.172465 2.98155 0.104589C3.30875 0.0397977 3.64566 0.00585938 3.99229 0.00585938C4.49119 0.00585938 4.89937 0.0860765 5.21037 0.240341C5.52136 0.397691 5.74813 0.635258 5.89715 0.956128C6.05265 1.27083 6.1304 1.74596 6.1304 2.3877V4.92998C6.1304 5.29404 6.1304 5.54704 6.1304 5.69513C6.13688 5.84323 6.15632 5.98515 6.18223 6.11473C6.20815 6.23814 6.24702 6.34304 6.29886 6.42326C6.35069 6.49731 6.42196 6.56518 6.51915 6.62072C6.62281 6.67008 6.79127 6.72562 7.02452 6.78115V7.13905H4.91233L4.9512 6.09005ZM4.82162 3.79459C3.77524 3.80385 2.99451 3.93652 2.47618 4.18951C1.95785 4.44559 1.69869 4.83125 1.69869 5.34958C1.69869 5.62108 1.757 5.84014 1.88011 6.00366C1.99997 6.17027 2.14575 6.28134 2.32068 6.33687C2.5021 6.39549 2.71591 6.42326 2.9686 6.42326C3.31199 6.42326 3.62946 6.34613 3.91455 6.18878C4.19963 6.02526 4.41992 5.81854 4.57541 5.57172C4.73739 5.3249 4.82162 5.07807 4.82162 4.83125V3.79459Z" fill="white"/>
</svg>
