<svg width="8" height="8" viewBox="0 0 8 8" fill="none" xmlns="http://www.w3.org/2000/svg">
<path d="M4.0033 7.26246C2.93101 7.26246 2.11464 6.96319 1.5542 6.36155C0.990516 5.76301 0.711914 4.87753 0.711914 3.70821C0.711914 2.90295 0.857694 2.2211 1.15249 1.65957C1.45377 1.10114 1.85872 0.684623 2.37057 0.413117C2.87917 0.141612 3.46229 0.00585938 4.11992 0.00585938C5.21489 0.00585938 6.04422 0.311303 6.6079 0.919105C7.17806 1.52999 7.46314 2.40004 7.46314 3.53543C7.46314 4.34995 7.3206 5.03797 7.03552 5.5964C6.75692 6.14867 6.36169 6.56518 5.84337 6.84286C5.32504 7.12362 4.70952 7.26246 4.0033 7.26246ZM2.17619 3.54777C2.17619 4.55357 2.33817 5.3249 2.6686 5.86791C3.00552 6.41092 3.48821 6.68242 4.11992 6.68242C4.46332 6.68242 4.75488 6.60529 4.98812 6.44794C5.22785 6.28442 5.42222 6.07154 5.57124 5.8062C5.72674 5.5347 5.83689 5.22308 5.90816 4.86827C5.97619 4.51655 6.01182 4.14632 6.01182 3.75757C6.01182 3.03561 5.92435 2.43707 5.75266 1.9681C5.58744 1.49297 5.36391 1.14125 5.07883 0.919105C4.79375 0.696964 4.46332 0.585894 4.09401 0.585894C3.47201 0.585894 2.9958 0.845058 2.6686 1.36339C2.33817 1.87554 2.17619 2.60367 2.17619 3.54777Z" fill="white"/>
</svg>
