<svg width="6" height="8" viewBox="0 0 6 8" fill="none" xmlns="http://www.w3.org/2000/svg">
<path d="M5.7338 0.302047V1.83235H4.76194C4.66475 1.52074 4.55461 1.27391 4.42502 1.09188C4.30192 0.903679 4.15614 0.771011 3.98444 0.696964C3.81923 0.622917 3.60866 0.585894 3.34949 0.585894C2.99314 0.585894 2.6789 0.696964 2.40354 0.919105C2.12494 1.14125 1.90465 1.48063 1.74267 1.93108C1.57746 2.37536 1.49647 2.92454 1.49647 3.57245C1.49647 3.98588 1.52562 4.36229 1.58717 4.70784C1.65521 5.05339 1.76211 5.34958 1.91113 5.5964C2.05691 5.83705 2.25128 6.02526 2.49425 6.1641C2.74369 6.30602 3.05145 6.3739 3.41428 6.3739C3.76739 6.3739 4.09459 6.3091 4.39911 6.17644C4.7101 6.04685 5.02758 5.81237 5.35801 5.47299L5.79859 5.9543C5.52971 6.23506 5.29646 6.44794 5.09885 6.59604C4.898 6.74413 4.68419 6.86754 4.45094 6.96627C4.22417 7.065 4.00064 7.13905 3.77711 7.18841C3.56006 7.23778 3.3171 7.26246 3.05145 7.26246C2.08283 7.26246 1.34097 6.95393 0.82264 6.33687C0.310791 5.71981 0.0581055 4.83742 0.0581055 3.68352C0.0581055 2.96157 0.200646 2.31983 0.485726 1.7583C0.777287 1.19987 1.18547 0.767926 1.7038 0.462482C2.22213 0.160123 2.8182 0.00585938 3.49203 0.00585938C3.91317 0.00585938 4.30192 0.0305417 4.65827 0.0799063C5.01138 0.129271 5.37097 0.203318 5.7338 0.302047Z" fill="white"/>
</svg>
