<svg width="15" height="19" viewBox="0 0 15 19" fill="none" xmlns="http://www.w3.org/2000/svg">
<path d="M0.958008 11.127C0.958008 10.0102 1.10379 9.03522 1.39859 8.20219C1.69015 7.36299 2.16636 6.60401 2.82399 5.91908C3.47838 5.23723 4.217 4.75592 5.03984 4.47516C5.86917 4.18823 6.80864 4.04322 7.86474 4.04322C9.96397 4.04322 11.6388 4.66028 12.8925 5.89439C14.1527 7.12851 14.7844 8.85627 14.7844 11.0777C14.7844 13.259 14.1559 14.9713 12.9055 16.2116C11.6518 17.455 9.9834 18.0751 7.90361 18.0751C5.77846 18.0751 4.08742 17.4581 2.83695 16.2239C1.58324 14.9898 0.958008 13.2929 0.958008 11.127ZM3.92544 11.053C3.92544 12.5833 4.30123 13.7495 5.0528 14.5455C5.80438 15.3446 6.75033 15.7426 7.89065 15.7426C9.03745 15.7426 9.97692 15.3477 10.7026 14.5579C11.4347 13.7681 11.804 12.5895 11.804 11.016C11.804 9.46099 11.4444 8.30092 10.7285 7.53577C10.0093 6.77062 9.06337 6.38804 7.89065 6.38804C6.70498 6.38804 5.74607 6.77679 5.01393 7.54811C4.28827 8.32252 3.92544 9.49184 3.92544 11.053ZM7.85178 3.12998L6.77625 3.80874H4.85843L6.97062 2.59931H8.70702L10.8322 3.80874H8.90139L7.85178 3.12998ZM6.67258 2.30312L7.85178 0.785156H10.897L8.40898 2.30312H6.67258Z" fill="white"/>
</svg>
