<svg width="11" height="11" viewBox="0 0 11 11" fill="none" xmlns="http://www.w3.org/2000/svg">
<path d="M6.86842 10.1373V9.77943C7.11786 9.73007 7.30252 9.67762 7.42562 9.619C7.5552 9.56346 7.64915 9.48016 7.7107 9.37217C7.77873 9.26727 7.81437 9.12535 7.81437 8.95257C7.81437 8.78905 7.79169 8.61319 7.74958 8.4219C7.70422 8.22445 7.64591 8.00848 7.56816 7.76782L7.28308 6.81755H3.70661L3.43449 7.53334C3.30491 7.89741 3.21744 8.172 3.17533 8.3602C3.12997 8.54223 3.11054 8.71192 3.11054 8.86619C3.11054 9.1562 3.18829 9.36909 3.34378 9.50793C3.50576 9.64985 3.74873 9.73932 4.06944 9.77943V10.1373H0.791016V9.77943C1.0761 9.73932 1.3223 9.58197 1.52963 9.31047C1.74344 9.03279 1.95078 8.63787 2.15163 8.12572L5.36527 0.0175781H6.58334L9.2009 8.18742C9.32076 8.56691 9.42767 8.86001 9.52485 9.06364C9.6188 9.2611 9.73218 9.41845 9.86177 9.53261C9.99783 9.64059 10.1792 9.7239 10.406 9.77943V10.1373H6.86842ZM3.91395 6.17581H7.12758L5.6633 1.44915L3.91395 6.17581Z" fill="white"/>
</svg>
