<svg width="7" height="8" viewBox="0 0 7 8" fill="none" xmlns="http://www.w3.org/2000/svg">
<path d="M3.15576 1.35105L3.25942 1.37573C3.5445 1.04869 3.80691 0.789523 4.04988 0.598235C4.2896 0.410032 4.54877 0.265024 4.82737 0.166294C5.10273 0.0613942 5.41697 0.00585938 5.77332 0.00585938C6.0746 0.00585938 6.34672 0.0243715 6.58968 0.055224V1.73362H5.72148C5.5919 1.47137 5.45584 1.28317 5.31978 1.16593C5.18048 1.04252 4.98935 0.980811 4.74962 0.980811C4.5682 0.980811 4.38679 1.03635 4.20537 1.14125C4.02396 1.23997 3.84578 1.38807 3.67409 1.58553C3.50887 1.78299 3.39225 1.9681 3.32421 2.14088C3.26266 2.30748 3.23351 2.50803 3.23351 2.7456V5.31256C3.23351 5.75684 3.25942 6.06537 3.31126 6.23814C3.36957 6.40475 3.46676 6.52816 3.59634 6.60838C3.72592 6.68242 3.92029 6.74104 4.17946 6.78115V7.13905H1.08244V6.78115C1.28006 6.72562 1.41936 6.67625 1.49711 6.63306C1.58134 6.58369 1.65584 6.52199 1.7174 6.44794C1.78543 6.36772 1.83402 6.2474 1.85994 6.09005C1.89233 5.92653 1.91177 5.67045 1.91177 5.3249V2.12854C1.91177 1.81692 1.90205 1.56702 1.88585 1.37573C1.87613 1.18753 1.8405 1.03635 1.78219 0.919105C1.72064 0.804949 1.62669 0.721646 1.49711 0.672282C1.374 0.616747 1.19907 0.567382 0.96582 0.524188V0.141612L2.76701 0.0675652H3.23351L3.15576 1.35105Z" fill="white"/>
</svg>
