<svg width="7" height="8" viewBox="0 0 7 8" fill="none" xmlns="http://www.w3.org/2000/svg">
<path d="M6.74026 5.89259C6.40983 6.22272 6.10855 6.48188 5.83319 6.67008C5.55459 6.85212 5.25331 6.99712 4.92611 7.10202C4.59568 7.20692 4.23933 7.26246 3.85058 7.26246C2.78801 7.26246 1.98784 6.96319 1.45331 6.36155C0.915545 5.75375 0.649902 4.8621 0.649902 3.68352C0.649902 2.95231 0.782724 2.31057 1.05161 1.7583C1.32697 1.19987 1.71895 0.767926 2.2308 0.462482C2.73941 0.160123 3.32253 0.00585938 3.98016 0.00585938C4.49849 0.00585938 4.93907 0.0860765 5.3019 0.240341C5.67121 0.397691 5.96601 0.610576 6.18306 0.882081C6.39687 1.15359 6.56533 1.49914 6.68843 1.91874C6.80829 2.33217 6.87632 2.86592 6.89576 3.52309H2.04939V3.65884C2.04939 4.23579 2.11418 4.72018 2.24376 5.1151C2.37982 5.51001 2.60659 5.81854 2.91759 6.04068C3.22859 6.26283 3.63353 6.3739 4.13566 6.3739C4.55032 6.3739 4.92611 6.29985 5.26303 6.15175C5.59994 5.99749 5.93685 5.75067 6.27377 5.41128L6.74026 5.89259ZM5.44444 2.91837C5.41852 2.39387 5.34725 1.96502 5.23711 1.63489C5.13344 1.2986 4.97147 1.03943 4.75766 0.857399C4.54061 0.678452 4.25876 0.585894 3.91537 0.585894C3.37761 0.585894 2.94999 0.789523 2.63251 1.19061C2.32151 1.59478 2.1401 2.17173 2.08826 2.91837H5.44444Z" fill="white"/>
</svg>
