<svg width="6" height="10" viewBox="0 0 6 10" fill="none" xmlns="http://www.w3.org/2000/svg">
<path d="M0.48584 2.49821C0.745004 2.45811 0.952335 2.39332 1.10783 2.30076C1.26333 2.20203 1.3832 2.07553 1.47066 1.91818C1.56461 1.76392 1.63912 1.56954 1.69095 1.33815C1.74279 1.10984 1.79786 0.770453 1.85941 0.326172H2.9479V2.12798H5.43588V2.86845H2.9479V6.13886C2.9479 6.60782 2.9641 6.98422 2.99973 7.2619C3.04185 7.54266 3.1196 7.7648 3.23298 7.92832C3.35284 8.08567 3.48243 8.19983 3.62173 8.27387C3.76751 8.34175 3.95216 8.3726 4.17893 8.3726C4.38626 8.3726 4.57416 8.3325 4.74909 8.24919C4.93051 8.16898 5.10544 8.05173 5.28038 7.90364L5.63025 8.29856C5.26742 8.63794 4.92079 8.88476 4.59359 9.03903C4.27288 9.18712 3.93596 9.26117 3.58285 9.26117C2.92522 9.26117 2.43281 9.07605 2.10562 8.70582C1.7849 8.32941 1.62616 7.74012 1.62616 6.94103V2.86845H0.48584V2.49821Z" fill="white"/>
</svg>
