<svg width="8" height="12" viewBox="0 0 8 12" fill="none" xmlns="http://www.w3.org/2000/svg">
<path d="M5.46641 3.17837C5.46641 2.70941 5.45993 2.38237 5.45345 2.19108C5.45345 2.00288 5.43402 1.84553 5.40162 1.72212C5.36599 1.59254 5.31739 1.48764 5.25908 1.41359C5.19753 1.33954 5.11654 1.28401 5.01288 1.24081C4.91569 1.19145 4.74075 1.14825 4.48159 1.10506V0.722484L6.33461 0.648438H6.80111V9.13915C6.80111 9.51864 6.80435 9.79015 6.81407 9.95367C6.83026 10.1203 6.8659 10.2499 6.91773 10.3486C6.96957 10.4473 7.04731 10.5306 7.15098 10.5954C7.26112 10.654 7.46198 10.7065 7.74706 10.7558V11.1384L5.91995 11.2125H5.46641L5.55712 10.0154L5.4405 9.97835C5.11978 10.3085 4.83794 10.5553 4.59821 10.7188C4.35525 10.8854 4.09932 11.015 3.83368 11.1137C3.5648 11.2125 3.27647 11.2618 2.96548 11.2618C2.12643 11.2618 1.47852 10.9595 1.02175 10.3486C0.56173 9.74078 0.334961 8.86148 0.334961 7.70758C0.334961 6.91157 0.480741 6.23281 0.77554 5.67129C1.07682 5.11285 1.47852 4.69634 1.98065 4.42483C2.48926 4.14716 3.05942 4.00523 3.69114 4.00523C4.02805 4.00523 4.33257 4.03608 4.61117 4.09162C4.89625 4.14098 5.18133 4.22429 5.46641 4.33844V3.17837ZM5.46641 6.79433C5.46641 6.41793 5.44698 6.11248 5.41458 5.88109C5.37894 5.65278 5.31739 5.4584 5.23316 5.30105C5.1457 5.14679 5.02907 5.01412 4.88329 4.90614C4.74399 4.80124 4.58849 4.72102 4.4168 4.67165C4.24186 4.62229 4.04101 4.59761 3.80776 4.59761C3.15013 4.59761 2.648 4.8506 2.30461 5.35042C1.95798 5.84406 1.78628 6.55985 1.78628 7.49778C1.78628 8.43571 1.92234 9.15149 2.20094 9.64514C2.48602 10.1326 2.91688 10.3733 3.49676 10.3733C3.72029 10.3733 3.90495 10.3578 4.05397 10.3239C4.19975 10.2838 4.34553 10.2252 4.49455 10.1511C4.64033 10.0709 4.78611 9.95984 4.93513 9.81792C5.08091 9.66982 5.18781 9.54024 5.25908 9.423C5.32711 9.30884 5.37894 9.17618 5.41458 9.02808C5.44698 8.87382 5.46641 8.67636 5.46641 8.43571V6.79433Z" fill="white"/>
</svg>
