<svg width="5" height="12" viewBox="0 0 5 12" fill="none" xmlns="http://www.w3.org/2000/svg">
<path d="M3.27655 9.31193C3.27655 9.73153 3.29599 10.0246 3.34134 10.1882C3.38346 10.3455 3.46121 10.4689 3.57459 10.5584C3.68474 10.6417 3.87587 10.7157 4.14475 10.7805V11.1384H1.08661V10.7805C1.34578 10.7157 1.52071 10.6509 1.6179 10.5831C1.72157 10.5183 1.79284 10.435 1.83819 10.3362C1.8803 10.2375 1.90946 10.111 1.9289 9.95367C1.94509 9.79015 1.95481 9.57726 1.95481 9.31193V3.17837C1.95481 2.70941 1.94833 2.38237 1.94186 2.19108C1.93214 2.00288 1.90946 1.84553 1.87706 1.72212C1.85115 1.59254 1.80579 1.48764 1.74748 1.41359C1.68593 1.33954 1.60494 1.28401 1.50128 1.24081C1.40409 1.19145 1.22267 1.14825 0.957031 1.10506V0.722484L2.82301 0.648438H3.27655V9.31193Z" fill="white"/>
</svg>
