<svg width="8" height="8" viewBox="0 0 8 8" fill="none" xmlns="http://www.w3.org/2000/svg">
<path d="M0.111816 0.126953H2.31471V3.86632C2.31471 4.43402 2.33415 4.86596 2.3795 5.16214C2.42162 5.45833 2.48965 5.68664 2.58683 5.84091C2.68078 5.989 2.81036 6.11858 2.97558 6.22348C3.14728 6.32221 3.38053 6.37158 3.67532 6.37158C3.87294 6.37158 4.05759 6.33455 4.23253 6.26051C4.41394 6.18646 4.61156 6.05996 4.82861 5.87793C5.05213 5.69899 5.21087 5.51695 5.30806 5.33492C5.40201 5.15597 5.4506 4.94617 5.4506 4.70552V1.95344C5.4506 1.67577 5.44088 1.46597 5.42468 1.32405C5.41496 1.18521 5.39229 1.07414 5.35989 0.990834C5.32426 0.901361 5.28214 0.830399 5.23031 0.781034C5.17848 0.725499 5.10397 0.676134 5.01002 0.63294C4.92255 0.583576 4.78001 0.534211 4.5824 0.484847V0.126953H6.7853V5.13746C6.7853 5.51695 6.78853 5.78846 6.79825 5.95198C6.81445 6.11858 6.85009 6.24817 6.90192 6.3469C6.95375 6.44562 7.0315 6.52893 7.13517 6.59372C7.24531 6.65234 7.43968 6.70479 7.71829 6.75415V7.13673L5.95597 7.21078H5.48947L5.52835 6.01368L5.41173 5.97666C4.98734 6.42094 4.5824 6.74798 4.19365 6.95161C3.81139 7.15524 3.42264 7.26014 3.02741 7.26014C2.56092 7.26014 2.17541 7.17375 1.87413 7.00098C1.56962 6.82203 1.34609 6.55669 1.20031 6.21114C1.05129 5.85942 0.980017 5.36577 0.980017 4.7302V1.95344C0.980017 1.5431 0.960579 1.26234 0.928184 1.11425C0.892548 0.959981 0.827757 0.83657 0.733811 0.744011C0.636624 0.654538 0.429293 0.56815 0.111816 0.484847V0.126953Z" fill="white"/>
</svg>
