<svg width="7" height="8" viewBox="0 0 7 8" fill="none" xmlns="http://www.w3.org/2000/svg">
<path d="M6.54007 5.89259C6.20963 6.22272 5.90835 6.48188 5.63299 6.67008C5.35439 6.85212 5.05311 6.99712 4.72592 7.10202C4.39548 7.20692 4.03913 7.26246 3.65039 7.26246C2.58781 7.26246 1.78764 6.96319 1.25312 6.36155C0.71535 5.75375 0.449707 4.8621 0.449707 3.68352C0.449707 2.95231 0.582529 2.31057 0.851412 1.7583C1.12677 1.19987 1.51876 0.767926 2.03061 0.462482C2.53922 0.160123 3.12234 0.00585938 3.77997 0.00585938C4.2983 0.00585938 4.73888 0.0860765 5.10171 0.240341C5.47101 0.397691 5.76581 0.610576 5.98286 0.882081C6.19667 1.15359 6.36513 1.49914 6.48823 1.91874C6.6081 2.33217 6.67613 2.86592 6.69557 3.52309H1.84919V3.65884C1.84919 4.23579 1.91399 4.72018 2.04357 5.1151C2.17963 5.51001 2.4064 5.81854 2.71739 6.04068C3.02839 6.26283 3.43334 6.3739 3.93547 6.3739C4.35013 6.3739 4.72592 6.29985 5.06283 6.15175C5.39974 5.99749 5.73666 5.75067 6.07357 5.41128L6.54007 5.89259ZM5.24425 2.91837C5.21833 2.39387 5.14706 1.96502 5.03691 1.63489C4.93325 1.2986 4.77127 1.03943 4.55746 0.857399C4.34041 0.678452 4.05857 0.585894 3.71518 0.585894C3.17741 0.585894 2.74979 0.789523 2.43231 1.19061C2.12132 1.59478 1.9399 2.17173 1.88807 2.91837H5.24425Z" fill="white"/>
</svg>
