<svg width="8" height="11" viewBox="0 0 8 11" fill="none" xmlns="http://www.w3.org/2000/svg">
<path d="M2.40377 8.28774C2.40377 8.57776 2.41996 8.80607 2.4556 8.97884C2.488 9.14545 2.53983 9.2812 2.6111 9.3861C2.67913 9.48483 2.76984 9.56505 2.88322 9.62058C3.00308 9.66995 3.19422 9.72548 3.45338 9.78102V10.1389H0.0712891V9.78102C0.388765 9.7008 0.602576 9.61441 0.706241 9.52185C0.816387 9.42313 0.887656 9.28737 0.913573 9.1146C0.945969 8.93565 0.965406 8.66723 0.965406 8.31242V1.96907C0.965406 1.63277 0.952447 1.38903 0.926531 1.24094C0.900615 1.08668 0.85526 0.96635 0.796949 0.883047C0.745116 0.793574 0.667367 0.722612 0.563701 0.673248C0.466514 0.617712 0.304537 0.559092 0.0712891 0.500472V0.142578H3.881C5.07964 0.142578 5.97375 0.361634 6.56335 0.796659C7.14971 1.23477 7.44451 1.89502 7.44451 2.78358C7.44451 3.29574 7.3538 3.75545 7.17239 4.16579C6.99097 4.56997 6.72533 4.90318 6.38194 5.16543C6.04502 5.42151 5.64332 5.60662 5.17682 5.72078C4.71681 5.82876 4.23411 5.88121 3.7255 5.88121C3.16182 5.88121 2.72124 5.87504 2.40377 5.85653V8.28774ZM2.40377 5.23947H3.29788C3.87452 5.23947 4.35398 5.1716 4.73625 5.02967C5.11527 4.88158 5.40359 4.64401 5.60445 4.31389C5.80206 3.97759 5.90248 3.53331 5.90248 2.98104C5.90248 2.56144 5.84093 2.21281 5.72107 1.93205C5.60769 1.65437 5.44895 1.42606 5.24162 1.25328C5.03428 1.08051 4.7816 0.963264 4.49004 0.895388C4.20496 0.821342 3.89396 0.784318 3.55705 0.784318C3.0452 0.784318 2.66293 0.793574 2.40377 0.809V5.23947Z" fill="white"/>
</svg>
