<svg width="10" height="11" viewBox="0 0 10 11" fill="none" xmlns="http://www.w3.org/2000/svg">
<path d="M6.07594 10.1373V9.77943C6.32538 9.73007 6.51004 9.67762 6.63314 9.619C6.76272 9.56346 6.85667 9.48016 6.91822 9.37217C6.98625 9.26727 7.02189 9.12535 7.02189 8.95257C7.02189 8.78905 6.99921 8.61319 6.9571 8.4219C6.91174 8.22445 6.85343 8.00848 6.77568 7.76782L6.4906 6.81755H2.91413L2.64201 7.53334C2.51243 7.89741 2.42496 8.172 2.38285 8.3602C2.33749 8.54223 2.31806 8.71192 2.31806 8.86619C2.31806 9.1562 2.3958 9.36909 2.5513 9.50793C2.71328 9.64985 2.95625 9.73932 3.27696 9.77943V10.1373H-0.00146484V9.77943C0.283616 9.73932 0.529822 9.58197 0.737153 9.31047C0.950964 9.03279 1.1583 8.63787 1.35915 8.12572L4.57278 0.0175781H5.79086L8.40842 8.18742C8.52828 8.56691 8.63519 8.86001 8.73237 9.06364C8.82632 9.2611 8.9397 9.41845 9.06929 9.53261C9.20535 9.64059 9.38676 9.7239 9.61353 9.77943V10.1373H6.07594ZM3.12146 6.17581H6.3351L4.87082 1.44915L3.12146 6.17581Z" fill="white"/>
</svg>
