<svg width="13" height="8" viewBox="0 0 13 8" fill="none" xmlns="http://www.w3.org/2000/svg">
<path d="M6.58792 1.65726L4.56644 7.17375H3.50386L1.65084 1.7313C1.53746 1.38575 1.43703 1.1451 1.3528 1.00318C1.27505 0.855081 1.18758 0.744011 1.09364 0.669964C1.00617 0.595917 0.863628 0.534211 0.666016 0.484847V0.126953H3.7112V0.484847C3.40668 0.552723 3.20583 0.63294 3.10216 0.73167C2.99849 0.824228 2.94666 0.963067 2.94666 1.15127C2.94666 1.28394 2.95962 1.42277 2.98554 1.57087C3.01793 1.71279 3.06652 1.87631 3.12808 2.06451L4.33319 5.80388L6.3158 0.126953H7.40429L9.0759 5.80388L10.4365 2.22495C10.5045 2.03675 10.5596 1.86089 10.605 1.69428C10.6568 1.5215 10.6827 1.36107 10.6827 1.21297C10.6827 1.00935 10.6212 0.851996 10.5013 0.744011C10.3879 0.629855 10.1935 0.543467 9.91818 0.484847V0.126953H12.6005V0.484847C12.4612 0.52804 12.3543 0.56815 12.2766 0.608258C12.2053 0.642197 12.1373 0.694646 12.0692 0.768693C11.998 0.83657 11.9202 0.941469 11.836 1.08956C11.7485 1.23766 11.6416 1.46905 11.512 1.78067L9.29618 7.17375H8.25953L6.58792 1.65726Z" fill="white"/>
</svg>
