<svg width="8" height="8" viewBox="0 0 8 8" fill="none" xmlns="http://www.w3.org/2000/svg">
<path d="M4.17957 7.26246C3.10728 7.26246 2.29091 6.96319 1.73047 6.36155C1.16679 5.76301 0.888184 4.87753 0.888184 3.70821C0.888184 2.90295 1.03396 2.2211 1.32876 1.65957C1.63004 1.10114 2.03498 0.684623 2.54683 0.413117C3.05544 0.141612 3.63856 0.00585938 4.29619 0.00585938C5.39116 0.00585938 6.22049 0.311303 6.78417 0.919105C7.35433 1.52999 7.63941 2.40004 7.63941 3.53543C7.63941 4.34995 7.49687 5.03797 7.21179 5.5964C6.93319 6.14867 6.53796 6.56518 6.01964 6.84286C5.50131 7.12362 4.88579 7.26246 4.17957 7.26246ZM2.35246 3.54777C2.35246 4.55357 2.51444 5.3249 2.84487 5.86791C3.18179 6.41092 3.66448 6.68242 4.29619 6.68242C4.63959 6.68242 4.93115 6.60529 5.16439 6.44794C5.40412 6.28442 5.59849 6.07154 5.74751 5.8062C5.90301 5.5347 6.01316 5.22308 6.08443 4.86827C6.15246 4.51655 6.18809 4.14632 6.18809 3.75757C6.18809 3.03561 6.10062 2.43707 5.92893 1.9681C5.76371 1.49297 5.54018 1.14125 5.2551 0.919105C4.97002 0.696964 4.63959 0.585894 4.27028 0.585894C3.64828 0.585894 3.17207 0.845058 2.84487 1.36339C2.51444 1.87554 2.35246 2.60367 2.35246 3.54777Z" fill="white"/>
</svg>
