<svg width="7" height="8" viewBox="0 0 7 8" fill="none" xmlns="http://www.w3.org/2000/svg">
<path d="M2.73388 1.35105L2.83755 1.37573C3.12263 1.04869 3.38503 0.789523 3.628 0.598235C3.86773 0.410032 4.12689 0.265024 4.40549 0.166294C4.68085 0.0613942 4.99509 0.00585938 5.35144 0.00585938C5.65272 0.00585938 5.92484 0.0243715 6.16781 0.055224V1.73362H5.29961C5.17003 1.47137 5.03397 1.28317 4.8979 1.16593C4.7586 1.04252 4.56747 0.980811 4.32774 0.980811C4.14633 0.980811 3.96491 1.03635 3.7835 1.14125C3.60208 1.23997 3.42391 1.38807 3.25221 1.58553C3.08699 1.78299 2.97037 1.9681 2.90234 2.14088C2.84079 2.30748 2.81163 2.50803 2.81163 2.7456V5.31256C2.81163 5.75684 2.83755 6.06537 2.88938 6.23814C2.94769 6.40475 3.04488 6.52816 3.17446 6.60838C3.30404 6.68242 3.49842 6.74104 3.75758 6.78115V7.13905H0.660569V6.78115C0.858182 6.72562 0.997483 6.67625 1.07523 6.63306C1.15946 6.58369 1.23397 6.52199 1.29552 6.44794C1.36355 6.36772 1.41215 6.2474 1.43806 6.09005C1.47046 5.92653 1.48989 5.67045 1.48989 5.3249V2.12854C1.48989 1.81692 1.48018 1.56702 1.46398 1.37573C1.45426 1.18753 1.41862 1.03635 1.36031 0.919105C1.29876 0.804949 1.20481 0.721646 1.07523 0.672282C0.952129 0.616747 0.777193 0.567382 0.543945 0.524188V0.141612L2.34514 0.0675652H2.81163L2.73388 1.35105Z" fill="white"/>
</svg>
