<svg width="9" height="8" viewBox="0 0 9 8" fill="none" xmlns="http://www.w3.org/2000/svg">
<path d="M8.51174 7.13842H5.47952V6.78053C5.67713 6.725 5.81967 6.67563 5.90714 6.63244C5.99137 6.58307 6.06588 6.52137 6.12743 6.44732C6.18574 6.3671 6.23434 6.24369 6.26997 6.07709C6.30237 5.91357 6.32181 5.66674 6.32181 5.33662V3.4114C6.32181 3.0751 6.30885 2.76657 6.28293 2.48581C6.26349 2.20813 6.2311 1.97982 6.17927 1.80705C6.13391 1.6281 6.07884 1.48618 6.01081 1.38745C5.93954 1.28255 5.85855 1.19616 5.7646 1.12828C5.66742 1.05424 5.55727 0.9987 5.42769 0.955506C5.30459 0.915397 5.14585 0.8938 4.94824 0.8938C4.74738 0.8938 4.55949 0.936995 4.37807 1.01721C4.19666 1.09126 3.99581 1.22393 3.782 1.41213C3.56495 1.59416 3.40945 1.77619 3.3155 1.95514C3.21831 2.13717 3.17296 2.34389 3.17296 2.5722V5.31193C3.17296 5.73153 3.18916 6.02464 3.22479 6.18816C3.26691 6.34551 3.34466 6.46892 3.45804 6.55839C3.5779 6.64169 3.76904 6.71574 4.0282 6.78053V7.13842H1.0219V6.78053C1.21951 6.725 1.35881 6.67563 1.43656 6.63244C1.52079 6.58307 1.5953 6.52137 1.65685 6.44732C1.71516 6.3671 1.76375 6.24678 1.79939 6.08943C1.83179 5.92591 1.85122 5.66983 1.85122 5.32427V2.12792C1.85122 1.8163 1.8415 1.56639 1.82531 1.37511C1.81559 1.1869 1.77995 1.03572 1.72164 0.918482C1.66009 0.804327 1.56614 0.721024 1.43656 0.671659C1.31346 0.616125 1.13852 0.56676 0.905273 0.523565V0.128649L2.70646 0.0669427H3.17296L3.09521 1.26403L3.19888 1.28872C3.5779 0.927738 3.88566 0.668574 4.11891 0.511224C4.35216 0.356959 4.58541 0.236634 4.81865 0.153331C5.05838 0.0638577 5.3143 0.0175781 5.58319 0.0175781C5.85855 0.0175781 6.10476 0.0515165 6.32181 0.116307C6.54533 0.174928 6.73971 0.270572 6.90493 0.400154C7.0669 0.523565 7.20296 0.680915 7.30663 0.869118C7.41678 1.05115 7.501 1.27329 7.55284 1.53554C7.61115 1.80088 7.64354 2.13717 7.64354 2.54751V5.31193C7.64354 5.65132 7.65002 5.89197 7.66946 6.04006C7.69538 6.18816 7.72777 6.30848 7.77313 6.39795C7.82496 6.48126 7.89623 6.55222 7.99342 6.60775C8.09708 6.65712 8.26878 6.71574 8.51174 6.78053V7.13842Z" fill="white"/>
</svg>
