<svg width="6" height="12" viewBox="0 0 6 12" fill="none" xmlns="http://www.w3.org/2000/svg">
<path d="M4.482 4.87098H2.64194V9.3138C2.64194 9.63466 2.65813 9.88149 2.69377 10.0543C2.72616 10.2209 2.77476 10.3443 2.83631 10.4245C2.89462 10.5078 2.97885 10.5788 3.08252 10.6343C3.19266 10.6837 3.3676 10.733 3.60084 10.7824V11.1403H0.451998V10.7824C0.675527 10.7269 0.834266 10.6713 0.931452 10.622C1.0254 10.5664 1.09991 10.4955 1.15174 10.4122C1.21005 10.3319 1.25541 10.2116 1.28132 10.0543C1.30724 9.9 1.3202 9.65318 1.3202 9.3138V4.87098H0.387207V4.50074C0.575102 4.46989 0.701443 4.44521 0.762995 4.4267C0.831026 4.41127 0.895817 4.38659 0.957368 4.35265C1.01568 4.3218 1.06751 4.27552 1.11287 4.2169C1.15498 4.15211 1.19386 4.05646 1.22949 3.93305C1.26189 3.80347 1.2878 3.62452 1.30724 3.40238C1.35907 2.86863 1.46274 2.43669 1.61824 2.10656C1.77374 1.77952 1.99726 1.49876 2.29206 1.26736C2.59334 1.0298 2.91406 0.860104 3.25097 0.761375C3.59436 0.662646 4.00255 0.613281 4.46904 0.613281C4.87399 0.613281 5.21414 0.644135 5.49274 0.699669V2.02017H4.72821C4.63102 1.73324 4.52088 1.5327 4.39129 1.41546C4.26171 1.29204 4.0803 1.23034 3.84705 1.23034C3.67211 1.23034 3.52633 1.25502 3.40647 1.30439C3.29309 1.34758 3.18942 1.41237 3.09547 1.50184C2.99829 1.5944 2.9173 1.71781 2.84927 1.87208C2.778 2.02943 2.72616 2.22689 2.69377 2.46445C2.65813 2.69585 2.64194 2.99512 2.64194 3.36536V4.13051H4.482V4.87098Z" fill="white"/>
</svg>
