<svg width="54" height="54" viewBox="0 0 54 54" fill="none" xmlns="http://www.w3.org/2000/svg">
<g clip-path="url(#clip0_1633_6269)">
<path d="M22.7144 8.67388C23.7144 7.67364 24.2145 6.85745 24.2145 4.67293C24.2145 2.83676 24.2145 1.67223 22.9927 0.438693C22.2793 -0.0369694 21.3154 0.155719 20.8397 0.86942C20.364 1.58302 20.5568 2.54718 21.2703 3.02295C21.878 3.4282 22.2408 4.14491 22.2407 4.9402C22.2144 6.17329 22.322 6.45219 21.7144 6.85745C20.241 7.84004 19.4698 9.50362 19.4698 11.3073C19.4698 13.1113 19.7968 14.7745 21.2703 15.7571C21.984 16.233 22.9479 16.0398 23.4234 15.3263C23.8989 14.6127 23.428 14.6509 22.7144 14.1752C22.0978 13.7639 21.7144 12.4489 21.7144 11.6746C21.7144 10.9003 22.2407 9.44171 22.7144 8.67388ZM30.0036 9.44171C31.477 8.45921 32.3568 6.77638 32.3568 4.9402C32.3568 3.10402 32.2291 1.42129 30.7556 0.438693C30.0422 -0.0369694 29.0782 0.155719 28.6026 0.86942C28.1268 1.58302 28.3197 2.54718 29.0332 3.02295C29.6409 3.4282 30.0037 4.14491 30.0036 4.9402C30.0036 5.73549 29.6408 6.45219 29.0332 6.85745C27.5598 7.84004 26.68 9.50352 26.68 11.3072C26.68 13.1112 27.5597 14.7745 29.0332 15.7571C29.7469 16.233 30.7108 16.0398 31.1862 15.3263C31.6618 14.6127 30.7171 13.6485 30.0036 13.1728C29.3869 12.7615 29.2145 11.9487 29.2145 11.1745C29.2145 10.4002 29.3867 9.85297 30.0036 9.44171ZM37.8613 9.44171C39.3347 8.45921 40.2145 6.77638 40.2145 4.9402C40.2145 3.10402 39.9919 1.42129 38.5185 0.438693C37.805 -0.0369694 36.8411 0.155719 36.3655 0.86942C35.8897 1.58302 36.0826 2.54718 36.7961 3.02295C37.4037 3.4282 37.7666 4.14491 37.7665 4.9402C37.7665 5.73549 37.4036 6.45219 36.7961 6.85745C35.3226 7.84004 34.4429 9.50352 34.4429 11.3072C34.4429 13.1112 35.3225 14.7745 36.7961 15.7571C37.5097 16.233 38.4737 16.0398 38.9491 15.3263C39.4248 14.6127 39.2319 13.6485 38.5184 13.1728C37.9017 12.7615 36.8908 12.0816 36.8908 11.3073C36.8908 10.533 37.2445 9.85297 37.8613 9.44171ZM51.6564 43.8603H48.2441C49.6187 41.1802 50.2487 38.2002 50.0764 35.1174C49.9404 32.6838 49.2596 30.3455 48.0992 28.2286C49.4812 27.9832 50.757 27.2781 51.7148 26.1605C53.4938 24.0849 53.7053 21.2269 52.2668 18.702C51.8421 17.9568 50.8939 17.6971 50.1491 18.1217C49.4041 18.5464 49.1443 19.4946 49.569 20.2398C50.3517 21.6137 50.2726 23.0713 49.3575 24.1391C48.6722 24.9385 47.3828 25.5781 45.8027 25.007C45.3537 24.5101 44.8771 24.0389 44.3751 23.5956C41.0278 20.6407 36.7253 19.0236 32.2599 19.0236L19.6502 19.0235C19.4394 19.0231 19.2311 18.978 19.039 18.8911C18.8468 18.8043 18.6753 18.6777 18.5357 18.5198C17.093 16.8841 14.4666 16.1756 12.2144 16.1756L7.97723 15.9074C7.74215 15.9073 7.51013 15.9607 7.29867 16.0634C7.08722 16.1661 6.90185 16.3155 6.75655 16.5004C6.61124 16.6852 6.50981 16.9007 6.45989 17.1304C6.40997 17.3602 6.41287 17.5983 6.46838 17.8268L8.21439 24.3923C7.07003 25.5881 6.24205 26.7037 5.49046 28.1785L5.18137 28.6786C2.61324 28.6785 0.714357 30.4208 0.714357 32.9897V36.0956C0.714357 38.6644 2.30383 40.7544 4.87206 40.7544H5.49046L7.13678 43.8603H1.76689C0.909466 43.8603 0.214355 44.5555 0.214355 45.4132C0.214355 46.2708 0.909466 46.9661 1.76689 46.9661H3.91247L5.73031 50.6025C6.52438 52.191 8.12081 53.1777 9.89631 53.1777H43.4235C45.2071 53.1777 46.923 52.1429 47.6931 50.6025L49.5109 46.9661H51.6564C52.5139 46.9661 53.209 46.2708 53.209 45.4132C53.209 44.5555 52.5139 43.8603 51.6564 43.8603ZM44.9157 49.2135C44.6669 49.7109 44.3304 50.6025 43.7145 50.6025H9.71439C9.42584 50.6034 9.32472 49.993 9.07926 49.8413C8.8338 49.6895 8.63574 49.4721 8.50754 49.2135L7.38408 46.9661H46.039L44.9157 49.2135ZM18.7144 44.1822C18.7144 42.4697 20.3417 40.1813 22.0539 40.1813C23.766 40.1813 25.1571 42.4697 25.1571 44.1822H18.7144ZM26.7145 40.7544C26.9686 40.6885 28.4519 40.6816 28.7145 40.6814C30.4266 40.6814 31.7145 42.6819 31.3674 44.6824H27.7145C27.7155 43.6303 27.2258 41.6738 26.7145 40.7544ZM33.2145 40.6814C33.4686 40.6155 34.452 40.6816 34.7145 40.6814C36.4266 40.6814 37.7145 42.1818 37.5479 44.1822H34.2145C34.2155 43.1302 33.7257 41.6008 33.2145 40.6814ZM45.2145 44.1822H40.2145C40.2145 40.757 37.6389 37.8708 34.2145 37.8708C33.1234 37.8707 32.3117 37.9364 31.3674 38.4831C30.4248 37.9357 29.3044 38.18 28.2145 38.1808C27.1234 38.1807 26.1013 38.6343 25.1571 39.1811C24.2145 38.6336 23.1438 38.18 22.0539 38.1808C18.6294 38.1808 16.7144 40.4352 16.7144 43.8604H10.6513L7.79618 38.474C7.66407 38.2248 7.46658 38.0162 7.22491 37.8708C6.98324 37.7253 6.70653 37.6485 6.42449 37.6485H4.87206C4.01598 37.6485 3.31953 36.9519 3.31953 36.0956V32.9897C3.31953 32.1334 4.01598 31.4368 4.87206 31.4368H6.12843C6.74042 31.4508 7.3256 31.0994 7.58532 30.509L7.58677 30.5057L7.58853 30.5017C8.34419 28.773 9.42573 27.2367 10.8033 25.9349L10.8206 25.9186C11.0241 25.7271 11.1721 25.4842 11.249 25.2156C11.326 24.9469 11.329 24.6625 11.2579 24.3923L9.71439 18.6762H12.6348C14.0095 18.6762 15.8522 19.199 16.7144 20.1766C17.5802 21.1581 18.3921 21.1768 19.7144 21.1768H32.2599C39.9686 21.1768 47.6932 27.4171 48.0992 34.68C48.2715 37.7615 46.9118 41.6486 45.2145 44.1822Z" fill="#222222"/>
<path d="M10.7144 33.1777C11.5428 33.1777 12.2144 32.5062 12.2144 31.6777C12.2144 30.8493 11.5428 30.1777 10.7144 30.1777C9.88593 30.1777 9.21436 30.8493 9.21436 31.6777C9.21436 32.5062 9.88593 33.1777 10.7144 33.1777Z" fill="#222222"/>
<path d="M37.7144 30.1777C38.5428 30.1777 39.2144 29.5062 39.2144 28.6777C39.2144 27.8493 38.5428 27.1777 37.7144 27.1777C36.8859 27.1777 36.2144 27.8493 36.2144 28.6777C36.2144 29.5062 36.8859 30.1777 37.7144 30.1777Z" fill="#222222"/>
<path d="M41.7144 36.1777C42.5428 36.1777 43.2144 35.5062 43.2144 34.6777C43.2144 33.8493 42.5428 33.1777 41.7144 33.1777C40.8859 33.1777 40.2144 33.8493 40.2144 34.6777C40.2144 35.5062 40.8859 36.1777 41.7144 36.1777Z" fill="#222222"/>
</g>
<defs>
<clipPath id="clip0_1633_6269">
<rect width="53" height="53" fill="white" transform="translate(0.214355 0.177734)"/>
</clipPath>
</defs>
</svg>
