<svg width="51" height="51" viewBox="0 0 51 51" fill="none" xmlns="http://www.w3.org/2000/svg">
<g clip-path="url(#clip0_1633_6315)">
<path d="M18.1101 12.4028C18.2703 12.5106 18.4518 12.5622 18.6315 12.5622C18.9327 12.5622 19.2287 12.4169 19.4093 12.1476C19.7531 11.6353 20.9938 10.0258 22.5114 10.8182C23.6759 11.426 24.7279 11.7849 25.7413 11.978C25.7549 11.9814 25.8462 11.9999 25.8782 12.0031C27.0155 12.2037 28.1079 12.1986 29.2604 12.1038C29.6791 12.0695 30.0594 12.1561 30.3929 12.3616C30.8332 12.6332 31.4099 12.4957 31.681 12.0548C31.9521 11.6141 31.815 11.0368 31.3746 10.7653C30.6942 10.3459 29.9306 10.1676 29.1071 10.2357C28.4267 10.2915 27.7954 10.3127 27.174 10.2743C27.787 8.65184 29.0362 7.3288 30.6589 6.63618C31.1344 6.43315 31.3556 5.88252 31.1527 5.4064C30.95 4.9304 30.3999 4.70875 29.9243 4.91189C29.4902 5.09723 29.0773 5.31819 28.6873 5.56948C28.6051 4.64794 28.2916 3.74222 27.7481 2.95927C26.6048 1.3116 24.6607 0.456248 22.6732 0.727228C22.376 0.767763 22.1159 0.948534 21.9742 1.21342C21.0276 2.98282 21.1499 5.10543 22.2936 6.75263C23.1023 7.91845 24.3427 8.70444 25.6928 8.9705C25.5421 9.28647 25.4112 9.61333 25.3009 9.9491C24.6961 9.77137 24.066 9.5155 23.3773 9.15607C21.4809 8.16646 19.3132 8.9302 17.8552 11.1021C17.5667 11.5317 17.681 12.114 18.1101 12.4028ZM23.8314 5.68313C23.187 4.7549 23.0439 3.59343 23.4221 2.55262C24.5286 2.56071 25.5661 3.10021 26.2103 4.02866C26.8588 4.96309 27.014 6.15995 26.6483 7.19689C25.5472 7.17931 24.4794 6.61709 23.8314 5.68313ZM29.4258 14.9057C29.2442 15.1701 28.9512 15.3122 28.6533 15.3122C28.4703 15.3122 28.2858 15.2587 28.1238 15.1473C28.0139 15.0716 27.894 15.0407 27.7468 15.0494C27.2333 15.0804 26.7869 14.6873 26.7557 14.1707C26.7243 13.654 27.1174 13.2098 27.6336 13.1785C28.1964 13.1446 28.7316 13.2911 29.1844 13.6025C29.6105 13.8956 29.7185 14.479 29.4258 14.9057ZM46.8992 2.64084C45.2755 1.46226 43.1581 1.29637 41.3735 2.20737C40.5252 2.64014 39.8186 3.28566 39.3082 4.05467C39.0843 3.65212 38.8265 3.26528 38.5337 2.89952C38.21 2.49557 37.6208 2.43055 37.2175 2.75425C36.8141 3.07795 36.749 3.6677 37.0724 4.07177C38.2115 5.49462 38.6836 7.32154 38.4028 9.09457C37.3938 8.98292 36.372 9.17271 35.4472 9.65504C34.2175 10.2963 33.3125 11.3744 32.8986 12.6904L32.2923 14.6181C30.3059 14.6863 28.3234 16.3729 27.3549 18.9392C27.1721 19.4234 27.4161 19.9643 27.8998 20.1472C28.0088 20.1885 28.1205 20.2079 28.2305 20.2079C28.6087 20.2079 28.9649 19.9768 29.1064 19.6016C29.8614 17.6012 31.4699 16.2508 32.7668 16.5269C33.2387 16.6275 33.7098 16.3523 33.8547 15.8917L34.6846 13.2532C34.9482 12.4147 35.5263 11.7272 36.3121 11.3174C37.0981 10.9074 37.992 10.8269 38.83 11.0911C38.832 11.0917 38.8337 11.0923 38.8357 11.0929C40.5708 11.6429 41.5372 13.5024 40.9905 15.2409L40.1547 17.8983C40.011 18.355 40.2344 18.8466 40.6726 19.0385C41.0062 19.1846 41.2932 19.4367 41.5257 19.788C41.8112 20.2195 42.392 20.3377 42.8234 20.0516C43.2544 19.7658 43.3723 19.1842 43.0867 18.7527C42.8234 18.3549 42.5143 18.0213 42.1629 17.7551L42.7766 15.8038C43.5439 13.364 42.4077 10.7734 40.2089 9.64051C40.2809 9.26233 40.3265 8.88181 40.3453 8.50129C40.8472 8.65125 41.3709 8.72787 41.8979 8.72787C42.7482 8.72787 43.6061 8.5307 44.3895 8.13096C46.1748 7.22008 47.2845 5.40734 47.2856 3.40012C47.2861 3.09962 47.1422 2.81728 46.8992 2.64084ZM43.5394 6.46092C42.5128 6.98484 41.2994 6.98331 40.3229 6.484C40.4958 5.39938 41.2165 4.39125 42.224 3.8773C43.2295 3.36404 44.3984 3.37939 45.3777 3.89557C45.2197 4.99179 44.5452 5.94778 43.5394 6.46092ZM38.5793 18.0672C38.4543 18.4529 38.4063 18.8416 38.4418 19.1694C38.4976 19.6841 38.1259 20.1464 37.6118 20.2022C37.5776 20.2059 37.5435 20.2077 37.5099 20.2077C37.038 20.2077 36.6321 19.8516 36.5803 19.3713C36.4992 18.6217 36.6526 17.9381 36.7957 17.4967L37.8443 14.163C37.9995 13.6694 38.5252 13.3949 39.0187 13.5506C39.5118 13.706 39.7858 14.2323 39.6305 14.726L38.5793 18.0672ZM5.68716 14.5121C6.31376 14.7494 6.97043 14.8648 7.6216 14.8648C8.35411 14.8648 9.07948 14.7184 9.74727 14.4354C9.80146 14.7739 9.87718 15.1101 9.97385 15.4423C9.37476 15.6385 8.71071 15.7847 7.93958 15.8787C6.28403 16.0805 5.08678 17.2377 4.65528 19.0533C4.53556 19.5569 4.84628 20.0623 5.34941 20.1821C5.4222 20.1995 5.49511 20.2078 5.56685 20.2078C5.99051 20.2078 6.3745 19.9178 6.47679 19.4873C6.64906 18.7628 7.08185 17.8715 8.16592 17.7394C9.45937 17.5818 10.5218 17.2839 11.4608 16.8739C11.4819 16.8666 11.5032 16.8596 11.5242 16.8507C11.5579 16.8364 11.59 16.82 11.621 16.8024C12.6674 16.324 13.563 15.7032 14.4566 14.9742C14.9881 14.5404 15.6158 14.4332 16.3223 14.6551C17.6937 15.0863 19.0028 16.6186 19.506 18.3816C19.599 18.7075 19.6682 19.0463 19.7116 19.3885C19.7769 19.9019 20.2447 20.2657 20.7585 20.2001C21.2714 20.1348 21.6343 19.6656 21.5693 19.1521C21.5138 18.716 21.4254 18.2835 21.3065 17.8667C20.6297 15.495 18.8521 13.4857 16.8834 12.8667C15.5763 12.4556 14.2944 12.6882 13.2735 13.5212C12.7443 13.9529 12.2359 14.328 11.702 14.6487C11.2897 12.964 11.5712 11.1655 12.5169 9.67519C12.7941 9.23832 12.665 8.6591 12.2285 8.38156C11.792 8.1039 11.2135 8.23324 10.9362 8.67023C10.6855 9.06528 10.4718 9.47743 10.2935 9.9013C9.70175 9.19426 8.92863 8.63075 8.03789 8.29334C6.16396 7.5835 4.07737 7.98065 2.59257 9.32958C2.37033 9.53155 2.25833 9.82796 2.29133 10.1266C2.5117 12.1219 3.81288 13.8022 5.68716 14.5121ZM7.37513 10.0465C8.43381 10.4476 9.26112 11.3691 9.55183 12.4253C8.63429 13.0309 7.42745 13.167 6.3498 12.7587C5.29381 12.3587 4.51882 11.4825 4.24204 10.4101C5.15899 9.78976 6.31926 9.6466 7.37513 10.0465ZM18.4115 18.9994C18.5475 19.4989 18.2532 20.014 17.7544 20.1501C17.6719 20.1726 17.5891 20.1834 17.5076 20.1834C17.0958 20.1834 16.7185 19.9094 16.6048 19.4924C16.4375 18.8777 15.9782 18.3344 15.488 18.171C15.1746 18.0667 14.9879 18.172 14.8747 18.2604C14.467 18.5787 13.8785 18.5059 13.5607 18.0977C13.2427 17.6895 13.3155 17.1006 13.7232 16.7823C14.4033 16.2515 15.2402 16.113 16.0791 16.3925C17.163 16.7535 18.0785 17.7768 18.4115 18.9994ZM7.25178 39.6888C7.76883 39.6888 8.18804 40.1085 8.18804 40.6261V40.8663C8.18804 41.3839 7.76883 41.8036 7.25178 41.8036C6.73473 41.8036 6.31551 41.3839 6.31551 40.8663V40.6261C6.31551 40.1085 6.73473 39.6888 7.25178 39.6888ZM40.4851 41.8036C39.968 41.8036 39.5488 41.3839 39.5488 40.8663V40.6261C39.5488 40.1085 39.968 39.6888 40.4851 39.6888C41.0021 39.6888 41.4213 40.1085 41.4213 40.6261V40.8663C41.4213 41.384 41.0021 41.8036 40.4851 41.8036ZM7.25178 32.3551C7.76883 32.3551 8.18804 32.7748 8.18804 33.2924V33.5327C8.18804 34.0503 7.76883 34.4699 7.25178 34.4699C6.73473 34.4699 6.31551 34.0503 6.31551 33.5327V33.2924C6.31551 32.7748 6.73473 32.3551 7.25178 32.3551ZM40.4851 34.4699C39.968 34.4699 39.5488 34.0503 39.5488 33.5327V33.2924C39.5488 32.7748 39.968 32.3551 40.4851 32.3551C41.0021 32.3551 41.4213 32.7748 41.4213 33.2924V33.5327C41.4213 34.0504 41.0021 34.4699 40.4851 34.4699ZM42.3402 21.4748H5.39645C3.92898 21.4748 2.73512 22.67 2.73512 24.1392V28.0188C2.73512 28.6773 2.97551 29.2803 3.37237 29.7459C2.97551 30.2113 2.73512 30.8143 2.73512 31.4728V35.3524C2.73512 36.011 2.97551 36.614 3.37237 37.0794C2.97551 37.5449 2.73512 38.148 2.73512 38.8065V42.6862C2.73512 44.1554 3.92898 45.3505 5.39645 45.3505H21.4155C21.9325 45.3505 22.3517 44.9308 22.3517 44.4132C22.3517 43.8956 21.9325 43.476 21.4155 43.476H5.39645C4.96144 43.476 4.60765 43.1217 4.60765 42.6862V38.8065C4.60765 38.3711 4.96144 38.0167 5.39645 38.0167H27.7604C28.2775 38.0167 28.6967 37.597 28.6967 37.0794C28.6967 36.5618 28.2775 36.1422 27.7604 36.1422H5.39645C4.96144 36.1422 4.60765 35.7879 4.60765 35.3524V31.4728C4.60765 31.0374 4.96144 30.6831 5.39645 30.6831H42.3402C42.7752 30.6831 43.129 31.0374 43.129 31.4728V35.3524C43.129 35.7879 42.7752 36.1422 42.3402 36.1422H35.8278C35.3107 36.1422 34.8915 36.5618 34.8915 37.0794C34.8915 37.597 35.3107 38.0167 35.8278 38.0167H42.3402C42.7752 38.0167 43.129 38.3709 43.129 38.8065V42.6862C43.129 43.1217 42.7752 43.476 42.3402 43.476H39.1697C38.6527 43.476 38.2335 43.8956 38.2335 44.4132C38.2335 44.9308 38.6527 45.3505 39.1697 45.3505H42.3402C43.8077 45.3505 45.0015 44.1552 45.0015 42.6862V38.8065C45.0015 38.148 44.7611 37.545 44.3643 37.0794C44.7611 36.614 45.0015 36.011 45.0015 35.3524V31.4728C45.0015 30.8143 44.7611 30.2113 44.3643 29.7459C44.7611 29.2804 45.0015 28.6773 45.0015 28.0188V24.1392C45.0015 22.6699 43.8077 21.4748 42.3402 21.4748ZM4.60765 24.139C4.60765 23.7036 4.96144 23.3492 5.39645 23.3492H42.3402C42.7752 23.3492 43.129 23.7035 43.129 24.139V28.0186C43.129 28.4541 42.7752 28.8085 42.3402 28.8085H5.39645C4.96144 28.8085 4.60765 28.4542 4.60765 28.0186V24.139ZM6.31551 26.199V25.9587C6.31551 25.4411 6.73473 25.0215 7.25178 25.0215C7.76883 25.0215 8.18804 25.4411 8.18804 25.9587V26.199C8.18804 26.7166 7.76883 27.1362 7.25178 27.1362C6.73473 27.1362 6.31551 26.7166 6.31551 26.199ZM39.5488 26.199V25.9587C39.5488 25.4411 39.968 25.0215 40.4851 25.0215C41.0021 25.0215 41.4213 25.4411 41.4213 25.9587V26.199C41.4213 26.7166 41.0021 27.1362 40.4851 27.1362C39.968 27.1362 39.5488 26.7166 39.5488 26.199ZM35.2931 40.2965C34.462 39.5684 33.439 39.3236 32.4121 39.607H32.4123C32.0511 39.7067 31.7074 39.7887 31.3675 39.8474C31.6403 38.7694 32.3018 37.8141 33.2461 37.1808C33.6756 36.8927 33.7906 36.3105 33.5028 35.8805C33.215 35.4505 32.6333 35.3353 32.2037 35.6234C30.7257 36.6147 29.7399 38.1651 29.4478 39.8913C29.0582 39.8394 28.6462 39.75 28.1946 39.6134C27.1828 39.3072 26.1664 39.5308 25.3332 40.243C24.0878 41.3074 23.429 43.3207 23.6939 45.2527C24.1109 48.2948 26.5247 50.6777 29.1889 50.6777C29.5675 50.6777 29.9374 50.6283 30.2924 50.5305C30.6476 50.6283 31.0175 50.6777 31.3961 50.6777C34.0603 50.6777 36.474 48.2948 36.8911 45.2527C37.1513 43.3537 36.5092 41.3619 35.2931 40.2965ZM35.036 44.9979C34.7532 47.0606 33.0864 48.8033 31.3961 48.8033C31.1227 48.8033 30.8604 48.7576 30.6165 48.6675C30.5119 48.6288 30.4022 48.6096 30.2924 48.6096C30.1827 48.6096 30.0729 48.6289 29.9683 48.6676C29.7245 48.7577 29.4623 48.8033 29.1889 48.8033C27.4986 48.8033 25.8317 47.0606 25.549 44.9981C25.3731 43.7145 25.7937 42.3143 26.5491 41.6685C26.8948 41.3732 27.2557 41.2877 27.6529 41.4077C28.6138 41.6985 29.4541 41.8176 30.2419 41.8192C30.254 41.8198 30.3305 41.8199 30.3497 41.8187C31.2347 41.8082 32.0564 41.6498 32.9099 41.414H32.91C33.327 41.2988 33.7032 41.3947 34.0597 41.7071C34.81 42.3643 35.2115 43.7175 35.036 44.9979Z" fill="#222222"/>
</g>
<defs>
<clipPath id="clip0_1633_6315">
<rect width="50" height="50" fill="white" transform="translate(0.285645 0.677734)"/>
</clipPath>
</defs>
</svg>
