<svg width="55" height="55" viewBox="0 0 55 55" fill="none" xmlns="http://www.w3.org/2000/svg">
<path d="M26.7625 53.6777C26.8833 53.6777 27.0047 53.675 27.1262 53.6694C31.3319 53.4719 34.5804 49.919 34.3819 45.734C34.3309 44.6584 34.0504 43.606 33.559 42.6467C33.0676 41.6874 32.3766 40.8432 31.532 40.1701C31.3648 40.0367 31.1529 39.9714 30.9392 39.9872C30.7255 40.0031 30.5257 40.099 30.3802 40.2556L30.1627 40.4897C29.6674 39.4545 29.0697 38.4709 28.3785 37.5536L27.4449 36.3138C27.366 36.2092 27.2636 36.1242 27.146 36.0657C27.0284 36.0072 26.8987 35.9767 26.7672 35.9767C26.6357 35.9767 26.506 36.0072 26.3884 36.0657C26.2708 36.1242 26.1684 36.2092 26.0895 36.3138L25.1554 37.553C24.4021 38.5537 23.7602 39.6329 23.241 40.7716C23.1319 40.6683 23.024 40.564 22.9128 40.4628L22.8559 40.4112C22.7016 40.2711 22.5007 40.1926 22.2919 40.1909C22.083 40.1892 21.8808 40.2644 21.7242 40.4019C18.5664 43.1732 18.2641 47.967 21.0491 51.1094C21.7641 51.916 22.6432 52.5622 23.6282 53.005C24.6133 53.4478 25.6817 53.6771 26.7625 53.6777ZM26.5109 38.5645L26.7672 38.2244L27.0235 38.5645C27.7919 39.5852 28.4315 40.6958 28.928 41.8714C28.1029 42.8685 27.3706 43.938 26.74 45.0669C26.0888 44.0098 25.3455 43.0116 24.5188 42.0839C25.0265 40.8297 25.6961 39.6467 26.5109 38.5646V38.5645ZM22.3027 42.2087C23.8006 43.6704 25.0538 45.3614 26.0145 47.2174C26.0858 47.3549 26.1937 47.4702 26.3265 47.5507C26.4593 47.6312 26.6118 47.6738 26.7673 47.6738C26.9227 47.6738 27.0752 47.6312 27.208 47.5507C27.3408 47.4702 27.4487 47.3549 27.52 47.2174L27.9337 46.4195C28.7485 44.8476 29.773 43.3926 30.9794 42.0939L31.0543 42.0132C31.6144 42.5916 32.0487 43.2788 32.33 44.0317C32.6114 44.7847 32.7337 45.5872 32.6894 46.3893C32.5178 49.413 30.0873 51.824 27.0482 51.9853C23.7771 52.1396 20.9996 49.626 20.8444 46.371C20.7719 44.8482 21.2945 43.3566 22.3027 42.2087ZM44.0434 24.9421C47.158 24.9424 49.7683 22.5988 50.0875 19.5159C50.2653 17.8051 50.015 16.0772 49.3588 14.4861C48.7026 12.8951 47.661 11.4903 46.3268 10.397L42.033 6.87047C41.9335 6.78879 41.8166 6.73079 41.6912 6.7009C41.5657 6.67102 41.4351 6.67003 41.3092 6.69802C41.1833 6.72601 41.0655 6.78224 40.9648 6.86241C40.8641 6.94258 40.7831 7.04459 40.728 7.16064L38.3504 12.1697C37.6106 13.724 37.2687 15.4363 37.3553 17.154C37.442 18.8717 37.9543 20.5413 38.8468 22.0141C39.3853 22.907 40.147 23.6459 41.0576 24.159C41.9683 24.6721 42.9969 24.9419 44.0434 24.9421ZM39.8821 12.8897L41.7947 8.86057L45.2484 11.6969C46.3673 12.6137 47.2407 13.7918 47.791 15.126C48.3413 16.4603 48.5513 17.9093 48.4022 19.3439C48.1565 21.7365 46.0081 23.4777 43.6037 23.2332C42.9278 23.1644 42.2772 22.94 41.7035 22.5777C41.1298 22.2153 40.6488 21.725 40.2985 21.1456C39.55 19.9105 39.1203 18.5102 39.0476 17.0697C38.9749 15.6292 39.2616 14.1932 39.8821 12.8897Z" fill="#222222"/>
<path d="M43.5696 20.7156C43.6186 20.9372 43.7515 21.1299 43.9391 21.2514C44.1267 21.3729 44.3538 21.4133 44.5705 21.3638C44.7872 21.3143 44.9759 21.1788 45.0952 20.9872C45.2144 20.7955 45.2545 20.5633 45.2067 20.3415L43.5611 12.8064C43.5127 12.5844 43.3799 12.3911 43.1922 12.2692C43.0044 12.1472 42.777 12.1066 42.56 12.1562C42.3429 12.2058 42.154 12.3416 42.0349 12.5336C41.9157 12.7257 41.8759 12.9584 41.9244 13.1805L43.5696 20.7156ZM41.5665 20.2733C41.6922 20.2733 41.8163 20.2444 41.9296 20.1887C42.0429 20.1331 42.1426 20.0521 42.2212 19.9518C42.2998 19.8515 42.3554 19.7344 42.3839 19.6091C42.4124 19.4839 42.413 19.3537 42.3857 19.2282L41.6544 15.8793C41.6059 15.6572 41.4732 15.464 41.2855 15.3421C41.0977 15.2202 40.8703 15.1795 40.6533 15.2291C40.4362 15.2788 40.2474 15.4145 40.1282 15.6066C40.009 15.7987 39.9693 16.0314 40.0178 16.2534L40.7491 19.6023C40.7906 19.7925 40.8941 19.9626 41.0427 20.0845C41.1913 20.2065 41.376 20.273 41.5665 20.2733ZM45.6589 18.4801C45.7064 18.7024 45.8382 18.8963 46.0253 19.0191C46.2125 19.142 46.4397 19.1837 46.6569 19.1352C46.7652 19.111 46.8676 19.0651 46.9584 19.0002C47.0492 18.9352 47.1265 18.8525 47.1859 18.7568C47.2453 18.6612 47.2855 18.5544 47.3043 18.4427C47.3231 18.331 47.3201 18.2166 47.2954 18.1061L46.5643 14.7571C46.5158 14.5351 46.3831 14.3418 46.1953 14.2199C46.0076 14.098 45.7802 14.0573 45.5631 14.107C45.3461 14.1566 45.1572 14.2924 45.0381 14.4844C44.9189 14.6765 44.8792 14.9092 44.9277 15.1312L45.6589 18.4801ZM20.5049 27.9993C21.6667 28.8831 23.2854 28.7653 24.3134 27.7223L24.8992 27.123C25.0293 26.9891 25.1841 26.883 25.3546 26.8108C25.525 26.7385 25.7078 26.7016 25.8923 26.7021C26.1962 26.7027 26.4919 26.8035 26.7353 26.9895L27.8309 27.8302C29.1187 28.8162 30.9437 28.5494 31.9102 27.234C32.8972 25.8996 32.6618 24.0029 31.3801 22.9632L30.6424 22.3594C29.3265 21.2852 27.6936 20.6993 26.0103 20.6973C25.0361 20.6945 24.0711 20.8895 23.1711 21.2709C22.2712 21.6523 21.454 22.2126 20.7671 22.9192L20.1929 23.5068C19.0549 24.6708 19.0547 26.5583 20.1925 27.7226C20.2901 27.8224 20.3945 27.9151 20.5049 27.9998V27.9993ZM21.3787 24.7198L21.9529 24.1321C22.4845 23.5853 23.1168 23.1518 23.8133 22.8567C24.5097 22.5615 25.2564 22.4107 26.0103 22.4128C27.313 22.4145 28.5766 22.8681 29.5948 23.6996L30.3327 24.3034C30.9032 24.7663 31.0081 25.6108 30.5687 26.2049C30.1585 26.7632 29.3839 26.8764 28.8372 26.458L27.7416 25.6173C27.2075 25.2093 26.5591 24.9882 25.8925 24.9868C25.4876 24.9857 25.0865 25.0667 24.7125 25.2252C24.3384 25.3837 23.9988 25.6166 23.7133 25.9103L23.1278 26.5095C22.9166 26.7237 22.6374 26.8535 22.3408 26.8751C22.0442 26.8968 21.7499 26.8089 21.5112 26.6274C20.9648 26.2081 20.8541 25.415 21.264 24.856C21.2991 24.8081 21.3375 24.7629 21.3788 24.7205L21.3787 24.7198ZM39.0157 37.3194L39.9598 37.3565C40.0542 37.3603 40.1478 37.3621 40.2419 37.3621C41.8287 37.3607 43.3736 36.8407 44.6512 35.8778C45.4363 35.2878 46.0992 34.5443 46.6016 33.6904C47.1039 32.8366 47.4358 31.8892 47.5779 30.9032L47.6985 30.0814C47.9376 28.4533 46.8414 26.9351 45.2501 26.6905C45.1137 26.6695 44.976 26.6585 44.8382 26.6575H44.8172C43.3774 26.6637 42.1557 27.7399 41.9357 29.1956L41.8127 30.0336C41.7858 30.2204 41.7229 30.3999 41.6277 30.5616C41.5325 30.7234 41.407 30.8643 41.2582 30.9761C41.0161 31.1582 40.7237 31.2567 40.4232 31.2573H40.4127L39.0438 31.247H39.0228C37.4225 31.2487 36.1224 32.5694 36.1091 34.2067C36.0902 35.8799 37.381 37.2623 39.0157 37.3194ZM39.0228 32.9628H39.032L40.4013 32.9735H40.4232C41.0823 32.9721 41.7239 32.756 42.2549 32.3566C42.5812 32.1114 42.8568 31.8023 43.0656 31.4474C43.2744 31.0925 43.4123 30.6987 43.4713 30.2889L43.5944 29.4509C43.6395 29.1517 43.7874 28.8789 44.0115 28.6813C44.2357 28.4838 44.5214 28.3745 44.8172 28.3732H44.8261C45.5092 28.3783 46.0588 28.949 46.0537 29.6479C46.0533 29.7077 46.0487 29.7674 46.04 29.8265L45.9194 30.6484C45.4848 33.6064 42.9459 35.7571 40.0243 35.6421L39.0803 35.6049C38.3524 35.5796 37.7776 34.9639 37.7861 34.2189C37.7917 33.5239 38.3436 32.9634 39.0228 32.9628ZM26.2826 2.94499L22.1425 7.17939C21.5177 7.81519 21.0223 8.57147 20.6851 9.40446C20.3478 10.2374 20.1754 11.1306 20.1779 12.0322V12.0649C20.1793 13.2745 20.4925 14.4623 21.0859 15.5085C21.6793 16.5546 22.5319 17.4222 23.5577 18.0236C26.7742 19.9042 30.8718 18.7609 32.7099 15.47C33.2891 14.433 33.5937 13.2593 33.5936 12.0649V12.0322C33.596 11.1306 33.4236 10.2374 33.0864 9.40446C32.7492 8.57147 32.2538 7.81519 31.629 7.17939L27.4904 2.94509L27.4892 2.94402C27.137 2.58919 26.653 2.58844 26.2826 2.94499ZM25.8845 8.10781L26.8857 5.7176L27.887 8.10781C28.3341 9.17169 28.5641 10.3178 28.5627 11.4759C28.5592 13.3276 27.971 15.1286 26.8857 16.6106C25.8005 15.1286 25.2123 13.3276 25.2088 11.4758C25.2074 10.3178 25.4374 9.17165 25.8845 8.10781ZM31.9167 12.0322V12.0649C31.9156 12.9721 31.6807 13.863 31.2356 14.6476C30.7906 15.4322 30.1511 16.0829 29.3818 16.5339C29.1808 16.6511 28.972 16.7538 28.7569 16.8412C29.7229 15.2257 30.2358 13.3695 30.2397 11.4758C30.2413 10.0854 29.9652 8.70929 29.4285 7.43193L29.3716 7.29638L30.443 8.39252C30.9117 8.86937 31.2832 9.43659 31.5362 10.0613C31.7891 10.6861 31.9184 11.356 31.9167 12.0322ZM21.8548 12.0322C21.853 11.356 21.9823 10.6861 22.2353 10.0613C22.4882 9.43657 22.8598 8.86935 23.3285 8.39252L24.3998 7.29638L24.343 7.43193C23.8063 8.70933 23.5302 10.0854 23.5318 11.4759C23.5357 13.3697 24.0487 15.2258 25.0147 16.8413C24.7996 16.7538 24.5908 16.6511 24.3897 16.5339C23.6203 16.0829 22.9809 15.4322 22.5358 14.6476C22.0908 13.863 21.8559 12.9721 21.8548 12.0649V12.0322ZM15.1469 26.319C15.0168 26.3191 14.8884 26.3501 14.772 26.4096C14.6555 26.4692 14.5543 26.5557 14.4761 26.6622L13.1653 28.4504C12.2772 29.667 11.796 31.1441 11.793 32.6625C11.793 34.5576 13.2946 36.094 15.1469 36.094C16.9993 36.094 18.5009 34.5576 18.5009 32.6625C18.4978 31.1441 18.0166 29.667 17.1286 28.4504L15.8177 26.6622C15.7396 26.5556 15.6384 26.4692 15.5219 26.4096C15.4055 26.35 15.2771 26.319 15.1469 26.319ZM16.0771 34.0901C15.3065 34.6158 14.2654 34.4027 13.7516 33.6142C13.568 33.3324 13.47 33.0012 13.47 32.6625C13.4723 31.5152 13.8359 30.3991 14.507 29.4798L15.1469 28.6067L15.7869 29.4798C16.4579 30.3991 16.8216 31.5152 16.8239 32.6625C16.8242 32.945 16.7561 33.2232 16.6258 33.4723C16.4955 33.7214 16.307 33.9336 16.0771 34.0901ZM6.01907 27.3519C7.03498 27.6232 8.10931 27.5522 9.08269 27.1496L10.4319 26.5883C10.5525 26.5381 10.66 26.4599 10.7459 26.3599C10.8318 26.2599 10.8938 26.1407 10.9269 26.0119C10.96 25.8832 10.9634 25.7483 10.9367 25.6179C10.9101 25.4876 10.8541 25.3654 10.7733 25.261L9.86888 24.0929C9.21519 23.2523 8.3142 22.6496 7.29944 22.3741C5.95587 22.0124 4.58012 22.8334 4.22649 24.2081C3.87297 25.5826 4.6755 26.9901 6.01907 27.3519ZM6.10292 24.2207C6.20604 24.1268 6.33029 24.0605 6.46457 24.0277C6.59886 23.9949 6.73899 23.9967 6.87244 24.0328C7.53673 24.2133 8.1265 24.608 8.55434 25.1584L8.76396 25.4298L8.45037 25.5603C7.81343 25.8235 7.11055 25.8699 6.44586 25.6924C6.2991 25.6528 6.16558 25.5733 6.05954 25.4622C5.95349 25.3512 5.87889 25.2127 5.8437 25.0617C5.80851 24.9107 5.81405 24.7527 5.85972 24.6046C5.90539 24.4566 5.98948 24.3239 6.10303 24.2209L6.10292 24.2207ZM32.9333 31.0218C32.0793 30.3971 31.0513 30.0705 30.0017 30.0904L28.5454 30.1212C28.4152 30.1239 28.2875 30.1576 28.1722 30.2197C28.057 30.2817 27.9574 30.3703 27.8815 30.4786C27.8056 30.5868 27.7553 30.7116 27.7347 30.8431C27.7141 30.9747 27.7237 31.1093 27.7628 31.2364L28.1994 32.658C28.5164 33.6818 29.1473 34.5739 29.9986 35.2021C31.125 36.034 32.6974 35.7743 33.5105 34.6219C34.3236 33.4694 34.0698 31.8607 32.9434 31.0288L32.9333 31.0214V31.0218ZM31.7614 33.9151C31.6322 33.965 31.493 33.9814 31.3561 33.9629C31.2192 33.9444 31.0889 33.8915 30.9768 33.809C30.4195 33.3976 30.0067 32.8133 29.7995 32.1429L29.698 31.8125L30.0365 31.8053C30.7235 31.7926 31.3962 32.0064 31.9553 32.415C32.0786 32.5055 32.1756 32.6286 32.2359 32.7711C32.2962 32.9136 32.3175 33.0702 32.2976 33.2242C32.2777 33.3781 32.2174 33.5236 32.123 33.6452C32.0286 33.7668 31.9037 33.8599 31.7616 33.9146L31.7614 33.9151ZM12.8656 19.4699L15.0284 19.7859C15.1573 19.8047 15.2886 19.7926 15.4121 19.7505C15.5356 19.7084 15.6478 19.6374 15.7398 19.5433C15.8319 19.4491 15.9012 19.3343 15.9424 19.208C15.9836 19.0817 15.9954 18.9473 15.977 18.8154L15.6681 16.6027C15.4551 15.0999 14.7746 13.7074 13.7273 12.6314C12.4175 11.2913 10.2939 11.2913 8.98406 12.6314C7.67424 13.9715 7.67424 16.1442 8.98406 17.4842C10.0357 18.5557 11.3968 19.252 12.8656 19.4699ZM9.71135 14.7213C9.89319 13.7921 10.7767 13.1898 11.6849 13.3757C12.0093 13.4422 12.3073 13.6053 12.5412 13.8447C13.3326 14.6576 13.8467 15.7099 14.0075 16.8454L14.1584 17.9257L13.1031 17.7714C11.9933 17.6067 10.9649 17.0806 10.1703 16.271C9.97476 16.0715 9.83051 15.8256 9.75043 15.5552C9.67035 15.2848 9.65692 14.9983 9.71135 14.7213ZM46.808 39.7317L46.8429 39.4476C46.8648 39.2689 46.8312 39.0878 46.7469 38.9298C46.6627 38.7718 46.5319 38.6449 46.3733 38.5671C46.2146 38.4893 46.036 38.4646 45.8629 38.4964C45.6897 38.5281 45.5307 38.6148 45.4083 38.7442L45.2137 38.95C45.1345 39.0337 45.0539 39.1159 44.9718 39.1966C44.273 39.8738 43.3818 40.306 42.4271 40.4307C39.6744 40.8175 37.7494 43.414 38.1274 46.2302C38.5055 49.0465 41.0434 51.016 43.796 50.6292C46.5487 50.2425 48.4737 47.6459 48.0957 44.8297C48.0045 44.1505 47.7816 43.4968 47.4402 42.9069C46.9328 42.0594 46.6989 41.0701 46.7716 40.079C46.7816 39.9631 46.7937 39.8473 46.808 39.7317ZM46.1364 47.0128C45.3356 48.7221 43.332 49.4435 41.6613 48.624C41.5894 48.5887 41.5186 48.5508 41.4493 48.5103C39.8407 47.5708 39.281 45.4749 40.1993 43.8291C40.4542 43.3722 40.8084 42.9815 41.2345 42.687C41.6605 42.3925 42.147 42.2021 42.6564 42.1306C43.5321 42.0109 44.3737 41.7049 45.1268 41.2323C45.2438 42.1336 45.5399 43.0008 45.9967 43.7806C46.2782 44.2659 46.4383 44.8148 46.4627 45.3786C46.487 45.9424 46.375 46.5037 46.1364 47.0125V47.0128ZM16.2691 43.2493L16.0635 42.874C16.1835 41.9544 16.0085 41.0198 15.5647 40.2107C15.1212 39.4015 14.4329 38.7615 13.6033 38.3869L13.3978 38.0116C12.6056 36.5657 10.8178 36.0505 9.40456 36.861C9.0637 37.0565 8.76444 37.3197 8.52436 37.6351C8.28428 37.9505 8.10821 38.3119 8.00649 38.6979L7.97631 38.689C6.4161 38.2401 4.79551 39.1702 4.35667 40.7665C4.25234 41.1461 4.2221 41.543 4.26769 41.9345C4.31328 42.326 4.4338 42.7045 4.62236 43.0484L4.828 43.4237C4.5818 45.3128 5.58432 47.1412 7.28823 47.911L7.49376 48.2863C7.68151 48.6309 7.93417 48.9339 8.23713 49.1779C8.54009 49.4219 8.88734 49.602 9.25877 49.7078C9.62965 49.8155 10.0177 49.8469 10.4005 49.8003C10.7834 49.7537 11.1534 49.6299 11.4891 49.4361C11.8303 49.2415 12.1298 48.9788 12.3698 48.6635C12.6098 48.3482 12.7855 47.9868 12.8864 47.6008C12.8959 47.6037 12.9056 47.6065 12.9152 47.6091C14.4755 48.058 16.096 47.1279 16.5347 45.5315C16.7454 44.765 16.6499 43.9443 16.2691 43.2498V43.2493ZM14.9205 45.0667C14.7325 45.7508 14.038 46.1495 13.3693 45.9571C13.0482 45.8647 12.7761 45.6455 12.6128 45.3478C12.5024 45.1525 12.3213 45.0096 12.1087 44.9499C11.896 44.8903 11.6689 44.9187 11.4766 45.0291C11.2843 45.1395 11.1423 45.3229 11.0812 45.5396C11.0201 45.7564 11.0449 45.9891 11.1502 46.1872C11.4934 46.8051 11.2822 47.5906 10.6783 47.9419C10.0744 48.2931 9.30667 48.077 8.96331 47.4591L8.95629 47.4464L8.60517 46.8062C8.50525 46.624 8.34377 46.4853 8.15103 46.4163C6.95514 45.9884 6.25773 44.7164 6.52416 43.4493C6.56703 43.245 6.53557 43.0318 6.43569 42.8496L6.08468 42.2094C5.74499 41.589 5.96122 40.8043 6.56776 40.4567C6.75473 40.3496 6.96535 40.2931 7.17964 40.2925C7.29546 40.2927 7.41064 40.309 7.52206 40.3411C7.84362 40.4328 8.11592 40.6521 8.27848 40.9504L8.89372 42.0724C8.9476 42.1707 9.01987 42.2572 9.10642 42.3269C9.19296 42.3966 9.29208 42.4482 9.39812 42.4787C9.50416 42.5093 9.61503 42.5181 9.72442 42.5048C9.8338 42.4915 9.93955 42.4563 10.0356 42.4012C10.1317 42.346 10.2162 42.2721 10.2844 42.1836C10.3525 42.095 10.403 41.9936 10.4328 41.8851C10.4626 41.7766 10.4713 41.6632 10.4583 41.5513C10.4453 41.4394 10.4109 41.3312 10.357 41.2329L9.74153 40.1104C9.40729 39.4874 9.62991 38.7051 10.2388 38.3631C10.8398 38.0254 11.5946 38.2427 11.9354 38.8516L12.2865 39.4917C12.3865 39.6739 12.548 39.8126 12.7407 39.8816C13.9366 40.3095 14.634 41.5815 14.3676 42.8487C14.3245 43.0532 14.3559 43.2667 14.456 43.4492L14.807 44.0893C14.8881 44.2365 14.9399 44.3986 14.9594 44.5664C14.9789 44.7341 14.9657 44.9042 14.9205 45.0667Z" fill="#222222"/>
</svg>
