<svg width="61" height="61" viewBox="0 0 61 61" fill="none" xmlns="http://www.w3.org/2000/svg">
<g clip-path="url(#clip0_1633_6168)">
<path d="M53.0132 29.0596L48.7624 27.2006L48.0073 28.9064L52.2581 30.7654C54.1729 31.6033 55.801 32.9767 56.9442 34.7182C58.0875 36.4597 58.6964 38.4941 58.6968 40.5736V41.5925C58.6946 43.5071 57.9284 45.3427 56.5663 46.6966C55.2042 48.0504 53.3575 48.8119 51.4312 48.8141H24.9468V50.6777H51.4312C53.8546 50.6751 56.178 49.717 57.8916 48.0138C59.6052 46.3105 60.5691 44.0012 60.5718 41.5925V40.5736C60.5713 38.1325 59.8565 35.7442 58.5144 33.6998C57.1723 31.6554 55.261 30.0432 53.0132 29.0596ZM19.3819 48.7927C14.8202 48.5546 10.5234 46.5894 7.37391 43.3008C4.22442 40.0122 2.46136 35.6498 2.44683 31.1096V29.2459C2.44011 26.4775 3.0972 23.7474 4.36366 21.2817L2.69199 20.4374C1.29129 23.1645 0.564503 26.184 0.571832 29.2459V31.1096C0.586417 36.0894 2.50477 40.8776 5.93832 44.5043C9.37186 48.1309 14.0639 50.3249 19.064 50.6417C19.1478 50.6657 19.2346 50.6778 19.3218 50.6777H23.0718V48.8141H19.5408C19.4886 48.8025 19.4354 48.7953 19.3819 48.7927ZM20.2593 11.5414H22.1343C26.0674 11.5477 29.8882 12.8452 33.003 15.2321C36.1178 17.6191 38.3521 20.9619 39.3586 24.7409C39.3947 24.8762 39.4609 25.0017 39.5525 25.108C39.644 25.2144 39.7585 25.2989 39.8874 25.3552L46.1317 28.0862L46.8869 26.3803L41.0495 23.8274C39.8618 19.7521 37.3759 16.1697 33.9652 13.6183C30.5545 11.0669 26.403 9.68419 22.1343 9.67773H20.2593C17.0033 9.68028 13.7988 10.4859 10.9331 12.0223C8.06739 13.5587 5.63006 15.7779 3.8396 18.481L5.40241 19.5107C7.02211 17.0643 9.22728 15.0556 11.8202 13.6648C14.4132 12.2739 17.3129 11.5443 20.2593 11.5414Z" fill="#222222"/>
<path d="M37.7629 25.633C36.8651 22.2543 34.8975 19.2554 32.1532 17.0832C29.3829 14.873 25.9401 13.6717 22.3933 13.6778H20.4649C18.3735 13.6776 16.3031 14.0946 14.3754 14.9042C12.4477 15.7139 10.7016 16.8998 9.2397 18.3923C6.24316 21.397 4.56427 25.4657 4.5718 29.7047V31.6508C4.56796 35.7613 6.147 39.7161 8.98251 42.6977C11.77 45.6718 15.6055 47.4502 19.6809 47.6583C19.7428 47.6613 19.8046 47.6662 19.8658 47.6727C19.8985 47.676 19.9314 47.6777 19.9643 47.6777H52.5271C53.8706 47.6701 55.1562 47.131 56.102 46.1787C57.0477 45.2263 57.5763 43.9385 57.5717 42.5978V41.5338C57.5753 39.8463 57.089 38.1939 56.1717 36.7763C55.2543 35.3587 53.9452 34.2366 52.4025 33.5455L39.6789 27.8961C39.2092 27.6875 38.7929 27.3755 38.4611 26.9836C38.1293 26.5917 37.8906 26.13 37.7629 25.633ZM10.3583 41.4005C7.85551 38.7691 6.46159 35.2787 6.46466 31.6508V29.7047C6.45825 25.9633 7.94035 22.3723 10.5854 19.7205C12.87 17.3889 15.9075 15.9391 19.1604 15.6277L22.3419 21.9771C23.377 24.0326 23.727 26.3643 23.3409 28.6322L25.2077 28.9446C25.4316 27.6225 25.4449 26.2734 25.2472 24.9472C26.7951 24.6942 27.983 23.6898 28.638 22.0558C28.9725 21.1895 29.1554 20.2724 29.1789 19.3444H27.2861C27.2627 20.0322 27.1257 20.7115 26.8805 21.3548C26.4577 22.4098 25.7834 22.984 24.8259 23.1C24.617 22.4237 24.3524 21.7657 24.035 21.1328L21.246 15.5666H22.3935C25.5137 15.562 28.5421 16.6195 30.9787 18.5644C33.4017 20.4817 35.1391 23.129 35.9319 26.1117C36.131 26.883 36.5023 27.5993 37.018 28.2072C37.5336 28.815 38.1803 29.2987 38.9097 29.622L45.9831 32.7623L43.5119 34.2008C41.1128 35.6006 38.4765 36.549 35.7341 36.9987C35.1211 31.7165 30.6795 29.8815 30.4771 29.8006L29.7704 31.5531C30.8825 32.0683 31.8425 32.861 32.5578 33.8547C33.273 34.8484 33.7193 36.0094 33.8533 37.2256C31.4896 37.4089 29.1118 37.2222 26.8059 36.6724L22.13 35.5615C22.2857 35.2939 22.4531 35.0324 22.6322 34.777L23.0745 34.1466C23.7577 33.1731 24.301 32.1089 24.6886 30.985L22.8984 30.3708C22.5682 31.328 22.1054 32.2344 21.5235 33.0636L21.0813 33.6941C19.8687 35.4168 19.1051 37.4137 18.8593 39.5046L18.8575 39.5199L18.8508 39.5789L18.8483 39.6003L18.8409 39.6698L18.8377 39.7017L18.8338 39.74L18.8299 39.7797L18.8271 39.8097C18.8224 39.8605 18.8179 39.9115 18.8138 39.9626L18.8123 39.98L18.8082 40.0333V40.0385C18.8039 40.0951 18.8 40.1519 18.7964 40.2088L18.7953 40.2271C18.7943 40.244 18.7933 40.2609 18.7923 40.2778V40.2875C18.7906 40.32 18.7889 40.3525 18.7874 40.3851L18.7863 40.4069L18.7843 40.4507C18.7843 40.4614 18.7835 40.4721 18.783 40.4827L18.7815 40.5223L18.7792 40.5861C18.7792 40.5979 18.7785 40.6098 18.7783 40.621C18.7783 40.6347 18.7774 40.6484 18.7771 40.6622C18.7771 40.6729 18.7765 40.6835 18.7763 40.6943C18.7758 40.7111 18.7754 40.728 18.7752 40.7449V40.7685L18.7741 40.8402V40.9852C15.699 40.4331 14.9966 37.2477 14.9658 37.0997L13.1104 37.4738C13.3411 38.4481 13.7542 39.3701 14.3278 40.1914C15.1102 41.3065 16.4935 42.6115 18.776 42.8977L18.7785 45.6855C15.5563 45.2828 12.5771 43.7667 10.3583 41.4005ZM55.6789 41.5338V42.5978C55.684 43.4378 55.355 44.2454 54.7642 44.8437C54.1733 45.4419 53.3688 45.7818 52.5271 45.7888H20.6689L20.6645 41.0152V40.8512L20.6652 40.8121V40.799C20.6652 40.7848 20.6652 40.7708 20.666 40.7567V40.7472C20.6748 40.3696 20.7031 39.9928 20.751 39.6182C20.751 39.6142 20.7519 39.6101 20.7525 39.6064L20.7563 39.577L20.7606 39.5456L20.7628 39.5286L20.7696 39.4797V39.4789C20.8743 38.7389 21.0561 38.0118 21.312 37.3094L25.2977 38.2564C25.2846 38.5457 25.2829 38.8353 25.2927 39.1247C25.3459 40.6706 25.728 41.8724 26.4284 42.6971C27.0978 43.4839 28.0485 43.9 29.1789 43.9V42.0111C28.5992 42.0111 28.1852 41.8415 27.8756 41.4778C27.3122 40.8161 27.1727 39.6434 27.1789 38.6885C31.8431 39.641 36.6844 39.215 41.1097 37.4629C42.1626 38.8499 45.1 42.0111 50.0003 42.0111V40.1222C46.2903 40.1222 43.9292 37.9145 42.895 36.6733C43.4262 36.413 43.9497 36.1328 44.4655 35.8326L48.1139 33.7089L51.6329 35.2714C52.8414 35.8138 53.8666 36.6938 54.5846 37.8051C55.3026 38.9164 55.6826 40.2115 55.6789 41.5338Z" fill="#222222"/>
<path d="M18.5718 25.1777C18.5718 24.2877 18.3079 23.4177 17.8134 22.6777C17.3189 21.9376 16.6161 21.3609 15.7939 21.0203C14.9716 20.6797 14.0668 20.5906 13.1939 20.7642C12.321 20.9378 11.5191 21.3664 10.8898 21.9958C10.2605 22.6251 9.83188 23.4269 9.65825 24.2998C9.48461 25.1727 9.57373 26.0775 9.91432 26.8998C10.2549 27.7221 10.8317 28.4249 11.5717 28.9193C12.3117 29.4138 13.1818 29.6777 14.0718 29.6777C15.2648 29.6764 16.4087 29.2019 17.2523 28.3582C18.0959 27.5146 18.5704 26.3708 18.5718 25.1777ZM11.3718 25.1777C11.3718 24.6437 11.5301 24.1217 11.8268 23.6777C12.1235 23.2337 12.5452 22.8876 13.0385 22.6833C13.5319 22.4789 14.0748 22.4254 14.5985 22.5296C15.1223 22.6338 15.6034 22.8909 15.981 23.2685C16.3586 23.6461 16.6157 24.1272 16.7199 24.651C16.8241 25.1747 16.7706 25.7176 16.5663 26.211C16.3619 26.7043 16.0158 27.126 15.5718 27.4227C15.1278 27.7194 14.6058 27.8777 14.0718 27.8777C13.356 27.8769 12.6697 27.5922 12.1635 27.086C11.6573 26.5798 11.3726 25.8936 11.3718 25.1777Z" fill="#222222"/>
</g>
<defs>
<clipPath id="clip0_1633_6168">
<rect width="60" height="60" fill="white" transform="translate(0.571777 0.677734)"/>
</clipPath>
</defs>
</svg>
