<svg width="15" height="16" viewBox="0 0 15 16" fill="none" xmlns="http://www.w3.org/2000/svg">
<path fill-rule="evenodd" clip-rule="evenodd" d="M12.5412 13.4896L9.48649 10.4349L9.12108 10.8003C8.73764 11.1838 8.15104 11.2416 7.7001 10.9404C6.96951 10.4521 6.23306 9.84975 5.53062 9.14746C4.82818 8.44501 4.22571 7.70856 3.73771 6.97797C3.43642 6.52703 3.4941 5.94054 3.87777 5.55698L4.24318 5.19157L1.18818 2.13656L1.10694 2.2178C-1.63077 4.9554 1.31314 9.11761 3.43654 11.2412C5.55993 13.3646 9.72193 16.3085 12.4596 13.5708L12.5412 13.4896ZM1.63538 1.78388C2.0524 1.58861 2.56622 1.66275 2.90988 2.00641L4.37311 3.46965C4.71678 3.81332 4.79091 4.32691 4.59565 4.74416L1.63538 1.78388ZM9.93359 10.0821C10.3506 9.88685 10.8644 9.96099 11.2081 10.3047L12.6713 11.7679C13.015 12.1116 13.0891 12.6252 12.8939 13.0424L9.93359 10.0821Z" fill="black"/>
</svg>
