<svg width="60" height="49" viewBox="0 0 60 49" fill="none" xmlns="http://www.w3.org/2000/svg">
<path d="M37.7725 28.078L37.7197 28.1352C37.4701 28.4021 37.206 28.6738 36.9275 28.9503C31.9151 33.9218 25.904 36.9819 20.2339 37.9066C14.4533 38.8504 9.00873 37.5825 5.28303 33.8836C1.55732 30.1848 0.280211 24.7843 1.23084 19.0407C2.16227 13.4114 5.24462 7.44373 10.257 2.46748L10.3098 2.41504C10.5691 2.15765 10.8236 1.91456 11.078 1.681C11.3805 1.39977 11.659 1.14715 11.9134 0.923121C12.3071 0.579931 12.9025 0.598998 13.2722 0.96602L38.4399 25.9521L59.637 46.9963C60.0259 47.3824 60.0259 48.0068 59.637 48.3882C59.2481 48.7743 58.6192 48.7743 58.2351 48.3882L37.7725 28.078ZM33.1778 29.6748L29.8938 29.6462L29.8746 32.0676C30.9981 31.3574 32.1023 30.5614 33.1778 29.6748ZM28.5159 32.8731L28.5447 29.6367L23.4795 29.5938L23.4362 34.6224L24.7758 34.632C26.0289 34.1506 27.282 33.5643 28.5159 32.8731ZM20.1186 35.9332L18.6207 35.9189L15.1686 35.9475V36.1811C16.6906 36.305 18.2846 36.2335 19.9122 35.9666C19.9842 35.9571 20.0514 35.9428 20.1186 35.9332ZM13.8243 36.0143V35.9618L13.541 35.9666C13.6323 35.9809 13.7283 36 13.8243 36.0143ZM7.38114 33.1305L7.35233 29.6462L4.57726 29.67C5.13419 30.6996 5.83516 31.6481 6.68497 32.4918C6.91062 32.7158 7.14588 32.9256 7.38114 33.1305ZM3.9531 28.3402L7.33793 28.3116L7.29472 23.2829L2.92085 23.321C2.99287 25.0989 3.33375 26.7958 3.9531 28.3402ZM2.92085 21.9769L7.28511 21.9387L7.26111 19.3171C7.2515 19.2742 7.2467 19.2313 7.2467 19.1837L7.25151 18.5354L7.2467 17.8872C7.2467 17.8395 7.2515 17.7966 7.26111 17.7537L7.28511 15.1321L4.30839 15.1083C3.78986 16.5335 3.41537 17.9587 3.18492 19.3553C3.03608 20.2418 2.94966 21.1189 2.92085 21.9769ZM4.83652 13.7737L7.29952 13.7927L7.33793 9.12631C6.33928 10.6468 5.50388 12.2055 4.83652 13.7737ZM8.70146 7.21493V7.43896L13.7667 7.48186L13.7955 4.27399L12.5328 3.02039L12.432 3.11096C12.1823 3.34452 11.9374 3.57808 11.707 3.80687L11.659 3.8593C10.5787 4.93653 9.58967 6.05667 8.70146 7.21493ZM15.1302 5.59908L15.1158 7.49139L17.0555 7.50569L15.1302 5.59908ZM18.419 8.86415L18.0589 8.86892C18.0157 8.86892 17.9725 8.86415 17.9341 8.85938L15.1062 8.83555L15.063 13.8642L18.6255 13.8928L22.1879 13.8642L22.1783 12.5916L18.419 8.86415ZM24.7806 15.1798L23.5467 15.1893L23.5659 17.3009C23.5803 17.3533 23.5851 17.4105 23.5851 17.4677L23.5755 18.5402L23.5851 19.6079C23.5851 19.6651 23.5803 19.7223 23.5659 19.7747L23.5467 21.8863L28.6119 21.9292L28.6359 19.0073L24.7806 15.1798ZM29.9706 20.3324L29.9562 21.9387L31.603 21.953L29.9706 20.3324ZM32.9666 23.3067L29.9514 23.2829L29.9082 28.3116L34.6998 28.3545C34.791 28.2687 34.887 28.1781 34.9782 28.0923L35.0023 25.3277L32.9666 23.3067ZM36.3322 26.6481V26.7243L36.3706 26.6862L36.3322 26.6481ZM22.0871 34.6129L22.1303 29.5842L18.6255 29.5556L15.1206 29.5842L15.1638 34.6129L17.478 34.5939C17.5308 34.5796 17.5836 34.5748 17.6412 34.5748L18.6303 34.5843L19.6193 34.5748C19.6769 34.5748 19.7297 34.5796 19.7826 34.5939L22.0871 34.6129ZM22.1399 28.2448L22.1831 23.2162L18.6207 23.1876L15.0582 23.2162L15.1014 28.2448L17.9293 28.221C17.9725 28.2115 18.0109 28.2115 18.0541 28.2115L18.6159 28.2162L19.1776 28.2115C19.2208 28.2115 19.264 28.2162 19.3024 28.221L22.1399 28.2448ZM22.1975 21.8768L22.2263 18.5402L22.1975 15.2036L18.8319 15.2322C18.8079 15.2322 18.7887 15.237 18.7647 15.237H18.6255H18.4862C18.4622 15.237 18.4382 15.237 18.419 15.2322L15.0534 15.2036L15.0246 18.5402L15.0534 21.8768L18.419 21.8482C18.443 21.8482 18.467 21.8434 18.4862 21.8434H18.6255H18.7647C18.7887 21.8434 18.8127 21.8434 18.8319 21.8482L22.1975 21.8768ZM23.5323 23.2257L23.4891 28.2544L28.5543 28.2973L28.5975 23.2686L23.5323 23.2257ZM13.6803 19.7747C13.6659 19.7223 13.6611 19.6651 13.6611 19.6079L13.6707 18.5402L13.6611 17.4677C13.6611 17.4105 13.6659 17.3533 13.6803 17.3009L13.6995 15.1893L8.63424 15.1464L8.60543 18.5402L8.63424 21.934L13.6995 21.8911L13.6803 19.7747ZM13.7139 23.2257L8.64864 23.2686L8.69186 28.2973L13.7571 28.2544L13.7139 23.2257ZM13.7667 29.5938L8.70146 29.6367L8.73987 34.1267C9.04234 34.3174 9.34962 34.4938 9.67129 34.6606L13.8147 34.6272L13.7667 29.5938ZM13.7571 8.82125L8.69186 8.77835L8.64864 13.807L13.7139 13.8499L13.7571 8.82125Z" fill="#222222"/>
</svg>
