<svg width="60" height="61" viewBox="0 0 60 61" fill="none" xmlns="http://www.w3.org/2000/svg">
<path d="M32 14.6777C32.5523 14.6777 33 14.23 33 13.6777C33 13.1254 32.5523 12.6777 32 12.6777C31.4477 12.6777 31 13.1254 31 13.6777C31 14.23 31.4477 14.6777 32 14.6777Z" fill="#222222"/>
<path d="M41.41 36.2878L41.3832 36.282C38.8021 35.8103 36.1918 35.5148 33.5704 35.3975C34.1542 34.8445 34.6301 34.1884 34.9742 33.4623C35.0122 33.4654 35.0503 33.4686 35.0886 33.4704C35.1028 33.4704 35.1169 33.4713 35.131 33.4713H45.8667C49.6532 33.4713 52.7954 32.2359 54.9533 29.8985C56.9465 27.7393 58 24.7889 58 21.3674C58 21.3414 57.9992 21.3157 57.999 21.2898H58L57.999 21.2884C57.9746 18.0933 56.686 15.0372 54.4138 12.7852C52.1416 10.5332 49.0697 9.26762 45.8667 9.26394H25.3333C24.591 9.26311 23.8793 8.96857 23.3544 8.44494C22.8294 7.92131 22.5342 7.21136 22.5333 6.47084V4.60877C22.5333 4.36184 22.435 4.12503 22.26 3.95043C22.0849 3.77583 21.8475 3.67773 21.6 3.67773C21.3525 3.67773 21.1151 3.77583 20.94 3.95043C20.765 4.12503 20.6667 4.36184 20.6667 4.60877V6.47084C20.6681 7.54864 21.0439 8.59264 21.7299 9.42525C22.416 10.2579 23.3701 10.8277 24.4299 11.0377C24.4591 11.4615 24.5107 11.8836 24.5844 12.302C23.9752 12.559 23.3064 12.6426 22.6525 12.5435C22.3415 12.4967 22.0462 12.3769 21.7908 12.1939C21.5354 12.0109 21.3273 11.7701 21.1835 11.4911L20.6131 9.88424C20.573 9.76804 20.5101 9.66092 20.4283 9.56906C20.3464 9.4772 20.2471 9.40242 20.1361 9.34904C20.0251 9.29565 19.9046 9.26472 19.7816 9.25803C19.6585 9.25134 19.5354 9.26901 19.4192 9.31004C19.3031 9.35106 19.1962 9.41462 19.1048 9.49706C19.0134 9.57949 18.9393 9.67916 18.8867 9.79032C18.8341 9.90147 18.8041 10.0219 18.7984 10.1447C18.7927 10.2675 18.8115 10.3902 18.8535 10.5057L19.4447 12.1712C19.4575 12.2073 19.4726 12.2426 19.4897 12.2769C19.7602 12.8246 20.1572 13.3003 20.6481 13.665C21.1389 14.0297 21.7096 14.2729 22.3131 14.3746C22.5979 14.4265 22.8869 14.4524 23.1764 14.4519C23.8167 14.4475 24.4516 14.3339 25.0534 14.1159C25.8756 16.5012 27.4229 18.5713 29.48 20.0379C31.5371 21.5046 34.0016 22.2948 36.5301 22.2984H45.8667C46.3688 22.2985 46.8509 22.4953 47.209 22.8465C47.5671 23.1976 47.7726 23.675 47.7814 24.1758C47.7901 24.6767 47.6013 25.1609 47.2556 25.5243C46.9099 25.8876 46.435 26.101 45.9332 26.1185C45.9262 26.1185 45.9189 26.1185 45.9119 26.1195L35.0885 26.7432C34.842 26.7545 34.5974 26.7926 34.3591 26.8568C33.752 26.0235 32.9563 25.3449 32.0366 24.8764C31.1169 24.4079 30.0993 24.1626 29.0667 24.1605H27.2C26.9525 24.1605 26.7151 24.2586 26.54 24.4332C26.365 24.6078 26.2667 24.8446 26.2667 25.0915C26.2673 26.2166 26.5598 27.3223 27.1156 28.3011C27.6715 29.28 28.4718 30.0988 29.4388 30.6777C28.549 31.2112 27.7994 31.9484 27.2518 32.8282C26.7043 33.7081 26.3746 34.7053 26.29 35.7374C22.3282 36.4286 18.4009 38.0028 14.565 40.4427C14.2157 40.665 13.8859 40.9166 13.5792 41.1946C12.6638 39.6896 11.3751 38.4453 9.83732 37.5816C8.29958 36.718 6.56471 36.2642 4.8 36.2639H2.93333C2.6858 36.2639 2.4484 36.362 2.27337 36.5366C2.09833 36.7112 2 36.9481 2 37.195C2.00189 39.1559 2.56735 41.0752 3.62936 42.7254C4.69137 44.3755 6.20541 45.6873 7.992 46.5053C6.20541 47.3233 4.69137 48.6351 3.62936 50.2853C2.56735 51.9354 2.00189 53.8547 2 55.8157C2 56.0626 2.09833 56.2994 2.27337 56.474C2.4484 56.6486 2.6858 56.7467 2.93333 56.7467H4.8C6.56469 56.7465 8.29954 56.2926 9.83725 55.429C11.375 54.5654 12.6637 53.321 13.5791 51.8161C13.8857 52.0941 14.2155 52.3456 14.5649 52.568C19.8955 55.9586 25.4026 57.6777 30.9333 57.6777C34.4379 57.6722 37.9351 57.3546 41.383 56.7287L41.4099 56.7228C53.7986 53.8716 57.7163 47.2478 57.877 46.9672C57.9576 46.8266 58 46.6673 58 46.5053C58 46.3433 57.9576 46.1841 57.877 46.0434C57.7163 45.7628 53.7986 39.1397 41.41 36.2878ZM50.6999 30.6887C48.5147 30.114 47.9388 28.3494 47.7876 27.4637C48.6392 26.9654 49.2603 26.153 49.5169 25.202C49.8158 25.2257 50.107 25.2376 50.3903 25.2377C52.378 25.2511 54.3216 24.653 55.9564 23.5249C55.4572 26.4972 53.8639 29.2958 50.6998 30.6887H50.6999ZM44.63 20.4364H38.9152C39.4844 19.6806 39.9249 18.8364 40.2188 17.9377C40.2576 17.8217 40.2731 17.6992 40.2644 17.5772C40.2557 17.4553 40.223 17.3362 40.1682 17.2269C40.1134 17.1175 40.0375 17.02 39.9449 16.9398C39.8523 16.8597 39.7448 16.7986 39.6285 16.7599C39.5122 16.7213 39.3894 16.7058 39.2672 16.7145C39.1449 16.7232 39.0255 16.7558 38.9159 16.8105C38.8063 16.8651 38.7085 16.9408 38.6282 17.0332C38.5479 17.1256 38.4866 17.2328 38.4478 17.3488C38.1533 18.2768 37.6525 19.1265 36.9827 19.8343C36.77 20.0561 36.5351 20.2558 36.2819 20.4303C33.7659 20.3663 31.3609 19.3837 29.5228 17.6688C27.6846 15.9539 26.541 13.6259 26.3087 11.126H45.8667C47.1353 11.1248 48.3931 11.3594 49.5756 11.8178C49.2466 16.6416 45.5662 19.7264 44.63 20.4364ZM47.1982 20.6784C48.7615 19.1468 50.8747 16.447 51.3632 12.7209C52.7633 13.6067 53.9276 14.8174 54.7567 16.2496C55.5858 17.6818 56.055 19.293 56.1242 20.9454C55.3076 21.8182 53.1277 23.6613 49.5453 23.3345C49.4006 22.7346 49.1112 22.1789 48.7021 21.716C48.293 21.2531 47.7767 20.8969 47.1982 20.6784ZM40.1787 28.3152L45.9794 27.981C46.207 29.088 46.8128 30.457 48.0718 31.4429C47.3422 31.5558 46.6049 31.6112 45.8667 31.6088H41.5119C40.9959 31.1876 39.7226 29.95 40.1787 28.3152ZM35.1847 28.6027L38.253 28.4259C38.0864 29.6571 38.4723 30.7481 39.03 31.6088H35.1546C34.7674 31.5867 34.4037 31.4167 34.1388 31.1342C33.874 30.8516 33.7284 30.4782 33.7323 30.0914C33.7361 29.7046 33.8892 29.3342 34.1596 29.0569C34.4301 28.7797 34.7972 28.6171 35.1847 28.6027ZM28.2267 26.0226H29.0667C29.7786 26.0241 30.4809 26.1874 31.1201 26.5001C31.7594 26.8129 32.3187 27.2668 32.7558 27.8275C32.2876 28.3351 31.9877 28.9743 31.897 29.6581C30.9947 29.4791 30.1654 29.0387 29.5126 28.3921C28.8598 27.7455 28.4125 26.9213 28.2267 26.0226ZM32.2366 31.6437C32.4712 32.0998 32.8071 32.4965 33.2186 32.8035C32.8258 33.5645 32.2306 34.203 31.4983 34.6492C30.766 35.0953 29.9247 35.3318 29.0667 35.3329H28.2267C28.4242 34.3768 28.9175 33.5065 29.6369 32.8447C30.3563 32.1829 31.2657 31.7628 32.2371 31.6437H32.2366ZM4.8 54.8846H3.91812C4.13211 53.0037 4.97713 51.2502 6.31599 49.9086C7.65485 48.5671 9.40896 47.7164 11.2935 47.4945C11.4295 48.4838 11.772 49.4337 12.299 50.2826C11.5979 51.6665 10.5259 52.8293 9.20202 53.6417C7.87815 54.4541 6.35433 54.8844 4.8 54.8846ZM11.2935 45.5161C9.40896 45.2943 7.65485 44.4435 6.31599 43.102C4.97713 41.7605 4.13211 40.0069 3.91812 38.126H4.8C6.35433 38.1262 7.87815 38.5565 9.20202 39.3689C10.5259 40.1814 11.5979 41.3442 12.299 42.728C11.772 43.577 11.4295 44.5268 11.2935 45.5161ZM43.9681 54.0963C42.9917 54.4057 42.0031 54.6755 41.0048 54.9051C37.6806 55.5001 34.3106 55.8048 30.9333 55.8157C25.7638 55.8157 20.5944 54.1947 15.5683 50.9976C14.8095 50.5175 14.1847 49.8539 13.7517 49.0685C13.3187 48.2831 13.0917 47.4013 13.0917 46.505C13.0917 45.6086 13.3187 44.7268 13.7517 43.9414C14.1847 43.156 14.8095 42.4925 15.5683 42.0124C20.5944 38.8159 25.7638 37.195 30.9333 37.195C34.3107 37.2066 37.6806 37.5113 41.0049 38.1056C42.0032 38.3352 42.9918 38.605 43.9683 38.9144C43.5269 39.8695 42.1333 43.1516 42.1333 46.5053C42.1333 49.859 43.5269 53.1413 43.9681 54.0963ZM53.0054 49.4622C51.4845 50.6766 49.1235 52.2009 45.7408 53.4809C45.5191 53.019 44 49.7333 44 46.5053C44 43.2907 45.5185 39.9949 45.7409 39.5298C49.1236 40.81 51.4846 42.3345 53.0054 43.5485C54.57 44.798 55.4983 45.9089 55.9398 46.5053C55.4975 47.1028 54.57 48.2132 53.0054 49.4622Z" fill="#222222"/>
<path d="M51 46.6777C51.5523 46.6777 52 46.23 52 45.6777C52 45.1254 51.5523 44.6777 51 44.6777C50.4477 44.6777 50 45.1254 50 45.6777C50 46.23 50.4477 46.6777 51 46.6777Z" fill="#222222"/>
<path d="M34.9731 42.197C34.9362 42.0494 34.8626 41.913 34.759 41.7999C34.6553 41.6868 34.5248 41.6005 34.3789 41.5486L27.1049 38.964C26.8825 38.8849 26.6378 38.8907 26.4194 38.9801C26.201 39.0695 26.025 39.236 25.9263 39.4465C25.8732 39.5594 24.6275 42.2608 24.6275 46.2931C24.6275 50.3255 25.8729 53.0268 25.9259 53.1398C26.0247 53.3504 26.2007 53.5169 26.419 53.6063C26.6374 53.6957 26.8821 53.7014 27.1046 53.6223L34.3785 51.0377C34.5245 50.9859 34.655 50.8996 34.7587 50.7865C34.8624 50.6734 34.9359 50.537 34.9728 50.3894C35.0097 50.2418 35.0088 50.0876 34.9702 49.9404C34.9316 49.7932 34.8565 49.6576 34.7515 49.5457C34.7417 49.5354 33.7875 48.4576 33.7875 46.2931C33.7875 44.1431 34.7187 43.077 34.7515 43.0405C34.8565 42.9286 34.9316 42.7931 34.9703 42.6459C35.0089 42.4988 35.0099 42.3446 34.9731 42.197ZM32.5941 49.586C32.6108 49.6215 32.6275 49.6561 32.6442 49.6898L27.3402 51.5744C26.8814 50.1616 26.612 48.6965 26.5387 47.2158H27.4563C27.7064 47.2158 27.9462 47.1186 28.1231 46.9455C28.2999 46.7724 28.3992 46.5376 28.3992 46.2928C28.3992 46.0479 28.2999 45.8132 28.1231 45.6401C27.9462 45.4669 27.7064 45.3697 27.4563 45.3697H26.5386C26.6119 43.889 26.8813 42.4238 27.3401 41.011L32.6441 42.8957C32.6274 42.9298 32.6106 42.9644 32.594 42.9996C32.1374 44.0398 31.9019 45.1602 31.9019 46.2924C31.9019 47.4246 32.1374 48.545 32.594 49.5853L32.5941 49.586ZM3.38709 28.192C3.39888 28.1997 3.41066 28.2072 3.42245 28.2143L6.71165 30.1937V32.447C6.7125 33.1812 7.0108 33.885 7.54113 34.4042C8.07145 34.9233 8.79048 35.2154 9.54047 35.2162C10.1186 35.2162 10.6147 35.015 11.14 34.802C11.7571 34.5518 12.3951 34.2931 13.3122 34.2931C14.2294 34.2931 14.8674 34.5518 15.4844 34.802C16.0097 35.015 16.5064 35.2162 17.084 35.2162C17.834 35.2154 18.553 34.9233 19.0833 34.4042C19.6136 33.885 19.912 33.1812 19.9128 32.447V30.1937L23.2019 28.2143C23.2137 28.2072 23.2255 28.1997 23.2372 28.192C24.6494 27.2547 25.0543 25.2312 24.1212 23.7735C22.18 20.7393 18.0846 17.6777 13.3122 17.6777C8.53989 17.6777 4.44448 20.7393 2.50285 23.7735C1.57005 25.2312 1.97492 27.2547 3.38709 28.192ZM18.0269 32.447C18.0266 32.6917 17.9272 32.9263 17.7504 33.0994C17.5737 33.2724 17.334 33.3698 17.084 33.37C16.8809 33.37 16.5682 33.2431 16.2061 33.0963C15.5301 32.8223 14.6045 32.447 13.3122 32.447C12.0199 32.447 11.0943 32.8223 10.4183 33.0963C10.0563 33.2431 9.74356 33.37 9.54047 33.37C9.29047 33.3698 9.0508 33.2724 8.87402 33.0994C8.69725 32.9263 8.59781 32.6917 8.59753 32.447V30.6008H18.0269V32.447ZM4.10101 24.7536C5.76671 22.1505 9.26101 19.5239 13.3122 19.5239C17.3634 19.5239 20.8577 22.1505 22.5234 24.7536C22.9155 25.366 22.7573 26.2664 22.1934 26.6541L18.7032 28.7547H17.6667L18.8703 26.3983C18.9798 26.1796 18.9966 25.9274 18.917 25.6966C18.8374 25.4658 18.6679 25.2752 18.4454 25.1663C18.2228 25.0573 17.9653 25.0389 17.729 25.115C17.4926 25.1911 17.2966 25.3556 17.1836 25.5726L15.5583 28.7547H14.2552V25.0623C14.2552 24.8175 14.1558 24.5827 13.979 24.4096C13.8021 24.2365 13.5623 24.1393 13.3122 24.1393C13.0621 24.1393 12.8223 24.2365 12.6455 24.4096C12.4686 24.5827 12.3693 24.8175 12.3693 25.0623V28.7547H11.0661L9.44087 25.5726C9.38608 25.4632 9.30971 25.3655 9.21617 25.2852C9.12263 25.2048 9.01377 25.1434 8.89586 25.1044C8.77795 25.0654 8.65333 25.0497 8.52918 25.0581C8.40503 25.0665 8.28381 25.0989 8.1725 25.1534C8.06119 25.2079 7.96201 25.2834 7.88066 25.3756C7.79931 25.4678 7.73741 25.5748 7.69852 25.6905C7.65963 25.8063 7.64453 25.9284 7.65409 26.0499C7.66364 26.1713 7.69766 26.2897 7.75419 26.3983L8.95773 28.7547H7.92121L4.4308 26.6547C3.86716 26.2664 3.70898 25.366 4.10101 24.7536Z" fill="#222222"/>
</svg>
