<svg width="61" height="61" viewBox="0 0 61 61" fill="none" xmlns="http://www.w3.org/2000/svg">
<g clip-path="url(#clip0_1633_6282)">
<path d="M29.5972 38.729C29.4753 38.8957 29.3355 39.0488 29.1804 39.1858C29.0498 39.3009 28.9575 39.4526 28.9159 39.6208C28.8744 39.789 28.8854 39.9657 28.9476 40.1275C29.0098 40.2894 29.1202 40.4287 29.2642 40.5269C29.4081 40.6252 29.5789 40.6778 29.7537 40.6777C29.9649 40.678 30.1688 40.6011 30.3264 40.4619C30.5743 40.243 30.7977 39.9984 30.9927 39.7322C31.5575 38.965 31.8604 38.0395 31.8574 37.0902C31.8572 36.8639 31.7662 36.6469 31.6045 36.487C31.4429 36.327 31.2237 36.2372 30.9952 36.2372H30.9942C30.881 36.2373 30.7689 36.2595 30.6643 36.3025C30.5598 36.3455 30.4648 36.4085 30.3848 36.4879C30.3048 36.5673 30.2414 36.6615 30.1982 36.7651C30.155 36.8688 30.1328 36.9799 30.1329 37.092C30.1348 37.6802 29.9471 38.2537 29.5972 38.729ZM22.4877 32.3543C24.7871 32.9911 27.602 33.8483 28.9721 34.833C29.119 34.939 29.2961 34.996 29.4778 34.9959C29.66 34.9961 29.8376 34.9391 29.9851 34.8331C30.1326 34.7271 30.2424 34.5776 30.2987 34.406C30.355 34.2344 30.355 34.0495 30.2986 33.8779C30.2423 33.7063 30.1324 33.5568 29.9849 33.4508C28.4021 32.3132 25.5416 31.4267 22.9521 30.7095C22.4934 30.5825 22.0176 30.8477 21.8895 31.3019C21.7613 31.7561 22.0293 32.2273 22.4877 32.3543Z" fill="#222222"/>
<path d="M59.4866 44.6274C60.3865 43.0817 60.8572 41.3388 60.8572 39.5219C60.8572 29.7635 52.8774 21.8247 43.0687 21.8247H30.2098C28.3552 20.7564 26.3849 19.5321 25.4561 18.4215L23.6159 16.2212C23.6311 16.2091 23.6463 16.1967 23.6613 16.1843C25.2291 14.8866 25.4432 12.5619 24.1388 11.0022C22.8345 9.44266 20.4978 9.22947 18.9301 10.5273C18.1706 11.156 17.7027 12.0412 17.6125 13.02C17.6034 13.1192 17.5982 13.2188 17.597 13.3185C16.5651 13.1407 15.4639 13.3964 14.5978 14.1136C13.03 15.4112 12.8159 17.736 14.1202 19.2956C15.4245 20.8552 17.7612 21.0684 19.329 19.7706C19.3441 19.7581 19.359 19.7456 19.3738 19.7329L21.2139 21.9332C21.2647 21.994 21.3162 22.0599 21.3678 22.1287C19.1646 22.5932 17.1065 23.5797 15.3683 25.0043C14.461 24.66 13.7 24.2975 13.1541 23.9034L10.8256 22.2221C10.8373 22.2065 10.8489 22.1909 10.8604 22.1751C11.4407 21.3796 11.6749 20.407 11.52 19.4364C11.365 18.4658 10.8393 17.6132 10.0397 17.0358C9.24021 16.4585 8.26249 16.2253 7.28689 16.3797C6.31116 16.5339 5.45426 17.0569 4.874 17.8523C4.29373 18.6478 4.05948 19.6204 4.21447 20.5911C4.23021 20.6895 4.2497 20.7867 4.27294 20.8824C4.17432 20.8902 4.07522 20.9018 3.97647 20.9175C3.00075 21.0717 2.14385 21.5947 1.56358 22.39C0.98331 23.1855 0.749066 24.1581 0.904055 25.1289C1.05904 26.0996 1.58471 26.9521 2.3842 27.5294C3.1838 28.1067 4.16128 28.3397 5.13712 28.1855C6.11285 28.0313 6.96975 27.5083 7.55001 26.7128C7.56152 26.6971 7.57279 26.6812 7.58407 26.6653L9.91265 28.3468C10.4227 28.715 10.9646 29.2698 11.5313 29.954C10.6825 31.7843 10.2513 33.7426 10.2513 35.784C10.2513 43.4812 16.5456 49.7432 24.2824 49.7432H36.4934C36.5979 49.7432 36.6977 49.7241 36.7909 49.6909C37.6606 50.3279 38.7153 50.6777 39.8396 50.6777H57.1588C59.1982 50.6777 60.8574 49.027 60.8574 46.9981C60.8572 45.9879 60.3056 45.1041 59.4866 44.6274ZM25.4274 20.8009C25.8591 21.1461 26.3377 21.4877 26.8453 21.8248H24.2822C24.2512 21.8248 24.2202 21.8256 24.1892 21.8258L25.4274 20.8009ZM20.0543 17.8071C19.9641 17.6993 19.8492 17.6147 19.7192 17.5603C19.5893 17.5059 19.4481 17.4833 19.3076 17.4944C19.1671 17.5055 19.0313 17.5501 18.9116 17.6242C18.792 17.6984 18.6919 17.8 18.62 17.9206C18.4952 18.1298 18.3586 18.2944 18.2024 18.4238C17.3812 19.1036 16.1572 18.9918 15.474 18.1749C14.7908 17.3579 14.9029 16.1403 15.7241 15.4605C16.5453 14.7808 17.7693 14.8925 18.4525 15.7094C18.6026 15.8859 18.8166 15.9962 19.0481 16.0164C19.2795 16.0366 19.5096 15.9649 19.6882 15.8171C19.8668 15.6692 19.9794 15.4572 20.0016 15.2271C20.0237 14.997 19.9535 14.7675 19.8063 14.5886C19.4753 14.1929 19.3191 13.6926 19.3663 13.1799C19.4135 12.6672 19.6586 12.2035 20.0563 11.8742C20.8776 11.1945 22.1015 11.3061 22.7848 12.1231C23.4681 12.9401 23.3558 14.1577 22.5346 14.8375C22.3784 14.9668 22.1909 15.0705 21.9615 15.1544C21.8292 15.2028 21.7104 15.2821 21.6153 15.3857C21.5202 15.4893 21.4515 15.6141 21.415 15.7496C21.3784 15.885 21.3751 16.0273 21.4053 16.1643C21.4356 16.3013 21.4984 16.4291 21.5886 16.537L24.1022 19.5424C24.1144 19.557 24.1285 19.5716 24.141 19.5862L22.6046 20.858C22.5924 20.8431 22.5802 20.8273 22.5678 20.8126L20.0543 17.8071ZM13.2912 29.3426C13.2725 29.3157 13.2523 29.2899 13.2307 29.2653C12.916 28.8669 12.6044 28.4972 12.2958 28.1624L13.7166 26.215C15.6093 27.0717 18.2179 27.7626 20.9409 28.4835C24.9406 29.5424 29.0764 30.6374 31.3942 32.3111C34.3546 34.4488 35.0149 38.584 32.8664 41.5292C31.8255 42.956 30.2885 43.8941 28.5384 44.1707C26.7882 44.4472 25.0347 44.0294 23.6006 42.9939C21.2828 41.3203 18.9545 37.7476 16.7028 34.2926C15.5281 32.4899 14.391 30.7457 13.2912 29.3426ZM7.76665 24.6322C7.65253 24.5498 7.52021 24.4959 7.3808 24.4749C7.24139 24.454 7.09897 24.4667 6.96551 24.5119C6.83205 24.5571 6.71145 24.6335 6.61385 24.7348C6.51625 24.836 6.44449 24.959 6.40463 25.0936C6.33559 25.327 6.244 25.5198 6.12459 25.6836C5.97563 25.8889 5.78723 26.0628 5.57029 26.1952C5.35335 26.3276 5.11219 26.4159 4.86073 26.455C4.60947 26.4954 4.35266 26.4858 4.10515 26.4268C3.85764 26.3679 3.62434 26.2606 3.41875 26.1114C3.21236 25.9632 3.03757 25.7758 2.90447 25.5599C2.77137 25.3441 2.68261 25.1042 2.64333 24.854C2.5622 24.3455 2.6849 23.8361 2.98877 23.4194C3.29264 23.0027 3.74164 22.7288 4.25263 22.648C4.50389 22.6075 4.76071 22.6171 5.00823 22.6761C5.25575 22.7351 5.48905 22.8423 5.69461 22.9916C5.88362 23.1281 6.11939 23.1843 6.35006 23.1479C6.58073 23.1115 6.7874 22.9853 6.9246 22.7973C7.06181 22.6093 7.11831 22.3747 7.08168 22.1452C7.04505 21.9157 6.91829 21.7101 6.72928 21.5736C6.31046 21.2712 6.035 20.8246 5.95387 20.3161C5.87273 19.8076 5.99543 19.2982 6.2993 18.8815C6.60318 18.4649 7.05217 18.1909 7.56317 18.1101C8.07428 18.0295 8.58633 18.1513 9.00515 18.4538C9.42385 18.7562 9.69931 19.2028 9.78056 19.7113C9.86181 20.2198 9.73899 20.7292 9.43501 21.146C9.31571 21.3095 9.15978 21.4559 8.95806 21.5936C8.84181 21.673 8.74642 21.779 8.67991 21.9027C8.6134 22.0263 8.57771 22.1641 8.57584 22.3044C8.57398 22.4446 8.60599 22.5833 8.6692 22.7087C8.7324 22.8341 8.82494 22.9425 8.93904 23.0249L12.1196 25.3215C12.1352 25.3327 12.1518 25.3437 12.1676 25.355L10.9938 26.9639C10.9782 26.9524 10.9626 26.94 10.947 26.9288L7.76665 24.6322ZM57.1586 48.9255H39.8393C38.7328 48.9255 37.7271 48.4133 37.0801 47.5203C36.4331 46.6271 36.2627 45.516 36.6126 44.4717C36.6492 44.3625 36.6638 44.2473 36.6556 44.1325C36.6474 44.0177 36.6165 43.9057 36.5648 43.8028C36.5131 43.6999 36.4415 43.6081 36.3541 43.5327C36.2668 43.4573 36.1653 43.3998 36.0556 43.3635C35.834 43.29 35.5922 43.3071 35.3833 43.411C35.1744 43.5149 35.0155 43.6971 34.9417 43.9175C34.4807 45.2933 34.6155 46.7452 35.301 47.991H24.2822C17.5165 47.991 12.0123 42.5149 12.0123 35.784C12.0123 34.3231 12.2639 32.9113 12.7615 31.5701C13.5521 32.6789 14.3783 33.9465 15.225 35.2458C17.5643 38.8353 19.9832 42.5468 22.5661 44.4118C24.0523 45.4851 25.7767 46.0016 27.4863 46.0016C30.086 46.0016 32.6513 44.8068 34.2915 42.5584C37.0107 38.8312 36.1749 33.5981 32.4285 30.8929C29.8456 29.0279 25.5489 27.8902 21.3937 26.7901C19.9945 26.4196 18.627 26.0575 17.3929 25.6835C19.425 24.31 21.8253 23.576 24.2821 23.5767H29.8936C29.9519 23.5825 30.0101 23.5824 30.0676 23.5767H43.0685C51.906 23.5767 59.0957 30.7296 59.0957 39.5218C59.0957 41.2275 58.5942 42.8537 57.6435 44.2528H46.8277C46.8012 44.2528 46.7854 44.2528 46.7719 44.2128C46.7585 44.1729 46.7713 44.1634 46.7923 44.1476L48.2952 43.0262C48.4821 42.8868 48.6056 42.6792 48.6386 42.4492C48.6717 42.2192 48.6115 41.9855 48.4714 41.7997C48.3312 41.6138 48.1226 41.4909 47.8914 41.458C47.6602 41.4252 47.4253 41.485 47.2385 41.6244L45.7356 42.7459C45.0981 43.2215 44.8491 44.0148 45.1011 44.767C45.353 45.5191 46.0308 46.0051 46.8277 46.0051H58.0912C58.0933 46.0051 58.0953 46.0055 58.0975 46.0055L58.1021 46.0053C58.6505 46.0078 59.0958 46.452 59.0958 46.9981C59.096 48.0608 58.2268 48.9255 57.1586 48.9255Z" fill="#222222"/>
<path d="M45.5825 26.7822C45.6165 26.5582 45.555 26.3305 45.4114 26.1494C45.2678 25.9682 45.0539 25.8483 44.8168 25.8161C44.1358 25.724 43.4487 25.6777 42.7608 25.6777C42.5212 25.6777 42.2914 25.7677 42.122 25.9277C41.9526 26.0878 41.8574 26.3048 41.8574 26.5312C41.8574 26.7576 41.9526 26.9746 42.122 27.1347C42.2914 27.2947 42.5212 27.3847 42.7608 27.3847C43.363 27.3847 43.9681 27.4253 44.5598 27.5056C44.797 27.5377 45.0379 27.4795 45.2296 27.3439C45.4214 27.2083 45.5483 27.0062 45.5825 26.7822ZM48.1525 28.5317C50.7659 29.7072 52.8903 31.7143 54.1344 34.1832C54.1846 34.2856 54.2558 34.3775 54.3439 34.4537C54.432 34.5299 54.5351 34.5888 54.6475 34.6271C54.7598 34.6654 54.879 34.6822 54.9983 34.6767C55.1176 34.6712 55.2345 34.6434 55.3423 34.5949C55.4501 34.5464 55.5467 34.4782 55.6265 34.3942C55.7062 34.3102 55.7675 34.2122 55.8069 34.1057C55.8463 33.9992 55.8629 33.8864 55.8558 33.7737C55.8488 33.6611 55.8181 33.551 55.7657 33.4496C54.3438 30.6278 51.9159 28.3339 48.9291 26.9905C48.8219 26.9423 48.7058 26.9145 48.5874 26.9088C48.4689 26.903 48.3503 26.9193 48.2385 26.9568C48.1267 26.9943 48.0239 27.0522 47.9358 27.1273C47.8476 27.2024 47.7761 27.2931 47.7251 27.3943C47.6741 27.4955 47.6447 27.6052 47.6386 27.7171C47.6325 27.829 47.6497 27.941 47.6894 28.0466C47.7696 28.2599 47.9362 28.4344 48.1525 28.5317Z" fill="#222222"/>
</g>
<defs>
<clipPath id="clip0_1633_6282">
<rect width="60" height="60" fill="white" transform="translate(0.857422 0.677734)"/>
</clipPath>
</defs>
</svg>
