<svg width="24" height="25" viewBox="0 0 24 25" fill="none" xmlns="http://www.w3.org/2000/svg">
<g clip-path="url(#clip0_1568_12944)">
<path fill-rule="evenodd" clip-rule="evenodd" d="M10.4998 2.17773C9.14436 2.17785 7.80863 2.5021 6.60402 3.12343C5.39941 3.74476 4.36086 4.64515 3.575 5.74949C2.78914 6.85382 2.27878 8.13008 2.08647 9.47178C1.89417 10.8135 2.02551 12.1817 2.46954 13.4623C2.91357 14.7429 3.65741 15.8988 4.639 16.8335C5.62059 17.7681 6.81147 18.4545 8.11228 18.8353C9.41309 19.2162 10.7861 19.2804 12.1168 19.0226C13.4475 18.7649 14.6972 18.1927 15.7618 17.3537L19.4138 21.0057C19.6024 21.1879 19.855 21.2887 20.1172 21.2864C20.3794 21.2841 20.6302 21.179 20.8156 20.9936C21.001 20.8081 21.1062 20.5573 21.1084 20.2951C21.1107 20.0329 21.0099 19.7803 20.8278 19.5917L17.1758 15.9397C18.1638 14.6864 18.7789 13.1801 18.9509 11.5935C19.1228 10.0068 18.8446 8.40375 18.148 6.96783C17.4514 5.5319 16.3646 4.32109 15.0121 3.47397C13.6595 2.62684 12.0957 2.17763 10.4998 2.17773ZM3.99977 10.6777C3.99977 8.95383 4.68458 7.30053 5.90357 6.08154C7.12256 4.86255 8.77586 4.17773 10.4998 4.17773C12.2237 4.17773 13.877 4.86255 15.096 6.08154C16.3149 7.30053 16.9998 8.95383 16.9998 10.6777C16.9998 12.4016 16.3149 14.0549 15.096 15.2739C13.877 16.4929 12.2237 17.1777 10.4998 17.1777C8.77586 17.1777 7.12256 16.4929 5.90357 15.2739C4.68458 14.0549 3.99977 12.4016 3.99977 10.6777Z" fill="white"/>
</g>
<defs>
<clipPath id="clip0_1568_12944">
<rect width="24" height="24" fill="white" transform="translate(0 0.177734)"/>
</clipPath>
</defs>
</svg>
