<svg width="32" height="33" viewBox="0 0 32 33" fill="none" xmlns="http://www.w3.org/2000/svg">
<path opacity="0.1" fill-rule="evenodd" clip-rule="evenodd" d="M0 16.6777C0 7.84118 7.16344 0.677734 16 0.677734C24.8366 0.677734 32 7.84118 32 16.6777C32 25.5143 24.8366 32.6777 16 32.6777C7.16344 32.6777 0 25.5143 0 16.6777Z" fill="white"/>
<path fill-rule="evenodd" clip-rule="evenodd" d="M15.5008 7.67773C13.1923 7.67773 12.9026 7.68783 11.9959 7.72909C11.091 7.77053 10.4733 7.91379 9.93288 8.12398C9.37383 8.34109 8.89959 8.63151 8.42713 9.10414C7.95431 9.5766 7.66389 10.0508 7.44608 10.6097C7.23535 11.1503 7.09191 11.7682 7.05118 12.6727C7.01063 13.5794 7 13.8693 7 16.1777C7 18.4862 7.01027 18.775 7.05135 19.6817C7.09297 20.5866 7.23623 21.2042 7.44625 21.7447C7.66354 22.3038 7.95396 22.778 8.4266 23.2504C8.89888 23.7233 9.37312 24.0144 9.93182 24.2315C10.4726 24.4417 11.0905 24.5849 11.9952 24.6264C12.9019 24.6676 13.1914 24.6777 15.4997 24.6777C17.8084 24.6777 18.0972 24.6676 19.0039 24.6264C19.9088 24.5849 20.5272 24.4417 21.068 24.2315C21.6269 24.0144 22.1004 23.7233 22.5727 23.2504C23.0455 22.778 23.3359 22.3038 23.5537 21.7449C23.7627 21.2042 23.9061 20.5864 23.9486 19.6819C23.9894 18.7752 24 18.4862 24 16.1777C24 13.8693 23.9894 13.5796 23.9486 12.6729C23.9061 11.768 23.7627 11.1503 23.5537 10.6099C23.3359 10.0508 23.0455 9.5766 22.5727 9.10414C22.0999 8.63133 21.6271 8.34091 21.0675 8.12398C20.5256 7.91379 19.9076 7.77053 19.0027 7.72909C18.096 7.68783 17.8073 7.67773 15.4981 7.67773H15.5008ZM14.7382 9.20948C14.9645 9.20913 15.2171 9.20948 15.5008 9.20948C17.7703 9.20948 18.0393 9.21763 18.9355 9.25836C19.7643 9.29625 20.2141 9.43473 20.5137 9.55108C20.9104 9.70514 21.1932 9.8893 21.4905 10.1868C21.788 10.4843 21.9722 10.7676 22.1266 11.1643C22.2429 11.4636 22.3816 11.9134 22.4193 12.7421C22.46 13.6382 22.4689 13.9073 22.4689 16.1758C22.4689 18.4442 22.46 18.7134 22.4193 19.6094C22.3814 20.4382 22.2429 20.888 22.1266 21.1872C21.9725 21.5839 21.788 21.8663 21.4905 22.1637C21.193 22.4612 20.9105 22.6453 20.5137 22.7994C20.2144 22.9163 19.7643 23.0544 18.9355 23.0923C18.0395 23.133 17.7703 23.1419 15.5008 23.1419C13.2311 23.1419 12.9621 23.133 12.066 23.0923C11.2373 23.054 10.7875 22.9156 10.4877 22.7992C10.091 22.6451 9.80765 22.461 9.51015 22.1635C9.21264 21.866 9.02847 21.5834 8.87406 21.1865C8.75771 20.8872 8.61905 20.4375 8.58133 19.6087C8.5406 18.7127 8.53246 18.4435 8.53246 16.1736C8.53246 13.9038 8.5406 13.636 8.58133 12.74C8.61923 11.9112 8.75771 11.4615 8.87406 11.1618C9.02812 10.7652 9.21264 10.4818 9.51015 10.1843C9.80765 9.88683 10.091 9.70266 10.4877 9.54824C10.7873 9.43137 11.2373 9.29324 12.066 9.25517C12.8501 9.21975 13.154 9.20913 14.7382 9.20736V9.20948ZM20.038 10.6208C19.4749 10.6208 19.018 11.0772 19.018 11.6405C19.018 12.2036 19.4749 12.6605 20.038 12.6605C20.6012 12.6605 21.0581 12.2036 21.0581 11.6405C21.0581 11.0774 20.6012 10.6208 20.038 10.6208ZM15.5008 11.8126C13.0902 11.8126 11.1357 13.7671 11.1357 16.1777C11.1357 18.5883 13.0902 20.5419 15.5008 20.5419C17.9115 20.5419 19.8653 18.5883 19.8653 16.1777C19.8653 13.7671 17.9115 11.8126 15.5008 11.8126ZM15.5008 13.3444C17.0655 13.3444 18.3341 14.6128 18.3341 16.1777C18.3341 17.7424 17.0655 19.011 15.5008 19.011C13.9359 19.011 12.6674 17.7424 12.6674 16.1777C12.6674 14.6128 13.9359 13.3444 15.5008 13.3444Z" fill="white"/>
</svg>
