<svg width="32" height="33" viewBox="0 0 32 33" fill="none" xmlns="http://www.w3.org/2000/svg">
<path opacity="0.1" fill-rule="evenodd" clip-rule="evenodd" d="M0 16.6777C0 7.84118 7.16344 0.677734 16 0.677734C24.8366 0.677734 32 7.84118 32 16.6777C32 25.5143 24.8366 32.6777 16 32.6777C7.16344 32.6777 0 25.5143 0 16.6777Z" fill="white"/>
<path d="M22.875 7.67773H10.125C8.95306 7.67773 8 8.6308 8 9.80273V22.5527C8 23.7247 8.95306 24.6777 10.125 24.6777H16.5V18.834H14.375V16.1777H16.5V14.0527C16.5 12.2922 17.9269 10.8652 19.6875 10.8652H21.8125V13.5215H20.75C20.1635 13.5215 19.6875 13.4662 19.6875 14.0527V16.1777H22.3438L21.2812 18.834H19.6875V24.6777H22.875C24.0469 24.6777 25 23.7247 25 22.5527V9.80273C25 8.6308 24.0469 7.67773 22.875 7.67773Z" fill="white"/>
</svg>
