<svg width="32" height="33" viewBox="0 0 32 33" fill="none" xmlns="http://www.w3.org/2000/svg">
<path opacity="0.1" fill-rule="evenodd" clip-rule="evenodd" d="M0 16.6777C0 7.84118 7.16344 0.677734 16 0.677734C24.8366 0.677734 32 7.84118 32 16.6777C32 25.5143 24.8366 32.6777 16 32.6777C7.16344 32.6777 0 25.5143 0 16.6777Z" fill="white"/>
<path d="M23.9919 10.9343C23.0161 10.9343 22.1157 10.6124 21.3926 10.0694C20.5634 9.44683 19.9676 8.53366 19.7572 7.48116C19.7044 7.21652 19.6767 6.94753 19.6743 6.67773H16.8867V14.2624L16.8833 18.4169C16.8833 19.5276 16.1569 20.4693 15.15 20.8006C14.8484 20.8999 14.5307 20.9418 14.2136 20.9243C13.7941 20.9013 13.401 20.7753 13.0593 20.5718C12.3323 20.1388 11.8393 19.3533 11.826 18.4548C11.8049 17.0505 12.9451 15.9055 14.3545 15.9055C14.6327 15.9055 14.8999 15.9507 15.15 16.0329V13.2146C14.8862 13.1757 14.6177 13.1554 14.3461 13.1554C12.8035 13.1554 11.3608 13.7939 10.3295 14.9441C9.54996 15.8134 9.0824 16.9224 9.01026 18.0853C8.91575 19.613 9.47716 21.0653 10.5659 22.1367C10.7259 22.294 10.8939 22.44 11.0695 22.5747C12.003 23.29 13.1442 23.6777 14.3461 23.6777C14.6177 23.6777 14.8862 23.6578 15.15 23.6189C16.2728 23.4533 17.3088 22.9415 18.1264 22.1367C19.131 21.1481 19.686 19.8355 19.692 18.4385L19.6777 12.2346C20.1581 12.6035 20.6843 12.9091 21.2433 13.1437C22.118 13.5112 23.0455 13.6974 24 13.6971V10.9336C24.0006 10.9343 23.9926 10.9343 23.9919 10.9343Z" fill="white"/>
</svg>
