<svg width="13" height="14" viewBox="0 0 13 14" fill="none" xmlns="http://www.w3.org/2000/svg">
<g clip-path="url(#clip0_1568_12224)">
<path d="M11.7577 5.06255L8.81403 4.63395C8.78787 4.63014 8.76301 4.62005 8.74158 4.60456C8.72014 4.58907 8.70277 4.56863 8.69094 4.54498L7.37469 1.87714C7.20853 1.54239 6.87378 1.33398 6.50003 1.33398C6.12628 1.33398 5.79113 1.54239 5.62578 1.87755L4.30913 4.54498C4.29741 4.56868 4.28013 4.58919 4.25877 4.60475C4.2374 4.62031 4.21259 4.63047 4.18644 4.63436L1.24235 5.06255C1.062 5.08788 0.892457 5.16356 0.75319 5.28091C0.613923 5.39826 0.510581 5.55252 0.455034 5.72595C0.397949 5.89886 0.390807 6.08436 0.434428 6.26115C0.478049 6.43793 0.570664 6.59882 0.701628 6.72533L2.83241 8.80248C2.8706 8.83945 2.88806 8.89348 2.87872 8.9463L2.3766 11.8786C2.31322 12.2475 2.46191 12.6127 2.76456 12.8325C2.91138 12.9403 3.08566 13.0045 3.26735 13.0177C3.44904 13.0308 3.63075 12.9924 3.79157 12.9068L6.42528 11.5219C6.44849 11.5098 6.47427 11.5035 6.50044 11.5035C6.52661 11.5035 6.55239 11.5098 6.5756 11.5219L9.20972 12.9068C9.37065 12.9918 9.55218 13.0298 9.73366 13.0167C9.91515 13.0035 10.0893 12.9397 10.2363 12.8325C10.3842 12.7261 10.499 12.5801 10.5676 12.4114C10.6363 12.2427 10.6559 12.058 10.6243 11.8786L10.1218 8.94548C10.1173 8.91958 10.1192 8.89299 10.1274 8.868C10.1355 8.84301 10.1496 8.82038 10.1685 8.80208L12.2988 6.72533C12.567 6.46492 12.6616 6.08142 12.5454 5.72595C12.4899 5.55252 12.3866 5.39826 12.2473 5.28091C12.108 5.16356 11.9385 5.08788 11.7581 5.06255H11.7577ZM11.7313 6.14398L9.60135 8.21992C9.48794 8.33026 9.40315 8.46658 9.35431 8.61708C9.30546 8.76757 9.29404 8.92771 9.32103 9.08361L9.82316 12.0159C9.82913 12.0459 9.82615 12.077 9.81459 12.1053C9.80303 12.1336 9.78341 12.1579 9.75816 12.1752C9.73401 12.1936 9.70502 12.2046 9.67472 12.2069C9.64442 12.2091 9.61412 12.2025 9.58753 12.1878L6.95422 10.8033C6.81426 10.7295 6.65844 10.691 6.50024 10.691C6.34203 10.691 6.18621 10.7295 6.04625 10.8033L3.41335 12.1878C3.38665 12.2026 3.3562 12.2093 3.32575 12.2071C3.29529 12.2048 3.26616 12.1937 3.24191 12.1752C3.21666 12.1579 3.19703 12.1336 3.18548 12.1053C3.17392 12.077 3.17094 12.0459 3.17691 12.0159L3.67944 9.08402C3.70636 8.92817 3.69491 8.76812 3.64607 8.6177C3.59722 8.46728 3.51247 8.33103 3.39913 8.22073L1.26875 6.14398C1.2464 6.12325 1.23058 6.09646 1.22322 6.06688C1.21586 6.03729 1.21729 6.00621 1.22732 5.97742C1.23598 5.94804 1.25307 5.92184 1.27646 5.90206C1.29985 5.88228 1.32853 5.86978 1.35894 5.86611L4.30344 5.43792C4.45984 5.41522 4.60837 5.35485 4.73625 5.262C4.86413 5.16915 4.96753 5.04661 5.03753 4.90492L6.35378 2.23708C6.39278 2.15786 6.46225 2.14648 6.50003 2.14648C6.53782 2.14648 6.60728 2.15786 6.64628 2.23708L7.96253 4.90533C8.03263 5.04699 8.13611 5.16948 8.26406 5.26226C8.39201 5.35504 8.54061 5.41533 8.69703 5.43792L11.6411 5.86611C11.6715 5.86975 11.7001 5.88218 11.7235 5.90189C11.7469 5.9216 11.764 5.94771 11.7728 5.97702C11.7828 6.0058 11.7842 6.03689 11.7768 6.06647C11.7695 6.09605 11.7537 6.12325 11.7313 6.14398Z" fill="#FB811F"/>
</g>
<defs>
<clipPath id="clip0_1568_12224">
<rect width="13" height="13" fill="white" transform="translate(0 0.677734)"/>
</clipPath>
</defs>
</svg>
