<svg width="15" height="14" viewBox="0 0 15 14" fill="none" xmlns="http://www.w3.org/2000/svg">
<path d="M12.7577 5.06255L9.81403 4.63395C9.78787 4.63014 9.76301 4.62005 9.74158 4.60456C9.72014 4.58907 9.70277 4.56863 9.69094 4.54498L8.37469 1.87714C8.20853 1.54239 7.87378 1.33398 7.50003 1.33398C7.12628 1.33398 6.79113 1.54239 6.62578 1.87755L5.30913 4.54498C5.29741 4.56868 5.28013 4.58919 5.25877 4.60475C5.2374 4.62031 5.21259 4.63047 5.18644 4.63436L2.24235 5.06255C2.062 5.08788 1.89246 5.16356 1.75319 5.28091C1.61392 5.39826 1.51058 5.55252 1.45503 5.72595C1.39795 5.89886 1.39081 6.08436 1.43443 6.26115C1.47805 6.43793 1.57066 6.59882 1.70163 6.72533L3.83241 8.80248C3.8706 8.83945 3.88806 8.89348 3.87872 8.9463L3.3766 11.8786C3.31322 12.2475 3.46191 12.6127 3.76456 12.8325C3.91138 12.9403 4.08566 13.0045 4.26735 13.0177C4.44904 13.0308 4.63075 12.9924 4.79157 12.9068L7.42528 11.5219C7.44849 11.5098 7.47427 11.5035 7.50044 11.5035C7.52661 11.5035 7.55239 11.5098 7.5756 11.5219L10.2097 12.9068C10.3706 12.9918 10.5522 13.0298 10.7337 13.0167C10.9151 13.0035 11.0893 12.9397 11.2363 12.8325C11.3842 12.7261 11.499 12.5801 11.5676 12.4114C11.6363 12.2427 11.6559 12.058 11.6243 11.8786L11.1218 8.94548C11.1173 8.91958 11.1192 8.89299 11.1274 8.868C11.1355 8.84301 11.1496 8.82038 11.1685 8.80208L13.2988 6.72533C13.567 6.46492 13.6616 6.08142 13.5454 5.72595C13.4899 5.55252 13.3866 5.39826 13.2473 5.28091C13.108 5.16356 12.9385 5.08788 12.7581 5.06255H12.7577ZM12.7313 6.14398L10.6013 8.21992C10.4879 8.33026 10.4031 8.46658 10.3543 8.61708C10.3055 8.76757 10.294 8.92771 10.321 9.08361L10.8232 12.0159C10.8291 12.0459 10.8261 12.077 10.8146 12.1053C10.803 12.1336 10.7834 12.1579 10.7582 12.1752C10.734 12.1936 10.705 12.2046 10.6747 12.2069C10.6444 12.2091 10.6141 12.2025 10.5875 12.1878L7.95422 10.8033C7.81426 10.7295 7.65844 10.691 7.50024 10.691C7.34203 10.691 7.18621 10.7295 7.04625 10.8033L4.41335 12.1878C4.38665 12.2026 4.3562 12.2093 4.32575 12.2071C4.29529 12.2048 4.26616 12.1937 4.24191 12.1752C4.21666 12.1579 4.19703 12.1336 4.18548 12.1053C4.17392 12.077 4.17094 12.0459 4.17691 12.0159L4.67944 9.08402C4.70636 8.92817 4.69491 8.76812 4.64607 8.6177C4.59722 8.46728 4.51247 8.33103 4.39913 8.22073L2.26875 6.14398C2.2464 6.12325 2.23058 6.09646 2.22322 6.06688C2.21586 6.03729 2.21729 6.00621 2.22732 5.97742C2.23598 5.94804 2.25307 5.92184 2.27646 5.90206C2.29985 5.88228 2.32853 5.86978 2.35894 5.86611L5.30344 5.43792C5.45984 5.41522 5.60837 5.35485 5.73625 5.262C5.86413 5.16915 5.96753 5.04661 6.03753 4.90492L7.35378 2.23708C7.39278 2.15786 7.46225 2.14648 7.50003 2.14648C7.53782 2.14648 7.60728 2.15786 7.64628 2.23708L8.96253 4.90533C9.03263 5.04699 9.13611 5.16948 9.26406 5.26226C9.39201 5.35504 9.54061 5.41533 9.69703 5.43792L12.6411 5.86611C12.6715 5.86975 12.7001 5.88218 12.7235 5.90189C12.7469 5.9216 12.764 5.94771 12.7728 5.97702C12.7828 6.0058 12.7842 6.03689 12.7768 6.06647C12.7695 6.09605 12.7537 6.12325 12.7313 6.14398Z" fill="#FB811F" stroke="#87D848"/>
</svg>
