<svg width="9" height="14" viewBox="0 0 9 14" fill="none" xmlns="http://www.w3.org/2000/svg">
<path d="M4.5001 0.677734C2.01477 0.677734 0 2.63396 0 5.04691C0 7.12936 1.17065 8.72883 4.37904 13.6015C4.44593 13.7032 4.55424 13.7032 4.62126 13.6015C7.8295 8.72883 9 7.12956 9 5.04691C9 2.63384 6.98529 0.677734 4.50019 0.677734H4.5001ZM4.5001 7.50487C3.10224 7.50487 1.96885 6.40428 1.96885 5.04711C1.96885 3.68971 3.10235 2.58934 4.5001 2.58934C5.89797 2.58934 7.03135 3.68971 7.03135 5.04711C7.03135 6.40428 5.89785 7.50487 4.5001 7.50487Z" fill="black"/>
</svg>
