<svg width="13" height="15" viewBox="0 0 13 15" fill="none" xmlns="http://www.w3.org/2000/svg">
<path d="M10.1548 8.8526L12.9538 9.67946C12.1245 12.6105 10.1548 14.0729 7.04484 14.0729C5.14322 14.0729 3.57852 13.4558 2.35396 12.2217C1.13589 10.9876 0.526855 9.30305 0.526855 7.16186C0.526855 4.91577 1.13913 3.1695 2.36692 1.91687C3.59147 0.667329 5.20477 0.0410156 7.20034 0.0410156C8.95293 0.0410156 10.3751 0.534662 11.4636 1.52195C12.1115 2.0989 12.5942 2.92576 12.9149 4.00253L10.0641 4.66895C9.88916 3.95316 9.53605 3.39472 9.00153 2.99055C8.47348 2.58946 7.82557 2.38583 7.0578 2.38583C5.99522 2.38583 5.1335 2.7499 4.47911 3.47186C3.82148 4.18764 3.49429 5.35697 3.49429 6.97674C3.49429 8.67982 3.81824 9.9016 4.46615 10.6421C5.12054 11.3764 5.96931 11.7404 7.00596 11.7404C7.77374 11.7404 8.43137 11.5059 8.97561 11.037C9.52633 10.568 9.92156 9.83989 10.1548 8.8526Z" fill="white"/>
</svg>
