<svg width="15" height="14" viewBox="0 0 15 14" fill="none" xmlns="http://www.w3.org/2000/svg">
<path d="M2.43453 0.261719H7.65669C9.11449 0.261719 10.2095 0.409813 10.9351 0.706C11.6608 1.00219 12.2828 1.46498 12.8011 2.08821C13.3259 2.70527 13.7211 3.42722 13.9803 4.24791C14.2395 5.07168 14.369 6.06206 14.369 7.22213C14.369 8.33283 14.2006 9.33864 13.8637 10.2334C13.5332 11.1312 13.0473 11.884 12.3994 12.4918C11.9491 12.8805 11.3692 13.2014 10.663 13.4544C9.96325 13.7105 9.0173 13.837 7.82515 13.837H2.43453V7.92558H0.944336V6.19781H2.43453V0.261719ZM5.28534 2.55717V6.19781H8.34348V7.92558H5.28534V11.5415H7.44936C8.46658 11.5415 9.17928 11.4644 9.58746 11.3071C10.0021 11.1528 10.339 10.909 10.5982 10.5789C10.8574 10.2519 11.0517 9.79526 11.1813 9.20906C11.3109 8.62594 11.3757 7.93175 11.3757 7.1234C11.3757 6.10526 11.2915 5.31851 11.1295 4.76624C10.9643 4.21706 10.7083 3.77278 10.365 3.4334C10.028 3.08784 9.60042 2.84719 9.08209 2.70527C8.64799 2.60654 7.81867 2.55717 6.59412 2.55717H5.28534Z" fill="white"/>
</svg>
