<svg width="17" height="18" viewBox="0 0 17 18" fill="none" xmlns="http://www.w3.org/2000/svg">
<path d="M3.72329 7.05079C3.72329 8.50088 4.07964 9.64243 4.79882 10.4816C5.52448 11.3208 6.48663 11.7404 7.6885 11.7404C8.88714 11.7404 9.83957 11.3332 10.5393 10.5187C11.2455 9.69797 11.6019 8.52864 11.6019 7.01377C11.6019 5.45878 11.2553 4.29871 10.5652 3.53356C9.87196 2.76841 8.91306 2.38583 7.6885 2.38583C6.45099 2.38583 5.47913 2.79001 4.77291 3.59527C4.07316 4.40361 3.72329 5.55443 3.72329 7.05079ZM14.1547 0.263156H16.8759V2.11433C16.8759 2.88874 16.8046 3.49345 16.6685 3.92848C16.5292 4.35733 16.2733 4.73991 15.904 5.07621C15.5315 5.40633 15.065 5.67475 14.5045 5.87838C14.5564 6.25787 14.5823 6.65587 14.5823 7.07547C14.5823 9.24752 13.9603 10.9599 12.7163 12.2094C11.4723 13.4528 9.80069 14.0729 7.70146 14.0729C5.5666 14.0729 3.87231 13.4528 2.62184 12.2094C1.37785 10.9691 0.755859 9.2722 0.755859 7.12484C0.755859 4.94663 1.37137 3.22195 2.60888 1.95389C3.84315 0.679671 5.52772 0.0410156 7.66259 0.0410156C9.37307 0.0410156 10.8017 0.454445 11.9518 1.27513C13.1083 2.0989 13.889 3.23429 14.2972 4.68129C15.0488 4.35425 15.4408 3.74336 15.4764 2.8548H14.1547V0.263156ZM6.18535 17.5531V14.9615H8.94545V17.5531H6.18535Z" fill="white"/>
</svg>
